<?xml version="1.0" encoding="utf-8"?>
<!-- Generator: Adobe Illustrator 21.1.0, SVG Export Plug-In . SVG Version: 6.00 Build 0)  -->
<svg version="1.1"
	 id="Layer_1" inkscape:output_extension="org.inkscape.output.svg.inkscape" inkscape:version="0.46" sodipodi:docname="CentralAmericaLocation.svg" sodipodi:version="0.32" xmlns:cc="http://creativecommons.org/ns#" xmlns:dc="http://purl.org/dc/elements/1.1/" xmlns:inkscape="http://www.inkscape.org/namespaces/inkscape" xmlns:rdf="http://www.w3.org/1999/02/22-rdf-syntax-ns#" xmlns:sodipodi="http://sodipodi.sourceforge.net/DTD/sodipodi-0.dtd" xmlns:svg="http://www.w3.org/2000/svg"
	 xmlns="http://www.w3.org/2000/svg" xmlns:xlink="http://www.w3.org/1999/xlink" x="0px" y="0px" viewBox="0 0 425 360"
	 style="enable-background:new 0 0 425 360;" xml:space="preserve">
<style type="text/css">
	.st0{fill:#231F20;stroke:#FFFFFF;stroke-width:1.21;}
</style>
<defs>
	
	
		<inkscape:perspective  id="perspective651" inkscape:persp3d-origin="279.3555 : 181.078 : 1" inkscape:vp_x="0 : 271.617 : 1" inkscape:vp_y="0 : 1000 : 0" inkscape:vp_z="558.711 : 271.617 : 1" sodipodi:type="inkscape:persp3d">
		</inkscape:perspective>
	
		<inkscape:perspective  id="perspective6155" inkscape:persp3d-origin="470 : 138.33333 : 1" inkscape:vp_x="0 : 207.5 : 1" inkscape:vp_y="0 : 1000 : 0" inkscape:vp_z="940 : 207.5 : 1" sodipodi:type="inkscape:persp3d">
		</inkscape:perspective>
	
		<inkscape:perspective  id="perspective11954" inkscape:persp3d-origin="470 : 138.33333 : 1" inkscape:vp_x="0 : 207.5 : 1" inkscape:vp_y="0 : 1000 : 0" inkscape:vp_z="940 : 207.5 : 1" sodipodi:type="inkscape:persp3d">
		</inkscape:perspective>
	
		<inkscape:perspective  id="perspective405" inkscape:persp3d-origin="231.5 : 78.666667 : 1" inkscape:vp_x="0 : 118 : 1" inkscape:vp_y="0 : 1000 : 0" inkscape:vp_z="463 : 118 : 1" sodipodi:type="inkscape:persp3d">
		</inkscape:perspective>
</defs>
<sodipodi:namedview  bordercolor="#666666" borderopacity="1.0" gridtolerance="10.0" guidetolerance="10.0" id="base" inkscape:current-layer="Layer_1" inkscape:cx="242.61514" inkscape:cy="270.95337" inkscape:pageopacity="0.0" inkscape:pageshadow="2" inkscape:window-height="778" inkscape:window-width="1152" inkscape:window-x="44" inkscape:window-y="0" inkscape:zoom="1.054794" objecttolerance="10.0" pagecolor="#ffffff" showgrid="false">
	</sodipodi:namedview>
<path id="path460" class="st0" d="M60,62.5c-2,1.4-4.5,0.9-6.7,0.3c-1.3-0.4-2.6-1-4-1.4c-1.8-0.4-3.3,0-4.7,1
	c-2.2,1.6-3.7,2.4-6.5,2.4c-1.4,0-3.1-0.4-4.4,0.2c-1.3,0.6-2.1,2.6-3,3.7c-2.8,3.3-4.4,6.6-6.1,10.5c-1.4,3.1-4.4,5.4-5,8.8
	c-0.5,3.3,1.3,6.8-0.9,9.8c-1.4,1.9-3.3,4.5-3.5,6.9c-0.3,3.1,2.6,2.4,4.6,2.3c0.8-0.1,2-0.2,2.8,0.2c1.3,0.6,1.3,2.3,2.7,3
	c1.6,0.8,3.2,1.4,4.3,2.9c1,1.4,1.5,3.2,3.1,4.2c0.9,0.6,1.9,0.4,2.8,1.2c1.1,1,1.7,2.4,3.3,2.5c2.6,0.2,4.3,0.3,6.5,1.9
	c0.7,0.5,1.2,0.6,2,0.9c1.4,0.5,2.8,1.2,4.3,1.3c1.5,0.1,2.7-1,4.2-0.9c1.9,0.1,3.6,0.8,5.6,0.8c1.5,0,2.3,0.3,3.7,0.8
	c1.4,0.5,2.9,0.4,4.3,0.5c3.1,0.2,21.1,1.7,24,0.4c2-0.9,25.9-49.5,26-51c0.3-3.2-2.2-2.7-4.6-3c-1.6-0.2-2.9-0.6-4.5-0.7
	c-1.7-0.1-3.8-0.1-5.3-1c-0.1-0.1-0.4-2.1-0.5-2.4c-0.3-0.8-0.4-1-1-1.6c-1.2-1-2.5-1.9-2.7-3.5c-0.3-2.2,0.2-44.5-0.9-46.3
	C99.2,16,98,15.4,96.9,15c-0.5-0.2-1.2-0.6-1.7-0.7c-0.6-0.1-1.4,0.1-2,0.2H51.3v12.7c-2.5,0-5.1,0-7.6,0c-0.9,0-1.7,0-2.6,0
	c-0.6,0-1.7-0.2-2.2,0c-1.2,0.4,0.6,1.3,1,1.5c1.4,0.7,2.2,1.5,3.4,2.5c0.9,0.8,2,1.1,3,1.7c0.9,0.5,1.5,1.3,2.1,2.2
	c0.8,1.2,2,2.3,3,3.2c1.1,0.9,2.2,1.8,3.2,2.8c1.2,1.3,2.4,2.7,3.7,3.9c1.5,1.5,2.9,2.9,3.5,5c0.8,2.3,1.1,4.7,0.6,7
	C62.2,59.1,61.9,61.2,60,62.5z"/>
<path id="path462" class="st0" d="M93.5,37.5c0,2.8,0.7,5.5,0.4,8.3c-0.2,1.5-0.5,3-0.5,4.5c0,1.4,0.1,2.8,0.1,4.2
	c0,1.3-0.2,2.5-0.4,3.8c-0.3,2.6-0.4,5.6,0.2,8.2c0.6,2.3,0.8,4.5,0.3,6.9c-0.2,0.8-0.3,1.6,0,2.3c0.5,0.9,1.8,1.5,2.7,1.8
	c2.8,0.9,4.1-1.5,5.7-3.3c1.7-1.8,2.6-4.6,4.6-6.1c1.2-0.9,2.4-2.1,3.3-3.5c1.1-1.7,2.5-2.8,3.9-4.3c0.9-1,1.4-2.5,2.1-3.7
	c1.3-2.1,2.2-3.9,2.3-6.4c0-1.3,0.2-2.6-0.5-3.6c-0.5-0.8-1.7-1.7-1.9-2.7c-0.2-1.1,0.4-2.1,0.4-3.2c0-0.5-0.3-1.1-0.3-1.6
	c0-0.5,0-1.1,0-1.6c0.1-1.4,0.9-1.8,1.5-3c0.6-1.3-0.6-1.8-0.6-3c0-1,0.6-2.3,0.9-3.3c0.4-1.6,0.7-3.2,1.1-4.8
	c0.3-1.4,0.7-3,1.1-4.4c0.3-1.1,0.9-2,1.4-3c0.5-0.9,0.4-1.6,0.2-2.6c-0.2-0.7-0.4-1.6-0.9-2.1c-0.2-0.2-0.5-0.2-0.7-0.5
	c-0.2-0.2-0.3-0.6-0.5-0.8c-0.4-0.3-1-0.4-1.4-0.6c-0.9-0.3-1.9-0.6-2.8-0.6c-0.8-0.1-2.7-0.3-3.4,0.2c-0.4,0.3-0.6,1-0.7,1.5
	c-0.2,0.8-0.5,1.5-0.8,2.2c-0.5,1.2-1.2,1.6-2.2,2.4c-0.9,0.8-1.6,1.9-2.1,3.1c-0.4,1-0.7,2-1.5,2.9c-0.4,0.4-0.6,0.4-1.1,0.6
	c-0.9,0.3-1.7,0.7-2.6,1c-1.7,0.5-3.9,1-5.4,2c-1.6,1.1-0.9,3.9-1.1,5.6C94,32.7,93.5,35,93.5,37.5z"/>
<path id="path464" class="st0" d="M90.8,119.8c-0.7,0-1.8-0.4-2.4,0c-0.7,0.4-1,1.9-1.3,2.7c-0.5,1.5-0.6,3.1-0.8,4.6
	c-0.2,2.1-0.7,2.3-2.6,3c-1.3,0.5-2.6,0.4-4,0.7c-2.6,0.6-4.9,2.7-5.7,5.2c-0.4,1.4-0.9,3-0.2,4.4c0.6,1.1,1.7,2.4,2.6,3.3
	c0.9,0.8,2,0.7,3,1.1c0.8,0.3,1.6,0.6,2.4,0.9c2,0.6,3.2,2.2,5.2,2.8c2,0.6,4.2,0.2,6.3,0.5c2.1,0.3,4,1,5.9,1.7
	c1,0.4,1.9,0.9,2.9,1.2c1.4,0.5,2.8,0.5,4.3,1.2c1.2,0.6,2.2,1.2,3.5,1.6c0.9,0.3,2.2,0.8,3.2,0.8c1,0,1.5-0.5,2.3-0.9
	c1.5-0.7,2.9-1.2,4.5-1.1c2.9,0.1,5.8,0.8,8.7,0.8c1.7,0.1,3.5-0.3,4.6-1.7c2.3-3.1,1.7-8,0.8-11.4c-0.6-2.4-2-4.8-3.7-6.5
	C128.5,132.5,92.7,119.8,90.8,119.8z"/>
<path id="path466" class="st0" d="M130,81.6c-0.4-0.2-0.7-0.3-1.1-0.4c-1.6-0.3-3.4,0.4-5,0.6c-1.7,0.2-3.4,0.5-4.8,1.7
	c-2.3,2.1-2.1,5.8-4.5,7.9c-1.3,1.1-2.8,1.9-4.1,2.9c-1.4,1.1-2.7,2.5-4.2,3.4c-2.2,1.3-3.2,3.7-5.6,4.9c-1.2,0.6-2.8,0.7-3.8,1.7
	c-1.5,1.5-1.4,4.4-1.8,6.4c-0.3,1.4-0.4,3.3-1.3,4.6c-0.8,1.1-4.9,3.9-2.5,5.3c2.1,1.3,4.8,0.8,7.1,1.5c1.1,0.4,2.3,1,3.3,1.4
	c2.1,0.8,2.4,3.5,4.8,4.2c1.8,0.5,1.8,1.2,2.8,2.6c2,2.6,5.6,4.8,8.9,5c1.7,0.1,2.6-0.9,4.1-1.4c1.1-0.3,2.5-0.1,3.6-0.1
	c2.2,0,4.5,0.9,6.2,2.4c0.8,0.7,0.9,1.8,1,2.8c0.1,1.1,0.1,2.1,0.2,3.2c0.1,0.9,0.3,1.8,0.5,2.7c0.2,0.8,0.3,1.5,0.7,2.2
	c0.3,0.5,0.8,0.7,1.4,0.9c0.4,0.1,0.7,0.1,1.1,0.2c0.3,0.1,0.7,0.5,1,0.5c0.3,0,0.6-0.1,0.9-0.2c1-0.2,2.2-0.7,3.2-0.3
	c0.4,0.2,0.8,0.5,1.1,0.9c0.3,0.3,0.6,0.7,0.6,1.1c0.1,0.5,0.1,0.9,0.4,1.2c0.4,0.4,0.8,0.7,0.9,1.3c0.1,0.3,0.1,0.7,0.1,1.1
	c0,1.1-0.2,2.2-0.4,3.2c-0.7,5.3,12.1,3.1,15.3,3.1c7.4-0.1,14.9-3.4,22.3-2.7l64.5-44.6c1-2.5,3-5.5,3.1-8.2
	c0.1-3.1-2.4-5.6-4.8-7.1c-1.8-1.1-3.1-2.8-4.9-3.9c-1.9-1.2-4.1-1.7-6-3c-2-1.4-4.1-2.7-6.4-3.4c-1.9-0.6-4.5-0.3-6-1.7
	c-1.7-1.6-2.4-3.5-4.9-4.3c-2-0.6-4-1.3-6.2-1.4c-2.5-0.2-3.6,0.8-5.7,2.1c-1.3,0.9-2.8,1.5-4.4,1.6c-2.6,0.1-5.6-1.3-7.8-2.7
	c-2.9-1.8-7-3.1-10.4-3c-1.9,0-5.6,0.3-7,1.9c-2.1,2.4-5.6,2.5-8.6,2.6c-4.2,0.1-8.3,0.7-12.5,0.9c-4.3,0.2-8.6-0.7-13-0.4
	c-2.9,0.2-5.9,2.2-8.8,0.9C131.7,82.9,130.9,82.1,130,81.6z"/>
<path id="path468" class="st0" d="M188.5,211.6c-0.5-0.3-0.9-1.1-1.3-1.6c-0.9-1.1-1.9-1.9-2.9-2.8c-0.9-0.9-1.7-1.8-2.5-2.8
	c-0.7-0.8-1.5-1.5-2.1-2.3c-1.4-1.7-2.8-3.4-4.1-5.1c-0.7-1-1.5-1.8-2.4-2.6c-0.5-0.4-0.9-0.9-1.4-1.4c-0.5-0.4-1-0.7-1.5-1
	c-0.5-0.3-0.9-0.7-1.4-1.1c-0.6-0.4-1.1-0.9-1.7-1.4c-1.2-0.9-2.5-1.8-3.6-2.9c-0.8-0.9-1.6-1.6-2.1-2.7c-0.5-1-1.6-1.6-2.2-2.5
	c-1-1.2-2.1-2.4-3-3.6c-0.4-0.6-1-0.9-1.5-1.5c-0.4-0.5-0.7-1-1.2-1.4c-0.9-0.8-1.9-0.9-3-1.4c-1-0.5-2.1-1.4-2.9-2.2
	c-1.6-1.6-3.2-3.3-4.3-5.2c-0.5-0.8-1-1.4-1.6-2.1c-0.4-0.4-0.7-0.9-1.1-1.4c-0.3-0.4-0.8-0.7-1.1-1.1c-0.5-0.6-0.8-1.4-1.1-2.1
	c-0.3-0.5-0.6-1.7-0.2-2.3c0.3-0.4,0.8-0.3,1.3-0.3c1,0.2,2.3,0.7,3,1.6c0.4,0.6,0.3,0.9,1.1,0.9c0.8,0,1.6-0.2,2.3-0.4
	c0.9-0.2,1.8-0.5,2.7-0.7c1.7-0.5,3.4-0.4,5.1-0.9c1.6-0.5,3-1.2,4.3-2.3c0.8-0.7,1.4-1.5,2.2-2.1c0.6-0.4,1-0.7,1.5-1.2
	c0.8-0.9,1.4-2.4,1.8-3.6c0.2-0.6,0.3-1.3,0.5-1.9c0.3-1,0.6-1.7,0.6-2.8c0-1.1,0.1-2.3,0.1-3.4c0-1-0.3-2.4,0.3-3.3
	c2.6,0.2,5.1,0.2,7.7,0.2c2.6,0,5.5-0.4,7.9-1.6c1.7-0.8,2.5-2.1,3.2-3.9c0.4-1,1.7-2.4,2.9-1.6c1.3,0.8,1.8,2.6,3.5,3
	c1,0.2,2.5-0.1,2.7-1.1c0.2-0.7,0.3-1.4,0.7-2c0.4-0.6,1.3-0.8,1.8-1.3c1.1-1,2.2-2,3.4-2.9c1.4-1.1,3-1.7,4.6-2.5
	c0.8-0.4,1.5-1,2-1.8c0.3-0.5,0.4-0.7,0.8-1.1c0.4-0.4,0.7-0.7,0.9-1.2c0.5-0.9,1-1.9,1.4-2.8c0.5-1.2,1-2.4,1.7-3.6
	c0.5-0.8,1.5-1.8,2.4-2c0.9-0.2,2.2,0.1,2.9,0.6c1.2,0.8,1.9,1.8,3.3,2.2c1.4,0.4,2.7,1.3,4.2,1.3c1.1,0,2.3,0.1,3.4-0.1
	c0.5-0.1,1.1-0.3,1.5-0.7c0.2-0.2,0.3-0.4,0.5-0.6c0.2-0.2,0.7-0.3,0.9-0.4c0.9-0.5,1.9-1.2,2.8-1.8c0.6-0.4,1.3-0.7,1.9-1.2
	c0.6-0.4,1-1.1,1.7-1.3c0.5-0.2,0.9-0.1,1.4-0.2c0.7-0.1,1.4-0.5,1.9-0.9c0.2-0.1,0.4-0.3,0.5-0.4c0.3-0.3,0.5-0.5,0.9-0.8
	c0.9-0.7,1.7-1.5,2.9-2c0.4-0.2,0.8-0.5,1.2-0.6c0.8-0.2,1.9-0.4,2.8-0.4c1,0,2,0.1,2.9,0.4c1,0.4,1.6,1.1,2,2.1
	c0.2,0.4,0.4,1,0.4,1.5c0,0.5-0.2,1.1-0.3,1.6c-0.2,1-1.2,1.4-1.9,2c-0.4,0.3-0.8,0.7-1,1.2c-0.1,0.3-0.1,0.6-0.1,0.9
	c0,0.5,0,0.9,0,1.4c0,0.5,0,1,0.1,1.4c0.1,0.7,0.1,1.4,0.1,2.1c0,0.7,0,1.5,0,2.2c0.1,1.3,0.6,2.5,1.4,3.6c1.1,1.6,1.2,3.4,1.2,5.2
	c0,1.4-0.2,2.9-0.2,4.3c0,1.6-0.7,3.2-1.9,4.2c-0.4,0.4-1,0.7-1.4,1.1c-0.4,0.4-0.6,1-1,1.5c-0.8,1.1-0.8,2.4-1.2,3.6
	c-0.2,0.7-0.4,1.3-0.7,2c-0.4,0.7-0.8,1.3-1.2,1.9c-0.3,0.6-0.8,1.1-1,1.8c-0.1,0.3,0,0.5-0.1,0.8c0,0.4-0.1,0.7-0.1,1.1
	c0,0.9,0,1.8,0.1,2.7c0.1,1.1,0,2.2,0,3.2c0,0.8,0.1,1.6,0.1,2.5c-0.1,1.1,0.2,2.2,0.5,3.3c0.1,0.4,0.3,0.9,0.4,1.3
	c0.1,0.5,0.1,0.8,0.1,1.3c0,0.9,0.2,1.9,0.4,2.8c0.1,0.8,0.4,1.8,0.8,2.5c0.2,0.4,0.6,0.9,0.9,1.1c0.3,0.3,0.9,0.3,1.3,0.4
	c0.7,0.3,0.6,1.1,0.6,1.7c0,1.4-0.3,2.5-1,3.7c-0.6,0.9-1.3,1.5-2.1,2.2c-0.7,0.6-1.4,1.3-2,2c-0.7,0.8-1.3,1.5-1.6,2.5
	c-0.2,0.6-0.5,1.1-0.8,1.7c-0.3,0.6,0.1,0.9,0.3,1.5c0.3,0.6,0.4,1.3,0.5,2c0.6,3.4,0.6,6.8,0.1,10.2c-0.1,0.6-0.1,1.1-0.1,1.7
	c-0.1,0.8-0.2,1.5-0.1,2.3c0,0.4-0.1,0.7-0.2,1c-0.1,0.5-0.2,1-0.3,1.4c-0.1,0.9-0.2,1.8-0.2,2.8c0,1-0.3,2.3,0.5,3.1
	c0.8,0.7,1.6,1.8,1.7,2.8c0,0.3,0,0.6,0,0.9c0,0.5-0.2,0.9-0.2,1.3c0,0.2-0.1,0.6,0,0.8c0.1,0.3,0.6,0.5,0.8,0.7
	c0.5,0.4,0.8,1.1,0.7,1.8c-0.1,0.5-0.7,1-1.1,1.4c-1.2,1.3-2.7,2.3-4,3.4l-43.2-4l-7.1-6.5L188.5,211.6z"/>
<path id="path470" class="st0" d="M352.8,258.1c1.4-1.5,3.6-2.4,5.5-2.3c1.4,0.1,2.9,0.2,4.3,0.1c1.9-0.1,3.3-0.6,5-1.4
	c1.7-0.8,2.3,0.7,3.7,1.2c2.6,1,5.5,0.5,8.2,1.1c1,0.2,2.4,0.5,3.3,0.8c0.9,0.3,1.7,1.2,2.6,1.5c1.7,0.6,3.5,0.7,5.2,1
	c1.2,0.2,2.8,0.1,3.9,0.7c1,0.6,0.3,2.1,0.4,3.3c0.1,1.6,1.1,2.4,2.6,2.8c1.5,0.3,2.5,0.4,3.9,1.2c0.9,0.6,1.8,1.1,2.5,2
	c0.6,0.7,1.1,1.6,1.7,2.4c1.2,1.7,3.2,3.7,4.8,4.9c0.5,0.3,1.3,0.5,1.6,1c0.7,1.3-0.3,4.2-0.1,5.6c0.1,1.3,0.4,2,1.4,2.9
	c1.2,1,1.1,2.3,1.9,3.6c1,1.6,2.7,0.7,2.8,2.9c0.1,1.3,0,2.5-0.6,3.7c-0.5,1.2-1.4,2.1-2.2,3.1c-0.5,0.7-1,1.2-1.5,1.9
	c-1.2,1.4-3.1,3.6-5,3.4c-2.1-0.3-2.5-2.2-4.4-2.9c-1.5-0.5-3-0.1-3.1,1.6c-0.1,1.8,2.2,6,0.2,7.4c-1.6,1.1-4.2-0.8-5.5-1.6
	c-3.8-2.4-4.6-8.4-6.1-12.3c-1.2-3.1-1.7-6.4,1.4-8.6c1.8-1.2,3.4-0.9,5.4-1.1c0.5,0,2.3,0,2.7-0.2c0.7-0.6-0.6-2.3-1.3-2.7
	c-0.6-0.4-1.3-0.6-2-1c-0.6-0.4-1-0.9-1.7-1c-1-0.2-2.3,0.1-3.3,0.1c-1.2,0-2.4,0.1-3.5,0c-1.2-0.2-1.3-1-1.7-2.1
	c-0.6-1.5-2.1-1.3-3.4-1.7c-1.5-0.5-2.7-2-3.9-2.9c-1.2-1-2.6-1.9-4-2.6c-1-0.4-2.2-0.7-3-1.4c-0.8-0.7-1.1-1.8-1.8-2.6
	c-1.4-1.9-3.8-2.2-5.9-1.5c-2.3,0.7-4.6,0.9-6.6-0.7c-1.3-1-3.1-2.5-3.3-4.2c-0.1-0.8,0.2-1.4-0.6-2c-0.8-0.6-2-0.3-2.9-0.2
	c-0.6,0-2.8,0.3-2.1-1.1c0.3-0.7,1.9-0.9,2.6-1C352,259,352.2,258.9,352.8,258.1z"/>
<path id="path472" class="st0" d="M306.5,332.3c-0.1-0.2-0.7-0.4-0.9-0.5c-0.4-0.2-1-0.2-1.4-0.3c-1-0.1-1.9,0-2.7,0.6
	c-1,0.7-1.1,1.6-1.4,2.7c-0.1,0.7-0.3,1.3-0.3,1.9c0,0.7,0.1,1.1,0.9,1.4c0.6,0.2,1.2,0.1,1.8,0.1c0.6-0.1,1.4-0.3,1.9-0.6
	c0.8-0.5,1-1.3,1.4-2.1c0.3-0.5,0.5-1.1,0.7-1.7C306.6,333.4,306.8,332.6,306.5,332.3z"/>
<path id="path474" class="st0" d="M267.4,281.3c0.5-0.5,0.8-1.1,0.8-1.9c0-1.8,0.1-3.6,0.2-5.4c0.1-1.8,0.1-3.6,0.2-5.4
	c0.1-1.9,0.2-3.8,0.3-5.7c0.2-1.8,0.3-3.5,0.7-5.2c0.2-1.2,0-2.4-0.3-3.6c-0.3-1.1-1.4-1.3-2.2-2c-0.5-0.5-1.3-0.9-1.6-1.6
	c-0.3-0.7-0.1-1.6-0.5-2.3c-0.7-1.1-1.3-2.4-2.3-3.2c-0.5-0.4-1-0.7-1.5-1c-0.5-0.3-0.9-0.8-1.4-1.2c-0.6-0.5-1.2-1-1.9-1.5
	c-1-0.8-2-1.9-2.8-2.9c-0.7-0.9-1.3-1.8-1.8-2.8c-0.2-0.3-0.4-0.5-0.7-0.7c-0.4-0.4-0.8-0.8-1.2-1.2c-0.5-0.6-0.9-1.3-1.4-1.9
	c-0.5-0.6-0.8-1.1-1-1.9c-0.2-0.7-0.1-1.3-0.5-1.9c-0.6-0.8-1.1-1.7-1.7-2.5c-0.3-0.5-0.7-0.9-0.8-1.5c0-0.3,0-0.6,0-0.8
	c-0.1-0.2-0.2-0.5-0.3-0.7c-0.2-0.5-0.3-1.1-0.6-1.6c-0.3-0.8-0.9-1.7-1.7-2.1c-0.5-0.3-0.9-0.2-1.4,0.1c-0.5,0.3-1,0.7-1.5,1
	c-0.4,0.3-0.9,0.6-1.3,0.8c-0.6,0.4-1.1,0.6-1.7,0.8c-1,0.4-2.1,0.4-3.2,0.3c-1-0.1-1.9-0.3-2.9-0.5c-0.9-0.3-1.7-1.2-2.5-1.6
	c-0.6-0.3-1.2-0.7-1.8-0.9c-0.3-0.1-0.6-0.1-0.9-0.2c-0.5-0.2-0.9-0.5-1.4-0.7c-0.7-0.2-1.3-0.5-2-0.8c-0.5-0.3-1-0.6-1.5-0.9
	c-0.6-0.3-1-0.8-1.6-1c-0.4-0.1-0.7-0.3-1-0.4c-0.3-0.1-0.7-0.4-1-0.3c-0.2,0-0.4,0.2-0.6,0.2c-1.2,0.4-2.3,0.9-3.3,1.5
	c-0.5,0.3-0.9,0.7-1.4,1.1c-0.1,0.1-0.3,0.4-0.5,0.4c-0.2,0.1-0.5,0-0.8,0c-0.4,0-0.9,0-1.3-0.1c-1.5-0.2-2.9-0.8-4.4-0.9
	c-0.6-0.1-1.2-0.2-1.8-0.3c-0.4-0.1-1-0.1-1.4-0.3c-0.4-0.3-0.8-0.6-1.1-0.9c-0.8-0.5-1.5-1-2.4-1.1c-1-0.1-2-0.1-3-0.1
	c-0.5,0-1.1,0.1-1.6-0.1c-0.4-0.1-0.9-0.6-1.2-0.8c-0.6-0.5-1-1.1-1.6-1.6c-0.5-0.4-0.9-0.7-1.6-0.6c-0.4,0-0.8,0.2-1.2,0.3
	c-0.3,0.1-0.5,0.1-0.7,0.2c-0.7,0.4-1,1.3-1.5,1.9c-0.4,0.6-0.9,1.2-1.3,1.9c-0.3,0.6-0.2,0.9-0.2,1.5c0.1,0.8,0,1.6-0.1,2.4
	c0,0.9-0.1,1.7-0.1,2.6c0,1,0,1.9-0.3,2.8c-0.1,0.4-0.2,0.8-0.5,1.3c-0.3,0.7-1,1-1.3,1.7c-0.4,0.6-0.7,1.4-0.9,2.1
	c-0.1,0.6-0.2,1.4,0.1,2c0.2,0.4,0.6,0.8,1.1,1c0.5,0.2,0.8,0.7,1.1,1.1c0.3,0.4,0.6,0.8,0.7,1.3c0.1,0.5,0.2,1.1,0.5,1.6
	c0.4,0.5,0.9,0.6,1.5,0.8c0.5,0.2,1,0.5,1.4,0.9c0.4,0.3,0.9,0.5,1.2,0.9c0.8,0.8,1.4,1.8,2,2.7c0.5,0.8,1.4,1.5,2.2,2.1
	c1,0.7,2,1.1,3.1,1.6c0.5,0.2,1.1,0.7,1.7,0.8c0.7,0,1.3-0.1,2,0.2c0.4,0.2,0.7,0.4,1.1,0.7c0.3,0.2,0.6,0.6,0.9,0.8
	c0.4,0.3,0.9,0.6,1.4,0.7c0.6,0.2,1,0.3,1.6,0.3c0.7,0,1.1-0.3,1.6-0.9c0.5-0.5,0.6-0.8,0.6-1.5c0-0.6,0-1-0.3-1.6
	c-0.4-0.9-1.4-1.2-2.2-1.7c-0.7-0.3-1.6-0.9-1.9-1.7c-0.1-0.4-0.1-0.9,0-1.3c0.1-0.4,0.2-1.1,0.6-1.4c0.5-0.4,1.4-0.4,2-0.4
	c1.1-0.1,1.8,0.7,2.5,1.4c0.5,0.5,0.9,1,1.3,1.4c0.5,0.5,1,1.1,1.6,1.5c0.3,0.2,0.5,0.5,0.9,0.6c0.3,0.1,0.6,0.2,0.9,0.3
	c1.1,0.5,2.3,0.9,3.2,1.6c0.4,0.3,0.9,0.6,1.3,0.9c0.4,0.3,0.7,0.7,1.1,1c0.5,0.4,1.1,1,1.4,1.5c0.4,0.8,0.5,1.7,0.7,2.6
	c0.1,0.5,0.1,1.1,0.2,1.6c0.1,0.6,0.2,1.1,0.4,1.7c0.2,0.8,0.5,1.6,1,2.2c0.2,0.2,0.5,0.6,0.7,0.8c0.3,0.1,0.7,0.1,1,0.1
	c0.4,0,0.9,0,1.3,0c1.1,0,2.1,0.1,3.1,0.3c0.8,0.1,1.5,0.3,2.1,0.8c0.5,0.4,0.8,0.9,1.1,1.5c0.4,0.6,1,0.9,1.5,1.4
	c0.9,0.7,1.8,1.3,2.8,1.8c0.3,0.2,0.7,0.3,1,0.5c0.7,0.4,1.4,0.6,2,1.2c0.4,0.4,0.8,0.9,1.2,1.3c0.4,0.3,0.8,0.6,1.2,1
	c0.8,0.7,1.3,1.6,2.3,2.2c0.8,0.5,1.9,1.3,1.9,2.3c0.1,1.2-0.7,2.5-1.4,3.4c-0.6,0.8-1.4,1.6-1.7,2.7c-0.1,0.5-0.2,1.2-0.1,1.7
	c0.2,0.9,1,1.1,1.6,1.5c0.9,0.6,1.9,0.9,2.8,1.6c0.4,0.3,0.5,0.6,0.8,1c0.6,0.8,1.2,1.6,2.1,2.1c0.5,0.3,1.2,0.8,1.8,0.4
	c0.7-0.5,0.6-1.2,0.8-2c0.2-0.9-0.4-1.5-1.1-2.1c-0.6-0.5-1.1-1.1-1.7-1.6c-0.3-0.3-0.5-1.2-0.4-1.6c0.1-0.6,1.1-1.1,1.7-1.2
	c0.9-0.2,1.9,0.4,2.7,0.8c0.7,0.3,1.4,0.7,1.9,1.3c0.5,0.5,1.1,0.8,1.7,1.3c0.6,0.5,0.8,1,1.1,1.7c0.5,1.1,0.7,2.3,1,3.5
	c0.1,0.5,0.1,1.5,1,1.2c0.7-0.3,1-1.5,1.4-2.2c0.5-0.8,1.1-1.5,1.9-2c1.1-0.7,2.2-1.2,3.3-1.7C267.1,281.5,267.2,281.4,267.4,281.3z
	"/>
<path id="path476" class="st0" d="M352.5,268.7c-0.1-0.2-0.2-0.4-0.3-0.5c-0.5-0.7-1.1-0.6-1.8-0.3c-0.5,0.2-0.6,0-1-0.3
	c-1.6-1.3-3.8,0.2-4.8,1.5c-0.3,0.4-0.7,1.1-1.1,1.3c-0.6,0.2-1-0.4-1.2-0.8c-0.2-0.5-0.6-1-0.6-1.5c-0.1-0.9,0.4-1.7,0.3-2.6
	c-0.1-1-1.2-1.2-2-1.3c-1.3-0.2-2.6-0.2-3.9-0.2c-0.5,0-1.1,0-1.5,0.3c-0.4,0.4-0.6,1-1,1.4c-1,1.1-2.2,0.5-3.4,0.6
	c-2,0.2-3.8,2.1-5.3,3.3c-1.2,0.9-2.3,2-3.8,2.5c-1.5,0.5-3.1,0.1-4.5,0.5c-1.7,0.4-3,1.6-4.5,2.3c-0.7,0.3-1.6,0.5-2.4,0.1
	c-1.1-0.6-0.8-2.2-1.9-2.9c-1.4-0.9-3.2-0.7-4.8-0.6c-0.5,0-1.1,0.1-1.4-0.4c-0.3-0.4,0-1.1,0-1.5c0.1-0.9-0.8-1.9-1.8-2
	c-1.2-0.1-2.1,1-3.1,1.5c-1.7,0.7-3.3-0.1-4.9-0.6c-1.6-0.5-3.1-1.3-4.8-1.6c-1.6-0.3-3.9-0.5-4.7-2.2c-0.3-0.7-0.4-1.6-0.7-2.3
	c-0.3-0.7-0.7-1.3-1.2-1.8c-0.9-1-2.4-1.7-2.9-3.1c-0.3-1-0.2-2.1-0.6-3c-0.7-1.7-3-1.6-4.5-1.8c-0.9-0.1-1.9-0.1-2.8,0.2
	c-1.7,0.5-2.5,2.3-3.1,3.8c-1,2.5-0.8,5.3-0.3,7.9c0.1,0.8,0.3,1.6,0.6,2.4c0.4,1.2,1.1,2.2,1.5,3.4c0.3,0.7,0.5,1.6-0.2,2.1
	c-0.6,0.4-1.5,0.4-2,1c-1.1,1-0.7,2.8,0,3.9c0.5,0.7,1.3,1.3,1.5,2.2c0.3,1.1-1,1.2-1.8,1.6c-0.5,0.2-1,0.5-1.4,0.7
	c-0.9,0.5-1.8,1.1-2.6,1.8c-1.2,1-3,3.3-0.9,4.5c1.7,0.9,3.6-0.6,5-1.4c1.9-1.1,4.1-1.2,6.3-0.8c2.2,0.4,4.4,0.8,6.5,1.3
	c1.8,0.4,3.3,1.1,4.9,1.9c0.7,0.3,1.3,0.3,2,0.1c0.7-0.2,1.5-0.4,2.2-0.2c1.4,0.5,2,2.4,3.5,2.6c1.8,0.3,3.8,0.8,5.3,2
	c1,0.8,2.2,1.6,3,2.6c0.5,0.7,0.9,1.5,1.5,2c1.4,1.2,2.6,2.4,3.6,3.9c0.6,0.9,1.4,2.5,2.6,2.8c0.7,0.2,1.4-0.4,1.8-0.9
	c0.4-0.6,0.4-1.6,1-2.1c0.7-0.6,1.8-0.5,2.7-0.6c0.5,0,1.2-0.1,1.7,0.1c1,0.4,0.9,2,1,2.9c0.2,1.8,1,3.6,1.2,5.4
	c0.1,1,0.3,2.1,0.4,3.1c0.1,1.3-0.2,2.5,1.2,3.2c0.4,0.2,0.9,0.1,1.3,0.1c1.2-0.2,2.2-0.2,3.4-0.1c2.4,0.3,4.5-0.6,5.6-2.9
	c0.2-0.5,0.4-1.2,0.7-1.6c0.8-0.9,2.6-0.3,3.7-0.6c1.1-0.3,2.2-0.3,3.4-0.4c0.6,0,1.2-0.1,1.8-0.2c0.3,0,0.4,0,0.6-0.2
	c0.1-0.2,0.1-0.6,0.1-0.8c-0.1-0.9-1-1.3-1.7-1.6c-1-0.4-1.9-0.9-2.6-1.7c-0.6-0.8-1.2-1.8-1.8-2.7c-1.2-1.8-1.8-4-3.1-5.7
	c-1.1-1.4-2.7-2.4-3.2-4.1c-0.4-1.4,0.7-2.1,1.9-2.6c2.5-1.2,4.6-2.9,7-4.3c0.7-0.4,1.4-0.8,2.1-1.3c2-1.3,5.1-2.1,6-4.6
	c0.6-1.4,0.5-2.8,0.6-4.3c0.1-1.3,0.6-2.2,1.8-2.6c1.8-0.5,3.6-0.1,5.3-0.5c1.3-0.2,1.6-2.3,1.7-3.3
	C352.8,269.9,352.7,269.2,352.5,268.7z"/>
</svg>
