<?xml version="1.0" encoding="utf-8"?>
<!-- Generator: Adobe Illustrator 21.1.0, SVG Export Plug-In . SVG Version: 6.00 Build 0)  -->
<svg version="1.1" id="Layer_1" xmlns="http://www.w3.org/2000/svg" xmlns:xlink="http://www.w3.org/1999/xlink" x="0px" y="0px"
	 viewBox="0 0 358 258" style="enable-background:new 0 0 358 258;" xml:space="preserve">
<style type="text/css">
	.st0{fill:#6DBE45;}
	.st1{fill:none;}
	.st2{font-family:'MyriadPro-Regular';}
	.st3{font-size:25px;}
</style>
<g>
	
		<g id="shape-3" transform="translate(96.128173828125 0) scale(1.60823467090924 1.6082365427128025) rotate(0 51.33050537109375 51.2984619140625)">
		<g>
			<path id="PATH_3_0" class="st0" d="M51.3,26.9L4.9,73.3c2.5,5.3,6,10.2,10.1,14.3l36.3-36.3l12.2,12.2L29.3,97.7
				c6,2.8,12.5,4.6,19.5,4.9l26.9-26.9l11.9,11.9c4.1-4.1,7.6-9,10.1-14.3L51.3,26.9z"/>
			<path id="PATH_3_1" class="st0" d="M102.6,53.8c0-0.8,0.1-1.7,0.1-2.5C102.7,23,79.7,0,51.3,0C23,0,0,23,0,51.3
				c0,0.8,0,1.7,0.1,2.5L51.3,2.6L102.6,53.8z"/>
		</g>
	</g>
</g>
<rect x="4" y="180" class="st1" width="354" height="78"/>
<text transform="matrix(1 0 0 1 140.6006 197.75)"><tspan x="0" y="0" class="st2 st3">Flowers</tspan><tspan x="-91.9" y="30" class="st2 st3">Making The Future Bright</tspan></text>
</svg>
