<?xml version="1.0" encoding="iso-8859-1"?>
<!-- Generator: Adobe Illustrator 18.0.0, SVG Export Plug-In . SVG Version: 6.00 Build 0)  -->
<!DOCTYPE svg PUBLIC "-//W3C//DTD SVG 1.1//EN" "http://www.w3.org/Graphics/SVG/1.1/DTD/svg11.dtd">
<svg version="1.1" id="Capa_1" xmlns="http://www.w3.org/2000/svg" xmlns:xlink="http://www.w3.org/1999/xlink" x="0px" y="0px"
	 viewBox="0 0 434.266 434.266" style="enable-background:new 0 0 434.266 434.266;" xml:space="preserve">
<path d="M432.748,135.864l-14.629-34.676c-2.265-5.368-7.496-8.837-13.327-8.837c-2.605,0-5.171,0.714-7.42,2.063
	c-1.004,0.603-2.148,0.921-3.307,0.921c-2.465,0.001-4.68-1.366-5.78-3.567l-2.065-4.131c-2.463-4.927-7.416-7.987-12.924-7.987
	h-8.918c-4.869,0-9.377,2.426-12.06,6.49l-27.807,42.132c-0.491,0.743-1.315,1.186-2.205,1.186l-4.656-0.24
	c-1.325-0.07-1.963-0.979-2.176-1.365c-0.213-0.388-0.639-1.413,0.012-2.569c1.513-2.69,1.785-5.899,0.744-8.806
	c-1.04-2.905-3.287-5.213-6.162-6.33l-12.222-4.753c-3.044-1.185-5.397-3.637-6.455-6.728c-1.058-3.091-0.701-6.471,0.98-9.272
	c1.332-2.219,3.412-3.909,5.858-4.758l34.127-11.84c6.919-2.401,13.313-6.407,18.491-11.585c3.277-3.277,4.212-7.97,2.441-12.246
	c-1.75-4.224-5.811-6.953-10.346-6.953c-0.279,0-5.706,0.377-5.706,0.377c-2.832,0.202-5.635,0.761-8.332,1.659l-19.717,6.572
	l-60.152-2.577c-5.654-0.242-11.228-1.313-16.569-3.183l-11.521-4.032c-6.985-2.444-14.279-3.685-21.679-3.685
	c-7.066,0-14.048,1.133-20.763,3.371l-0.09,0.03c-5.886,1.962-12.017,2.957-18.222,2.957c-4.033,0-8.078-0.427-12.023-1.269
	l-39.242-8.371c-4.882-1.041-9.889-1.569-14.881-1.569c-8.642,0-17.122,1.548-25.206,4.602l-17.127,6.471
	c-6.588,2.489-12.758,5.932-18.338,10.232L7.836,73.286c-4.581,3.531-7.422,8.866-7.794,14.639
	c-0.372,5.772,1.76,11.43,5.852,15.521c1.684,1.684,3.634,3.043,5.794,4.04l4.391,2.026c4.74,2.188,10.333,2.432,15.246,0.663
	l31.114-11.202c6.893-2.482,14.76-1.854,21.173,1.683c9.34,5.153,15.142,14.981,15.142,25.648c0,20.444-5.497,40.555-15.898,58.156
	c-6.627,11.216-9.158,24.479-7.127,37.347c4.073,25.793,10.817,51.257,20.045,75.685c1.04,2.753,3.61,4.531,6.548,4.531
	c3.182,0,5.896-2.057,6.753-5.117l1.831-6.537c0.022-0.08,0.064-0.23,0.318-0.23c0.136,0,0.187,0.047,0.25,0.152l10.205,17.01
	c1.357,2.26,2.074,4.849,2.074,7.486c0,7.506,3.714,14.494,9.936,18.693l25.642,17.309c3.962,2.674,8.582,4.087,13.361,4.087
	c0.986,0,1.983-0.061,2.962-0.185c4.35-0.547,8.814,0.773,12.17,3.587l30.305,25.389l17.507,15.224
	c2.284,1.986,5.209,3.08,8.236,3.08c2.93,0,5.784-1.033,8.034-2.909l12.408-10.34c1.214-1.012,1.719-2.645,1.288-4.165
	c-0.431-1.52-1.718-2.645-3.282-2.868l-13.055-1.865l-13.079-9.154c-2.11-1.478-2.943-4.19-2.026-6.599l0.551-1.448
	c1.583-4.155,1.082-8.663-1.376-12.369c-2.457-3.706-6.416-5.923-10.859-6.081c-1.92-0.069-3.595-1.049-4.594-2.69
	c-0.999-1.641-1.102-3.579-0.281-5.316l5.593-11.844c1.145-2.426,0.981-5.212-0.439-7.452c-1.431-2.258-3.954-3.661-6.584-3.661
	c-1.354,0-2.707,0.37-3.912,1.07l-12.275,7.127c-4.05,2.352-9.128,2.672-13.445,0.848c-7.507-3.176-11.151-11.917-8.124-19.485
	l5.506-13.766c4.089-10.223,13.444-17.141,24.416-18.055l25.927-2.16c6.296-0.528,12.018,3.35,13.927,9.292
	c1.185,3.685,4.45,6.066,8.318,6.066c3.934,0,7.31-2.538,8.401-6.316l3.228-11.174c3.167-10.959,10.793-20.25,20.924-25.49
	c8.28-4.283,14.929-10.918,19.229-19.188l0.924-1.776c3.645-7.011,9.14-12.889,15.89-16.997l13.927-8.477
	c13.559-8.254,28.044-15.054,43.053-20.213c3.272-1.125,5.749-3.794,6.626-7.141c0.878-3.346,0.03-6.887-2.269-9.473l-3.708-4.172
	c-0.435-0.489-0.355-1.01-0.269-1.277c0.086-0.267,0.326-0.736,0.963-0.88l21.673-4.877c0.759-0.167,1.264,0.382,1.375,0.541
	c0.176,0.252,0.344,0.664,0.147,1.197c-1.166,3.163-0.712,6.7,1.213,9.462c2.198,3.152,6.012,4.84,9.833,4.333
	c5.954-0.794,11.079-4.24,14.061-9.454C434.711,147.562,435.082,141.398,432.748,135.864z M59.729,91.447l-31.114,11.202
	c-2.983,1.073-6.306,0.928-9.184-0.399l-4.391-2.026c-1.301-0.601-2.476-1.42-3.491-2.434c-2.464-2.464-3.748-5.872-3.524-9.35
	c0.225-3.476,1.936-6.69,4.695-8.817l25.54-19.688c4.954-3.818,10.432-6.875,16.281-9.084l17.128-6.471
	c7.177-2.711,14.706-4.086,22.378-4.086c4.432,0,8.877,0.469,13.212,1.394l30.535,6.514L89.841,95.082
	c-0.768-0.501-1.554-0.982-2.365-1.43C79.073,89.015,68.762,88.196,59.729,91.447z M176.493,286.033l-5.506,13.766
	c-4.634,11.583,0.944,24.963,12.435,29.823c2.861,1.211,5.886,1.824,8.991,1.824c4.066,0,8.074-1.079,11.588-3.121l11.649-6.763
	l-5.284,11.189c-1.96,4.152-1.705,8.972,0.683,12.893c2.388,3.921,6.553,6.36,11.141,6.523c1.833,0.065,3.464,0.979,4.478,2.508
	c1.013,1.528,1.22,3.387,0.567,5.102l-0.551,1.448c-2.224,5.837-0.204,12.416,4.914,15.999l13.862,9.703
	c0.515,0.359,1.106,0.594,1.729,0.683l5.092,0.728l-5.497,4.58c-1.658,1.382-4.268,1.355-5.898-0.063l-17.563-15.271l-30.36-25.436
	c-4.292-3.597-9.739-5.577-15.339-5.577c-0.986,0-1.982,0.062-2.961,0.185c-3.81,0.47-7.678-0.45-10.856-2.596l-25.642-17.309
	c-4.015-2.71-6.411-7.219-6.411-12.063c0-4.088-1.111-8.101-3.214-11.603l-10.205-17.01c-1.517-2.527-4.174-4.036-7.11-4.036
	c-3.782,0-7.006,2.44-8.022,6.072l-1.008,3.602c-3.671-9.962-6.894-20.102-9.711-30.355l15.096-5.489l22.508,10.316
	c0.155,0.07,0.314,0.132,0.477,0.183l48.131,14.989C177.868,282.917,177.129,284.442,176.493,286.033z M320.945,196.371
	c-7.998,4.869-14.509,11.833-18.828,20.14l-0.924,1.776c-3.535,6.799-9.001,12.253-15.808,15.773
	c-12.073,6.244-21.161,17.315-24.934,30.375l-3.228,11.174c-0.046,0.161-0.155,0.536-0.715,0.536c-0.537,0-0.653-0.36-0.702-0.514
	c-2.862-8.907-11.066-14.891-20.416-14.891c-0.595,0-1.198,0.024-1.792,0.074l-25.926,2.16c-9.393,0.783-17.846,5.024-23.98,11.659
	l-50.505-15.729l-23.768-10.893c-0.955-0.437-2.045-0.482-3.034-0.122l-15.952,5.801c-2.757-10.944-5.047-22.004-6.804-33.133
	c-1.649-10.439,0.209-21.179,5.226-30.451h242.379L320.945,196.371z M424.785,148.804c-1.733,3.031-4.712,5.034-8.173,5.496
	c-0.113,0.015-0.225,0.022-0.335,0.022c-1.065,0-1.669-0.7-1.878-1.001c-0.257-0.368-0.633-1.134-0.269-2.121
	c1.068-2.9,0.67-6.012-1.092-8.539c-2.148-3.078-6.013-4.596-9.693-3.77l-21.673,4.877c-3.251,0.732-5.801,3.062-6.822,6.232
	c-1.022,3.172-0.31,6.553,1.905,9.044l3.708,4.172c0.745,0.838,0.605,1.768,0.51,2.129c-0.094,0.361-0.429,1.24-1.489,1.605
	c-11.886,4.085-23.451,9.172-34.516,15.157H93.27c8.834-17.234,13.484-36.375,13.484-55.803c0-9.911-3.947-19.24-10.694-26.114
	l51.145-50.001c4.27,0.862,8.634,1.313,12.989,1.313c7.066,0,14.048-1.133,20.763-3.371l0.09-0.03
	c5.887-1.962,12.017-2.957,18.222-2.957c6.498,0,12.903,1.089,19.037,3.235l11.521,4.032c6.082,2.129,12.431,3.349,18.869,3.624
	l60.889,2.609c0.487,0.024,0.974-0.047,1.437-0.201l20.416-6.806c2.063-0.688,4.206-1.114,6.372-1.269c0,0,5.045-0.357,5.137-0.357
	c1.967,0,2.759,1.542,2.955,2.015c0.249,0.6,0.677,2.144-0.707,3.528c-4.328,4.328-9.672,7.676-15.456,9.683l-34.128,11.84
	c-4.216,1.464-7.801,4.376-10.096,8.201c-2.897,4.827-3.513,10.651-1.69,15.979c1.823,5.326,5.878,9.552,11.125,11.592l12.223,4.754
	c0.977,0.38,1.378,1.147,1.529,1.571c0.151,0.424,0.33,1.271-0.185,2.187c-1.817,3.231-1.836,7.1-0.049,10.348
	c1.787,3.247,5.064,5.303,8.766,5.497l4.515,0.237c3.792,0.192,7.363-1.616,9.442-4.765l27.807-42.132
	c1.197-1.814,3.21-2.897,5.383-2.897h8.918c2.458,0,4.669,1.366,5.769,3.565l2.065,4.131c2.464,4.929,7.421,7.99,12.936,7.989
	c2.608,0,5.174-0.713,7.422-2.062c1.006-0.604,2.148-0.923,3.304-0.923c2.607,0,4.945,1.55,5.956,3.946l14.629,34.676
	C426.734,142.19,426.518,145.774,424.785,148.804z"/>
<g>
</g>
<g>
</g>
<g>
</g>
<g>
</g>
<g>
</g>
<g>
</g>
<g>
</g>
<g>
</g>
<g>
</g>
<g>
</g>
<g>
</g>
<g>
</g>
<g>
</g>
<g>
</g>
<g>
</g>
</svg>
