<?xml version="1.0" encoding="iso-8859-1"?>
<!-- Generator: Adobe Illustrator 18.0.0, SVG Export Plug-In . SVG Version: 6.00 Build 0)  -->
<!DOCTYPE svg PUBLIC "-//W3C//DTD SVG 1.1//EN" "http://www.w3.org/Graphics/SVG/1.1/DTD/svg11.dtd">
<svg version="1.1" id="Capa_1" xmlns="http://www.w3.org/2000/svg" xmlns:xlink="http://www.w3.org/1999/xlink" x="0px" y="0px"
	 viewBox="0 0 416.058 416.058" style="enable-background:new 0 0 416.058 416.058;" xml:space="preserve">
<path d="M334.675,117.601c-2.433-9.59-9.084-17.226-18.25-20.949l-56.296-22.87c-3.007-1.221-5.521-3.46-7.081-6.305l-8.458-15.425
	c-4.051-7.387-11.961-11.858-20.427-11.477c-5.146,0.229-10.04-2.391-12.707-6.74l-5.538-9.036
	c-5.559-9.07-14.702-15.607-25.084-17.935l-26.347-5.905C151.651,0.322,148.74,0,145.835,0c-9.156,0-18.09,3.205-25.158,9.025
	l-11.331,9.332c-6.799,5.599-8.463,15.489-3.87,23.005c2.05,3.355,1.898,7.592-0.387,10.791L89.341,74.2
	c-9.535,13.349-11.566,30.402-5.435,45.617l10.715,26.589c5.043,12.515,14.217,23.186,25.832,30.048
	c16.192,9.568,26.881,25.751,29.327,44.399l19.898,151.725c0.034,0.253,0.091,0.502,0.171,0.744l3.952,11.857
	c5.947,17.84,22.574,30.06,41.374,30.407l25.394,0.47c0.025,0.001,0.05,0.001,0.075,0.001c0.007,0.001,0.014,0.001,0.019,0
	c2.21,0,4-1.791,4-4c0-1.356-0.674-2.555-1.706-3.277l-11.719-9.698c-9.891-8.185-15.442-20.242-15.232-33.08l0.346-21.126
	c0.155-9.453,5.505-17.952,13.963-22.181l0.947-0.474c6.997-3.498,10.408-11.733,7.934-19.156c-0.765-2.292-0.439-4.764,0.89-6.78
	c1.33-2.017,3.475-3.29,5.884-3.49l0.534-0.045c6.781-0.565,12.429-5.385,14.053-11.994l7.293-29.694
	c2.597-10.575,10.33-18.901,20.685-22.272c16.215-5.28,27.109-20.284,27.109-37.337v-22.798c0-5.264,1.841-10.401,5.185-14.469
	l7.786-9.47C334.898,137.074,337.108,127.19,334.675,117.601z M224.527,48.567c5.43-0.248,10.462,2.612,13.05,7.331l1.433,2.613
	l-30.516,6.721l-10.945-20.931l5.157-9.436l1.93,3.149C208.81,44.825,216.498,48.916,224.527,48.567z M152.739,8.765l26.346,5.905
	c7.544,1.691,14.26,6.174,18.751,12.427l-18.804,34.4l-15.705,3.112c0.287-0.681,0.384-1.428,0.271-2.16l-4-26
	c-0.135-0.88-0.561-1.689-1.208-2.3l-24.986-23.587C137.311,8.89,141.541,8,145.835,8C148.152,8,150.475,8.257,152.739,8.765z
	 M111.599,56.804c4.154-5.815,4.431-13.514,0.704-19.613c-2.527-4.135-1.612-9.577,2.129-12.657l11.331-9.332
	c0.161-0.133,0.328-0.258,0.492-0.388l25.645,24.21l3.614,23.488l-12.759,28.92l-40.009-22.234L111.599,56.804z M91.326,116.827
	c-5.104-12.667-3.413-26.864,4.525-37.977l2.216-3.102l41.052,22.814l-17.345,29.486l-21.388,11.26L91.326,116.827z
	 M124.522,169.567c-9.073-5.361-16.425-13.397-21.012-22.863l22.997-12.108c0.659-0.347,1.207-0.87,1.584-1.511l20-34l11.298-25.541
	l23.032-4.563c1.163-0.23,2.164-0.965,2.732-2.005l7.781-14.234l7.463,14.274l-0.614,0.135c-0.897,0.197-1.699,0.698-2.271,1.417
	l-31,39c-0.563,0.708-0.869,1.585-0.869,2.489v38c0,1.245,0.58,2.419,1.568,3.176l42.891,32.853l-28.393,22.148
	c-1.104,0.862-1.678,2.239-1.511,3.63l4.993,41.656l-22.992,2.516l-4.488-34.224C154.944,198.709,142.848,180.395,124.522,169.567z
	 M209.376,378.336l-32.105-9.385l-1.341-10.224l32.116,4.779l-0.039,2.366C207.938,370.126,208.419,374.304,209.376,378.336z
	 M226.139,405.246l3.143,2.601l-13.957-0.258c-15.419-0.286-29.056-10.308-33.933-24.939l-1.537-4.61l32.694,9.557
	C215.641,394.328,220.242,400.365,226.139,405.246z M208.354,344.745l-0.175,10.693l-33.33-4.96l-11.608-88.508l23.98-2.624
	l29.533,63.848C211.552,329.035,208.487,336.616,208.354,344.745z M286.058,221.182c-13.004,4.234-22.716,14.691-25.978,27.972
	l-7.293,29.694c-0.803,3.268-3.595,5.65-6.949,5.93l-0.535,0.045c-4.869,0.406-9.205,2.979-11.896,7.06
	c-2.689,4.079-3.346,9.078-1.801,13.713c1.224,3.67-0.463,7.741-3.924,9.472l-0.947,0.474c-1.294,0.646-2.525,1.376-3.704,2.168
	l-29.491-63.755l-5.13-42.798l29.187-22.767l85.156,19.859C298.953,214.216,293.151,218.872,286.058,221.182z M322.435,139.636
	l-7.786,9.47c-4.518,5.494-7.005,12.437-7.005,19.549v22.798c0,3.251-0.51,6.403-1.443,9.383l-87.809-20.477l-44.748-34.274v-34.629
	l29.248-36.796l40.125-8.838l3.017,5.502c2.442,4.453,6.378,7.959,11.084,9.871l56.296,22.87
	c6.784,2.756,11.707,8.406,13.507,15.504C328.721,126.665,327.085,133.98,322.435,139.636z"/>
<g>
</g>
<g>
</g>
<g>
</g>
<g>
</g>
<g>
</g>
<g>
</g>
<g>
</g>
<g>
</g>
<g>
</g>
<g>
</g>
<g>
</g>
<g>
</g>
<g>
</g>
<g>
</g>
<g>
</g>
</svg>
