<?xml version="1.0" encoding="utf-8"?>
<!-- Generator: Adobe Illustrator 21.1.0, SVG Export Plug-In . SVG Version: 6.00 Build 0)  -->
<svg version="1.1"
	 id="Southamerica_Blank" inkscape:output_extension="org.inkscape.output.svg.inkscape" inkscape:version="0.92.1 r15371" sodipodi:docname="ABC countries.svg" sodipodi:version="0.32" xmlns:cc="http://creativecommons.org/ns#" xmlns:dc="http://purl.org/dc/elements/1.1/" xmlns:inkscape="http://www.inkscape.org/namespaces/inkscape" xmlns:rdf="http://www.w3.org/1999/02/22-rdf-syntax-ns#" xmlns:sodipodi="http://sodipodi.sourceforge.net/DTD/sodipodi-0.dtd" xmlns:svg="http://www.w3.org/2000/svg"
	 xmlns="http://www.w3.org/2000/svg" xmlns:xlink="http://www.w3.org/1999/xlink" x="0px" y="0px" viewBox="0 0 379.5 627.8"
	 style="enable-background:new 0 0 379.5 627.8;" xml:space="preserve">
<style type="text/css">
	.st0{stroke:#FFFFFF;stroke-width:1.0667;}
</style>
<defs>
	
	
		<inkscape:perspective  id="perspective302" inkscape:persp3d-origin="202.66667 : 213.33333 : 1" inkscape:vp_x="0 : 320 : 1" inkscape:vp_y="0 : 1066.6667 : 0" inkscape:vp_z="405.33333 : 320 : 1" sodipodi:type="inkscape:persp3d">
		</inkscape:perspective>
</defs>
<sodipodi:namedview  bordercolor="#666666" borderlayer="true" borderopacity="1.0" gridtolerance="10.0" guidetolerance="10.0" id="base" inkscape:current-layer="Southamerica_Blank" inkscape:cx="189.72908" inkscape:cy="313.91357" inkscape:pagecheckerboard="false" inkscape:pageopacity="0.0" inkscape:pageshadow="2" inkscape:showpageshadow="false" inkscape:window-height="1017" inkscape:window-maximized="1" inkscape:window-width="1920" inkscape:window-x="-8" inkscape:window-y="-8" inkscape:zoom="1.3777678" objecttolerance="10.0" pagecolor="#ffffff" showgrid="false">
	</sodipodi:namedview>
<g id="g2675" transform="translate(-18.322838,-5.7728764)">
	<g id="Peru">
		<path id="path2120" inkscape:connector-curvature="0" class="st0" d="M18.3,163.3c1.1-2.2,1.6-3.7,3.3-5.6
			c0.7-0.8,1.3-1.8,2.2-2.5c0.7-0.5,2.1-1.2,2.1-2.1c1.1,0.3,2.2,4.6,1.3,5.2c-0.7,0.4-1.4,0-1.9,0.7c-0.6,0.8-0.4,1.9,0.7,2
			c-0.9,1.2-0.5,3,0.9,1.5c1.2-1.3,1.7-0.7,2.9,0.3c1,0.9,2.2-0.4,3,0.9c0.8,1.3,0.8,3.5,2.8,3.9c1.6,0.3,1.8,0.5,2.3-1.3
			c0.4-1.4,2-1.8,2-3.2c0.1-1.9,0.4-3.7,1.2-5.5c0.4-0.9,1-1.6,1-2.7c0-0.7,0.8-2.5,1.2-0.7c0.3-0.4,0.3-0.9,0.2-1.3
			c-0.1-0.6,0.8-1.2,1.1-1.6c0.8-1.1,1.8-1.9,3.1-2.5c2.7-1.2,5.8-1.7,8.3-3.4c5.2-3.6,8.7-9,9.9-15.1c0.4,0.4,0.9,0.6,1.5,0.5
			c-0.8-1.8,0-3.3-1-4.8c-0.4-0.6-2.5-2.4-2.4-3.1c0.9,0.1,1.9,0.4,2.7,0c0.8-0.5,0.6-0.6,1.5-0.3c1.6,0.6,2.8,1.2,3.9,2.5
			c1.4,1.7,2.2,2.4,2.9,4.6c0.3,0.9-0.1,1.7,1.2,1.8c1.2,0.1,0.9,0.6,1.8,1.4c1.6,1.5,2.9,0.7,3.4,3.2c0.4,1.9,0.4,2.4,2.4,3
			c2.2,0.7,0.1,3.3,1.3,4.6c0.6,0.7,1.6,0.9,2.5,0.9c0.6-0.1,1.1-0.1,1.7-0.2c0.8,0,1.6,0.4,2.3,0.4c1.5-0.1,3.4-1.2,4-2.5
			c0.7-1.4,2.7,1.3,3.5,1.4c1.3,0.1,3.2-1.7,4.1-1.1c0.7,0.5,1.4,1.3,2.1,1.8c0.7,0.5,2.2,0.3,2.6,0.8c1.7,1.8,1.7,2.4,0.4,4.5
			c-1.1,1.7-3.1,4.5-3.4,6.4c-0.3,2.3,2.3,0.5,3.3,1.4c0.8,0.7,1.4,1.7,2,2.5c0.7,1,0.2,2.7-0.7,1.1c-0.2,0.3-0.4,0.5-0.6,0.8
			c-1.2-1.6-3.8-2.7-5.4-0.8c-1.7,2.2-5.5,1.6-7.9,2.3c-1.3,0.3-1.9,1.8-3.2,2.2c-1.3,0.4-0.9,1-1.8,1.8c-2.2,1.9-3.6,1.4-3.7,4.7
			c0,1.2,0.1,2.1-0.6,3.1c-0.6,1-1.4,1.9-1.2,3.1c0.3,1.3,1.4,3.1-0.1,4.1c-1.2,0.8-2.3,1.2-3.3,2.4c-0.7,0.8-1.1,1.8-0.9,2.9
			c0.1,0.5,0.3,1,0.6,1.5c-0.6,0.3-1.2,0.6-1.7,1.1c-1.7,1.9,3.4,3.5,1.3,4.8c1.1,0.7,1.8,2,2,3.2c0.1,0.7,0.6,1,1.2,1.4
			c0.7,0.5,0.6,1.3,1,2c0.8,1.2,2.2,1.7,2.8,3c0.6,1.6-0.6,2.6-1.5,3.7c1.9,1,4.7,0.1,6.6,1.4c1.2,0.8,2.4,2.9,1.9,4.4
			c2.5,0.3,5.8,0.9,8.1-0.7c1.4-1,3.3-4.5,5.2-4.5c-0.2,0.9-0.9,1-0.4,1.9c0.6,1-0.4,2-0.3,3.2c0.2,3,0.3,6.1,0.6,9.1
			c1-0.9,1.7,0.9,2.7,0.8c1.4-0.1,2.4-1.3,3.9-1.2c1.3,0,2.1,0,2.8,1.2c1,1.9,2.1,3.8,3.2,5.7c1.1,1.9,2.1,3.9,3.2,5.7
			c0.8,1.4,1.5,2.8,0,4.1c-1.3,1.1-1,2.6-0.8,4.2c0.2,1.7-0.4,4.2,0.2,5.8c0.4,0.9,1.2,1.8,1.3,2.9c0,0.1-0.9,2.5-1,2.6
			c-0.9,0.8-1.6,2.2-2.1,3.4c-0.8,2.2,1.5,2.5,1.5,4.2c0,1.2-1.1,2.2-1.3,3.3c-0.2,1,0.5,2.3,0.9,3.2c0.3,0.9,0.9,2.5,2,2.7
			c0.5,0.1,3.2,0.3,1.6,1.4c-1.1,0.7-0.1,2.4-0.8,2.8c-1.3,0.7-1.6,2.7-2.6,3.7c-0.4,0.4-1,0.7-1.4,1.2c-0.7,1,0.4,0.7,0.9,1.3
			c1.3,1.7-1.3,2.1-1.8,3.2c-0.6,1.2,0.7,2.6-0.1,4c-0.7,1.2-2.2,1.6-3.5,1.6c-1.5,0-2.6-1.1-3.6-2c-1.2-1.1-2.4-1.6-3.7-2.5
			c-2.2-1.6-2.1-4.5-4.7-5.6c-3.2-1.3-5.3-4.4-8.7-5.2c-1.6-0.4-3.2-1.5-4.5-2.3c-1.6-1-3.4-1.4-5.1-2.3c-1.6-0.9-3-2.2-4.6-3.2
			c-1.8-1-3.7-2.1-5.5-3.1c-1.6-0.9-2.5-2.8-3.7-4.1c-1.6-1.7-3.9-2.6-5.1-4.7c-0.6-1.2-1.5-2.6-2.6-3.3c-1-0.6,0.3-3-1.4-2.7
			c0-0.3,0.1-0.6,0.2-0.9c0.3,0.2,0.5,0.3,0.8,0.5c0.7-3.4-0.8-5.2-2.5-8c-1.6-2.5-2.6-5.2-4.8-7.3c-0.7-0.6-1.3-0.9-1.1-1.8
			c0.2-1-0.4-2.1-0.8-2.9c-0.5-0.8-1-1.7-1.7-2.3c-0.7-0.6-1.8-0.8-2.2-1.6c-0.1-0.4,0-0.8,0.1-1.3c-0.1-0.9-0.7-2-1.1-2.8
			c-0.8-1.6-1.9-2.9-2.8-4.5c-0.8-1.4-1.3-3.1-1.9-4.7c-1.4-3.6-3.6-6.3-4.6-9.8c-1.4-4.7-5.4-7.6-7.2-12.3
			c-2.1-5.3-6.4-9.1-11.6-11.3c-0.5-0.2-2.2-0.6-2.2-1.2c-0.1-0.9-0.3-2.4,1-2.2c2.3,0.3,1.4-1.9,0.7-3c-1-1.6-2.1-2.2-2.1-4.2
			c0.2-0.3,0.4-0.5,0.6-0.8c0-0.3-0.9-1.1-1.1-1.4C18.1,165.3,18.8,164.6,18.3,163.3"/>
	</g>
	<g id="FrenchGuiana">
		<path id="path2122" inkscape:connector-curvature="0" class="st0" d="M235.5,100.4c1.4-0.1,2.5-2.4,2.9-3.5c0.9-1.9,0-4.1,1.3-5.8
			c1.6-2.1,0.1-3.6-1.2-5.3c-1.4-1.7-1.3-4.8-1.5-6.9c-0.2-2.4,0.2-3.8,2-5.5c0.7-0.6,1.5-1.3,1.7-2.3c0.3-1.2,0.6-2.7,2.3-2.1
			c1.1,0.4,1.9,1.3,3.1,1.7c1.3,0.4,2.8,0.3,3.9,1.2c1.3,1,3,4.9,5,4.8c-0.3,0.5-0.6,1-0.7,1.6c0.6-2.6,4.9,1.8,2.5,3.5
			c1.2-0.4,0.5-1.6,1.1-2.4c0.9-1.2,1.6,1.6,1.7,2.2c0.3,2.9-1.9,5.9-3.4,8.2c-1.7,2.6-2.9,4.9-4,7.8c-0.4,1.1-1,2-1.9,2.8
			c-0.4,0.3-1.1,1-1.6,1.2c-0.8,0.2-1.5-0.4-2.4,0c0.4-1-0.3-1.1-1.1-0.8c-1.1,0.3-2-0.1-3.1-0.5c-0.5-0.2-2.6,1.3-2.9,1.7
			C238.7,102.8,235.9,100.8,235.5,100.4"/>
	</g>
	<g id="Bolivia">
		<path id="path2626" inkscape:connector-curvature="0" class="st0" d="M116.9,222.9c2,0.1,4.1,0.3,6.1,0.5c0.9,0.1,0.5,0.2,0.6,0.8
			c0.3,1,1.7,0,2.1-0.2c0.5-0.2,1.4-0.4,1.7-0.9c0.5-0.7,0.6-1.8,1.3-2.3c1.5-1.3,2.8,0.8,3.6-1.3c0.7-1.8,3-1.9,4.4-2.9
			c1.3-0.9,2-2.8,3.6-3.3c1.9-0.6,4.1-1.5,6.1-1.2c2.3,0.3,1.8,0.5,3.3-0.9c3.3,2.3-0.2,6.5,0.7,9.4c0.2,0.7,0.8,1.1,1.1,1.8
			c0.3,0.7-0.4,1.5-0.6,2.1c-0.5,1.9,1.4,3,1.8,4.5c0.3,1,0.2,0.9,1.1,1.7c0.6,0.5,0.4,1.7,0.9,2c0.7,0.4,1.2-0.1,1.8,0.7
			c0.7,0.9,1.4,0.9,2.2,1.6c0.1,0.1,0.5,1.1,0.6,1.3c0.5,0.6,1.2,0.7,2,0.9c1,0.2,1.6,0.7,2.6,0.1c0.8-0.5,1.7-0.2,2.4,0.3
			c0.6,0.4,1.1,1,1.8,1.4c0.9,0.6,1.1-0.6,1.8-0.4c1.3,0.4,1.4,2.9,3.1,3.1c1.5,0.2,2.6,1.4,4,1.4c2.1,0.1,2.4,3.2,4.1,3.6
			c1.4,0.4,2.8,0.1,4.2-0.1c2-0.3,4,1.3,5.7,2.2c2.7,1.5,1,3,1.9,5.2c1.1,2.4,1.5,4.6,2,7.2c-0.7,0-1.3,0-2,0.1c0.1,1.9,2.5,3,2.8,5
			c0.2,1.5,0.1,3.3,0.7,4.7c0.8,1.8,4.1,1.2,5.7,1.3c3,0.3,6.2,0.7,9.2,0.1c0,1.4-0.7,2.2-0.9,3.4c-0.1,1,0.3,2.3,0.6,3.3
			c0.4,1.5,2.2,3.9,3.9,4.2c0.9,0.2,1.3-0.4,1.7,0.7c0.3,0.8,0.7,1.6,1,2.4c0.9,2.1,2,3.3,1.5,5.6c-0.2,1.2-1.2,3.1-0.8,4.3
			c0.6,1.7-0.6,3.1-1.3,4.7c-0.9,2.2-0.9,3.2,0.8,4.6c1.3,1.1-0.8,1.8-1.7,2.5c0.6-2.1-0.7-3.5-2.4-4.6c-1.7-1.1-4-3.1-5.9-3.5
			c-5.5-1.2-11.9,1.6-17.2,2.6c-2.5,0.4-3.9,0.4-4.3,3.2c-0.3,2.3-2.3,3.8-2.7,6c-0.3,2.1,0.8,4,0.3,6.2c-0.6,3.1-0.8,6.2-1.6,9.2
			c-1.5-1.2-1.3-2.4-3.4-2.3c-1.6,0.1-3.5-0.1-5.1,0.5c-1.8,0.7-1.7-1.1-2.7,1.4c-0.8,2.1-1.3,4-1.5,6.3c-2.3-3.2-1.9-6.4-6.4-7.1
			c-1.8-0.3-4.5,0.6-6.1-0.2c-1.4-0.7-2.2-2.4-3.9-2.7c-0.2,2.3-0.1,3-2.4,3.9c-1.2,0.4-2.4,2.7-3.1,3.8c-1.1,1.6-1.4,2.4-3.6,2.7
			c-0.7,0.1-1.6,0.1-2.3-0.2c-1.2-0.6-0.4-1.9-0.8-2.9c-0.5-1.2-0.5-2.6-1.1-3.7c-0.6-1-1.2-1.6-1.5-2.8c-0.6-2-1-4.6-2.2-6.3
			c-0.6-1-1.7-1.4-2.3-2.3c-0.7-1,0.1-2-0.4-3c-0.4-0.8-1.6-0.9-2-1.8c-0.5-1,0.7-1.6-0.6-2.8c2.3-1.4,2.1-1.2,0.5-3.3
			c-0.2-0.3,0.7-1.7,0.8-1.9c0.8-1.4-0.1-1.8-1.1-2.7c-2.1-1.7-3-3.2-3.7-5.9c-0.3-1.2-2.1-4.2-1-5.3c-3.5-0.7-2.6-6.3-5.5-6.9
			c0.1-0.7,0.7-1.1,1.2-1.5c0.8-0.6,1.1-1.6,1.7-2.4c0.5-0.7,0.9-1.3,1.5-1.9c0.1-0.1,0-1.4,0.1-1.6c0.2-0.7,2.1-2.5-0.1-2.6
			c-1.6,0-2-0.4-2.7-2c-0.5-1-1.4-2.7-1.1-3.8c0.2-1.1,1.8-2.6,1.2-3.8c-0.9-1.8-2.2-2.1-1.1-4.4c0.7-1.4,1.5-2.5,2-3.9
			c0.6-1.7,0.9-1.6-0.1-3.4c-0.9-1.6-0.2-3-0.4-4.7c-0.1-1.4-1-4.3,0.1-5.5c1.1-1.2,2.1-2,1.1-3.6
			C122,231.9,119.2,227.4,116.9,222.9"/>
	</g>
	<g id="Brazil">
		<path id="path2754" inkscape:connector-curvature="0" class="st0" d="M79.2,191.3c0.7-0.8,0.4-1.3,1.5-1.8
			c1.2-0.6-0.2-1.9,0.1-3.3c0.6-2.6,3.4-2.2,4.5-4c0.7-1.2,0.1-2.5-0.2-3.7c-0.3-1.2,0.3-2.2,1-3.1c1.3-1.8-0.1-4.5,1.3-6.2
			c0.7-0.8,2.2-0.9,3-1.7c0.7-0.7,0.8-1.5,1.8-1.8c1.3-0.4,2-1.7,3.2-2.2c1.1-0.5,2.9-0.4,4.2-0.7c1.5-0.3,2.7-0.2,3.8-1.4
			c0.2-0.2,1.7-1.9,2.1-1.3c0.3,0.5,1,0.4,1.6,0.3c0.7-0.1,1.5,1,1.9,1.6c0.2-0.3,0.4-0.5,0.6-0.8c1.1,1.8,1.7-1.8,1.8-2.5
			c0.4-3,0.9-5.9,1.2-8.9c0.4-4,1.1-8,1.7-12.1c0.2-1.7,1.2-3.3,0.8-5c-0.4-1.7-1.5-2.7-1.5-4.5c-0.1-1.9-1.2-2.3-2.5-3.2
			c-1.8-1.2-1.4-3-1.4-4.8c0-1.1-0.4-2.4,0.2-3.4c0.3-0.6,2.4-1.2,3-1c0.9,0.3,1.3-0.9,2.5-0.2c1.3,0.7,1.7,0.3,1.6-1.2
			c-0.2-2.3-3.6-3.7-5.6-2.4c0.2-1.6-0.5-4.2,0.2-5.6c0.7-1.4,3.2-0.5,4.2-0.5c2.3,0,4.7,0,7,0.1c0.4,0,1.8,0.2,1.9-0.5
			c0.1-0.3,0.3-2,0.8-1.9c0.9,0.1,0.5,3.1,2.1,2c1.1-0.7,1.6-2,2.5-2.8c1.2-1.2,2.5,0.8,3.1,1.8c1,1.8,0.8,3,0.6,5
			c0,0.5-0.2,1.5,0.6,1.4c1.2-0.2,1.4-0.2,2.3,0.7c1.1,1.2,2.2,2.5,3.7,3.2c2,0.9,2.7-1,4.2-1.9c2.9-1.5,1.2,2.1,1.9,3
			c0.8-0.2,2.1-2.2,2.6-2.9c0.8-1.1,1.1-1.8,2.5-2.3c1.1-0.4,2-0.7,2.8-1.6c0.6-0.6,1.9-1.7,1.8,0c0.9-1.5,1.9-2.1,2.4-3.8
			c0.4-1.4,0.9-1.5,2.2-1.8c0.4-0.1,2.7-1.3,3-1.7c1.6-2.1-0.8-2.7-2.5-2.6c-0.9,0-1.6-0.1-2.3-0.6c-0.4-0.3,0.3-1.5,0.2-1.9
			c-0.5-2.4-2.2-3.9-1.7-6.5c0.4-1.9-1.1-2.5-2.3-3.7c-0.7-0.7-2.8-3.1-1.8-4.1c0.7,0.3,1,1.4,1.7,1.4c1,0.1,3-0.7,3.5,0.8
			c0.4,1.2,0.7,1.5,1.9,0.9c1.2-0.6,2.5,1.3,3.4,0.4c1.7-1.6,2.8,3.6,5,3c1.4-0.4,0.1-3.1,0.7-4c0.4-0.7,1.6-0.3,2.2-1.1
			c0.9-1.1,1.8,0.3,2.8,0.2c1.6-0.2,4.7-1.1,5.3-2.5c0,0.1,2.2-1.2,2-1.2c1,0.2,1.7,0.2,2.4-0.7c1.3-1.6,4.9-3.6,2-5.6
			c1.2-0.2,2.2,0.1,3.3-0.2c1-0.3,2-0.2,2.5,0.8c0.9,2-0.9,3.5-0.7,5.3c0.1,1,2.5,1,3.1,1.6c0.3,0.3-0.3,1-0.1,1.6
			c0.4,0.9,0.8,1.6,1.3,2.4c0.5,0.9-2.2,3-2.4,3.7c-0.2,0.7,0.1,1.6-0.1,2.3c-0.3,1.4-1.2,2.8-1.4,4.2c-0.3,2.2,0.6,3.5,1.5,5.3
			c0.4,0.8-0.2,4.1,1.2,4c-0.1,0.3-0.2,0.5-0.3,0.8c1.5,0.2,2.6,2.1,3.4,3.2c0.7,0.9,2,0.4,2.6,1.3c0.5,0.9,0.8,0.8,1.6,0.4
			c0.5-0.3,2.3-0.7,1.9-1.5c-0.7-1.5,3-1.2,3.5-1.4c0.7-0.2,1.3-1.1,2-1.5c1-0.5,1.7,0.3,2.5-0.7c1.1-1.4,2.4-2.8,4.1-1.6
			c1.6,1.2,3-0.4,4.7,0.1c1.1,0.3,3.7,1.7,4.1-0.2c0.4-1.7-2.4-2.1-1.3-3.7c1.3-1.9,2-0.7,3.8-0.8c1.2-0.1,2.2-0.3,3.2-0.7
			c2.1-0.9,1.6-0.6,3.2,0.7c0.3,0.3,0.2-0.6,0.6,0c0.5,0.7,1.2,1.1,1.9,1.6c0.9,0.7,1.8,0.7,2.7,1.2c1.1,0.6,0.6-0.5,1.5-0.6
			c0.8-0.2,1-0.9,1.6-1.3c0.5-0.3,1.2,0.4,1.7,0.5c0.7,0.1,3.3-0.5,2.8,0.9c0.8-0.4,2,0.5,2.6,0c0.9-0.8,2-1.3,2.6-2.4
			c0.9-1.4,1.7-3.1,2.1-4.8c1.1-4.4,4.2-7.5,7-11c0.1,0.6,0.4,1.2,0.8,1.6c-0.4-1-1.2-2.2-0.3-3.2c2.3,1.4,2.6,3.8,2.4,6.3
			c0.1-0.7,0.2-1.6,0.8-2.1c-0.1,3.3,0.3,6.8,1.4,10c0.5,1.3,2.5,5.2,1,6.4c1.1-0.4,1.3,0.8,1.7,1.6c0.7,1.4,2.3,0.9,3.5,1.3
			c2.7,1.1,2.2,4.3-0.2,5.4c0.6-0.2,1.3-0.1,1.8,0.4c-1,1-2.8,2-3.2,3.5c-0.2,0.8-1.1,1.1-1.5,1.8c-0.6,1-0.9,2-1.7,2.9
			c-1,1.2-2.4,2.1-3.5,3.1c-1.4,1.3-2.2,3.1-3.4,4.6c-1.1,1.4-1.5,2.5-1.4,4.2c0.1,1-1.8,1.2-1.8,2.5c-0.1,1.9-1.4,0.9-2.4,0.8
			c-0.9,0-3.6,1.3-3.9,2.1c0.8-0.2,4.9-1,3.8,0.9c0.8-0.9,2-0.8,3-1.3c1.1-0.7,2-1.4,3.2-1.9c1.6-0.7,3.9-2.6,4.7-4.1
			c2,1.2,0.1,4.2,1.4,5.8c0.5,0.6,0,2.4,0.9,2.6c0.7,0.2,2-0.2,1.5,1.1c1.7,0.3,4.8-2.8,5.1,0.8c-0.2-1.1,0.9-1.3,1.7-1.5
			c0.4,0,0.7-0.2,0.9-0.5c0.3-0.8,1.2-0.5,1.9-0.7c-0.9,2.9-1.8,4.7-1.6,7.7c1.3-1.7,0.5-5.3,2.7-6.4c1.5-0.7,1.7-0.9,2.6-2.3
			c1.4-2.3,1.8-0.6,3.3,0.3c0-0.5-0.2-1-0.4-1.4c0.8-0.1,1.6-0.2,2.4-0.4c-0.8-0.4-1.7-0.1-2.5,0.1c-0.2-1.1,0.6-1.2,1.2-1.8
			c1-0.9-0.1-2.9,1.1-4.1c1.4-1.4,1-0.2,1.9-0.6c0.6-0.3,2-1.9,2.2-0.2c1.3-1.2,1.3,0.5,2.5,0.1c-0.5-0.4-0.6-1.1-0.3-1.7
			c0.7,0.2,2.5,0.6,2.1,1.8c0.3-0.1,0.5-0.3,0.8-0.4c0.1,0.3,0.2,0.6,0.3,0.9c0.7-0.5,0.8-0.5,0.8,0.4c0.6-0.2,1-0.7,1.1-1.4
			c-0.4,1,1,1.2,0.6,2.2c0.1-0.6,0.5-1,1.2-0.8c0,0.7-0.4,1.2-1.1,1.3c1.1-0.6,2.1,0.9,3.1-0.1c-0.1,1.4,0.9,0.6,1.2-0.2
			c-0.4,1.7,1,1,0.9,2.2c0.4-0.2,0.7-0.4,0.9-0.8c-0.1,1,1.1,0.6,1.3,1.5c0.3-0.2,0.5-0.5,0.8-0.8c0.1,0.6,0.3,1.1,0.6,1.5
			c0.3-0.2,0.5-0.4,0.8-0.6c0.1,0.8,0.4,1.1,1.2,0.4c-0.6,0.4-0.7,1-0.3,1.6c0.2-0.6,0.6-1,1.2-1.2c-0.9,0.8-0.6,2.4,0.2,3.2
			c0.3-0.6-0.1-1.7,0.8-2.1c1.6-0.6,0.9,0.5,1.6,0.8c0-0.6,0.3-1.1,0.9-1.4c-0.3,0.5-0.4,1-0.4,1.6c1.8-1.1-0.2,2.2,1.7,1
			c-0.3,0.2-0.5,0.5-0.8,0.8c0.6,0.2,1.2-0.1,1.5-0.6c-0.5,1.1,1.3,0.5,0.5,2c-0.7,1.4-0.4,2.5-2.1,3c0.6-0.4,1.1,0,1.3,0.6
			c0-1,1.1-2.5,2-1.2c1,1.4-0.7,1.8-1.3,2.8c-0.5,0.9-1.3,3.5-0.9,4.5c0.3,1-1.3,1.9-0.6,2.7c0.1-1.5,1.8-1.9,2.5-3.1
			c0.6-1.2,0.2-3.1,0.9-4c0.3-0.5,1.9-1.6,2.4-0.8c0.8,1.4-1.8,2.1-2,3.3c0.8-0.5,1-0.3,0.8,0.5c0.9-0.4,2.2-3.9,2.6-2.2
			c0.1-1.2,2.4-1.9,3.4-1.4c-0.1-2.4,4.9,0.3,5.8,0.8c0.6,0.4,4.1,1.8,4.2,2.4c0.8-0.5,2.8,0.8,2.4-0.8c1,0.2,1.7,1,2.6,1.4
			c1.1,0.5,2.2,0.4,3.1,1.2c0-1.5,0.9-1.3,2-1.4c2.3-0.1,4.3-1,6.7-0.5c4.3,0.9,8.3,4.6,11.6,7.2c1.1,0.9,2.4,1,3.3,2.1
			c0.9,1.1,1.6,2.2,2.4,3.3c0.9,1.2,2.2,1.8,3.1,3c0.9,1.3,2.6,1.4,3.6,2.7c1,1.3,2.5,0.8,3.7,1.9c1.3,1.3,3.7,0.8,5.4,0.6
			c3.8-0.5,6.6,0.9,7.7,4.7c0.4,1.5,1.1,2.9,1.1,4.5c0,0.5-0.4,1.2,0,1.4c0.4,0.2,0.6,0.8,0.8,1.2c0.7,1.7,1.9,5.3,1,7.1
			c0.2-0.4,0.5-0.8,0.7-1.2c-0.2,1.7,1.1,3.9-0.7,5.1c0.3,0.1,0.6,0.1,0.8,0.2c-0.7,1.4,0.4,3.2-0.5,4.5c-0.9,1.4-0.2,3.2-0.9,4.6
			c-0.8,1.7-1.1,3.5-1.9,5.2c-0.8,1.8-2.7,3.1-3.4,5c-0.3-0.2-0.5-0.4-0.8-0.6c0.1,0.8-0.2,1.7-0.9,0.5c0.1,0.5,0.4,0.7,0.9,0.8
			c-1.1,2.2-2.8,5.1-4.6,6.8c-0.8,0.7-1.8,1-2.6,1.6c-0.8,0.7-1.4,1.6-2.4,2.2c0.2-0.7-0.3-1.1-0.9-1.3c-0.1,0.7,0.8,0.9,0.7,1.6
			c-0.2,0.9-0.9,2-1.8,0.9c0.4,0.6,1.4,1.1,0.8,1.9c-0.3,0.5-1.8,2.1-1.2,0.3c-0.5,0.8-0.4,1.7-1.1,2.4c0.3-0.1,0.6-0.2,0.9-0.3
			c-1.7,2.4-4.4,14.6-8.8,13.8c0.8-1.8-1.1-2.2-1.6-3.6c0,0.8-1,3.2-1.7,1.4c0.2,0.7,1.4,1.1,1.3,1.9c-0.1,1.4-1.9,2.4-1.3,4
			c-1.2-0.8-1,1.3-1,2.2c0.1-0.4,0.2-0.8,0.4-1.2c0.4,1.1,0.4,2,0.4,3.1c-0.3-0.2-0.6-0.5-0.8-0.8c0.7,0.6,1.3,2.4,1,3.2
			c0.2-0.5,0.4-1.1,0.6-1.6c0.1,3.2-0.9,6.2-0.5,9.4c0.4,2.8,1.6,5.8,1.8,8.6c0.2,5-2.9,9.6-1.5,14.7c0.8,2.8-1,3.2-2.2,5.3
			c-1.4,2.5-1.6,5.5-1.3,8.3c0.3,2,1.4,6-0.9,7c-2.2,1-0.4,5.3-3.1,5.6c1.9,1.6-1.3,3.7-2.4,4.7c-0.9,0.9-0.6,1.5-1,2.7
			c-0.5,1.7-1.3,3.3-1,5.1c0.1,1,0.8,2.4,0.1,3.3c-1.2,1.4-3,1.4-4.5,2.3c-1,0.6-2,1.7-2.5,2.8c-0.3,0.7,0,1.4,0.3,2
			c0.2,0.7-0.7,1-0.3,1.8c-1-1.2-4.1-0.6-5.4-0.3c-0.8,0.2-2,0.6-2.8,0.2c-1.1-0.6-0.3-1.7-0.4-2.7c-2.5,0.3-0.4,1.3-0.8,2.6
			c-0.3,1.2-5.3,0.8-6.4,1.4c0.8-0.8,2.1-0.4,3-0.8c-1-0.9-2.1-1.4-3.4-0.6c-1.1,0.7-1.6,0.1-2.8,0.3c-0.8,0.1-2.2,0.2-2.5,1.2
			c-0.3,0.9,1.2,1.3,1.7,1.7c-1.2,1-2.8-0.1-3.6,1.1c-0.7,1-1.8,1.1-2.7,1.8c-0.8,0.6,0.2,1.5-0.6,2c-1.2,0.8-3.1-1.4-4.8,0
			c-0.2,0.1-1.3,2.2-1.7,1.7c-0.4-0.4-0.1-1.1-1-1c0.5,1.4-1.3,1.6-2.3,2.2c-1.2,0.8-1.8,2-2.8,3c-1.1,1.1-2.7,1.5-3.8,2.5
			c-1,0.9-1.5,2.2-2.6,3c0.3,0.2,0.5,0.3,0.8,0.5c-0.9,0.9-1.7,1.9-2.2,3.1c-0.1-0.6,0.1-1.1,0.5-1.5c-0.8,0.3-1.6,0.1-2.4-0.2
			c0.3,1.6-0.5,2.5-2.1,1.2c0,0.9,2.2,1.9,3,1.8c-0.6,0.5-0.8,1.3-0.9,2c-0.1,0.6-1.3,0.4-1.7,0.7c0.5,0,1,0,1.5,0.1
			c-0.2,0.7,0.1,1.5-0.1,2.2c-0.2,0.9-1.2,1-1.4,0c0.3,0.6,0.2,1.5,0.9,1.8c0.9,0.4,0.4,2.3,0.6,3.1c0.3,1.2,1.8,2.9,1.2,4.4
			c1.1-0.3,1,1.1,0.1,1.2c1,0.8,0.2,4.1,1,5.4c0.8,1.3-0.6,4.4-0.6,5.7c-0.4-0.3-0.7-0.7-1-1.1c0.3,0.7,0.3,1.4,1.1,1.7
			c-0.9,1.2-2.2,1.9-3.3,2.9c-1.2,1-2,2.4-2.7,3.7c-1.8,3.3-2.3,6.8-3.2,10.4c-0.9,3.3-2.5,6.4-4.5,9.2c-1.9,2.7-4.6,4.7-6.7,7.2
			c0.4-1-0.2-2.2-0.4-3.2c1.1,0.3,1.6,0.4,2.6-0.3c0.9-0.6,1.4-2,2.2-2.5c1.1-0.6,1.3-1.1,1.3-2.4c0-0.8,0.1-2.3,1.2-1.1
			c-0.4-1.2,0.2-1.7,0.9-2.5c0.6-0.7,0.7-1.5,0.6-2.4c-0.1-0.6-0.8-2.8,0.7-1.5c0-0.3-0.4-2.4-1-2.2c-0.3,0.1-2.2,1.5-2.2,1.9
			c-0.5-0.6-0.8-1.3-1.5-1.5c-0.9-0.3-0.7-1.6-1.5-2c-0.1,2.1,0.9,2,1.8,3.5c-1.8,0.4-0.5,2.5-0.6,3.6c-0.1-0.6-0.4-1.1-0.7-1.5
			c-0.3,0.7,0.4,1.7,0.1,2.3c-0.2,0.3-0.7,0.2-0.6,0.6c0.3,1.7-1.2,2.7-2.4,3.4c-1,0.6-0.6,1.8-0.9,2.7c-0.2,0.8-2.2,2.7-0.3,2.8
			c-1,0.6-0.3,2,0.7,1.2c0.2,1-0.6,1.9-1,2.7c-0.6,1.4-0.6,3-0.8,4.4c-0.4,2.9-2.2,4.6-3.6,6.9c-1.2,1.9-2.9,1.5-3.2-0.7
			c-0.1-1-0.5-2-0.4-3c0-1.2,1.4-2.2,1.9-3.2c0.8-1.6-1.3-2.2-2.4-2.7c-1.3-0.6-1.9-1.6-2.5-2.8c-1.4-2.5-3.8-2.5-5.9-4.2
			c-1.1-0.9-1.7-2.3-3-2.9c-0.5-0.1-1.1-0.2-1.6-0.3c-0.6-0.3-0.8-1-1.5-1.3c-0.9-0.4-1.4,0.1-2.3-1.1c-0.9-1.2-1.8-2.5-3.4-2.9
			c0.6,1.3-2.5,3.4-2.7,0.8c-0.1-2.2-2.8-3.6-4.3-4.8c-1.2-0.9-3.6-3.9-5.4-2.6c-0.6,0.4-0.4,1.5-1.4,1.4c-1.1-0.1-2,0.1-2.7-0.9
			c1.6-0.7,1.7-3,3.1-4c1.6-1.2,2.3-3,2.9-4.8c0.7-2,2.4-3.5,3.4-5.4c0.5-0.9,1.5-3.6,2.8-2.2c0.3-0.6,0-1.2-0.6-1.4
			c1-1.3,2.3-2.5,3.7-3.3c1.5-0.8,1.7-1.7,2.7-2.8c1-1.1,2.3-1.4,3.5-2c0.9-0.5,2.6-2.5,3.7-2c0.3-1.9,0.2-3.4,0.1-5.3
			c-0.1-2.3-0.3-3.5-1.1-5.6c-0.6-1.5-0.9-3.3-2.6-3.9c-1-0.3-2.8-0.5-3,0.9c-0.9-0.6-2.1-1.1-1.7-2.4c0.5-1.8,0.7-3,0.9-4.9
			c0.1-1.3-0.2-3,0.4-4.2c0.6-1.2-1.3-2.4,0-3.4c-0.9-0.6-1.7-1.9-2.9-2.1c-1.3-0.2-2.2,1.1-3.3,1.4c-3.1,1-3.9-2.1-4.5-4.4
			c-0.4-1.4-0.8-3-1-4.5c-0.2-1.4-0.1-2.9-1.1-3.9c-1-0.9-0.4-2.3-2.1-2.8c-1.3-0.3-2.4-0.2-3.5-1.2c-1-0.9-1.6-0.3-2.5,0.5
			c-0.9,0.8-2.1,0.3-3.1,0.1c-1.5-0.2-3-0.2-4.3-0.9c-0.7-0.4-3,0.3-3.2-0.6c-0.2-0.9,0.1-1.9,0-2.8c-0.1-0.9-0.6-2.1-0.3-2.9
			c0.6-1.5,0-2.8,0.3-4.2c0.2-1.1-1.7-1.5-0.6-2.7c-0.9-0.1-1.1-1-1.1-1.7c-0.1-1.1-0.7-1.4-1.3-2.3c-1.4-2,3.5-2,1.5-3.5
			c-2.4-1.9-1.6-3.3-0.5-5.9c0.3-0.7,1.4-2,1.1-2.7c-0.6-1.1-0.2-2.1,0.1-3.4c0.2-1,1-2.6,0.9-3.6c-0.1-1.1-1.2-1.8-1.6-2.8
			c-0.5-1.1-0.6-3.5-1.9-3.7c-1.8-0.2-3.9-1.5-4.5-3.4c-0.4-1.2-0.9-2.7-0.9-4c0-1.3,0.9-2.4,0.9-3.7c-2.6,0.6-5.3,0.3-7.9,0
			c-1.7-0.2-5.5,0.3-6.7-1c-1.1-1.2-0.8-3.6-1.1-5.2c-0.3-2-2.7-3.2-2.8-5c0.7-0.1,1.3-0.1,2-0.1c-0.4-2.2-0.6-4.5-1.6-6.6
			c-0.4-0.8-0.9-1.4-0.7-2.3c0.2-1.1,0.4-1.7-0.4-2.6c-2.7-2.9-6.8-3.6-10.5-2.8c-1,0.2-2.8-2.5-3.3-3.2c-0.5-0.7-0.9-0.4-1.7-0.4
			c-0.7-0.1-2.1-1-2.6-1.4c-0.4-0.4-1.1,0-1.6-0.4c-0.7-0.5-1.1-1.5-1.7-2.2c-0.7-0.9-1-0.7-1.9-0.3c-1.1,0.5-1.5-0.7-2.3-1.2
			c-1.9-1.3-2.6,0.2-4.6-0.3c-2.2-0.5-2.4-0.7-3.7-2.4c-0.6-0.8-2.6-2.1-3.5-2.2c-0.9-0.1-0.6-1.4-1.2-2c-0.4-0.4-1.3-0.4-1.3-1.1
			c0-1.5-1.4-2.4-1.6-4.1c-0.1-0.9,0.7-2,0.5-2.8c-0.2-0.7-1-0.9-1.2-1.8c-0.1-0.7-0.1-1.4-0.2-2.1c-0.2-0.9,0.8-1.6,0.9-2.4
			c0.3-1.6,0.1-4.3-1.4-5.3c-0.4,0.3-0.7,1.2-1.2,1.1c-1.5-0.1-2.6-0.1-4.1,0.1c-1.6,0.2-4.4,0.2-5.4,1.8c-1.4,2.3-3.5,2.3-5.4,3.8
			c-0.6,0.5-1.4,1.2-1.5,1.9c-0.2,1.2-1.4,0.2-2.1,0.2c-1.1-0.1-1.5,1.1-1.9,1.9c-0.5,1.1-1.4,1.7-2.5,2.2c-0.3,0.1-2.2,0.8-2-0.1
			c0.2-1.1-1.1-0.9-2-0.9c-2.2-0.1-5.4-1-7.5-0.4c-1.1,0.3-2.1,1.5-3.3,1.1c-0.7-0.2-1.7-1.4-2.5-0.7c-0.3-2.8-0.2-5.7-0.6-8.5
			c-0.2-1.4,0.1-1.8,0.5-2.9c0-0.4-0.1-0.7-0.3-1c-0.4-0.8,0.3-1.1,0.5-1.8c-2,0-3.9,3.2-5.2,4.4c-2.1,1.8-5.6,1.1-8,0.8
			c0.4-1.3-0.6-3.5-1.6-4.4c-1.8-1.5-4.9-0.4-6.8-1.4c2.2-2.9,1.5-3.8-0.9-6.3c-0.5-0.5-0.6-1-0.8-1.7c-0.2-0.7-1-0.9-1.5-1.5
			c-1-1.3-0.8-2.9-2.4-3.9C82.7,194,79.7,192.1,79.2,191.3"/>
		<g id="BrazilNorthIslands">
			<path id="path2756" inkscape:connector-curvature="0" class="st0" d="M253.2,135.9c0.8-0.2,1.4-0.6,2-1.2
				C254.3,134.7,253.4,135,253.2,135.9"/>
			<path id="path2758" inkscape:connector-curvature="0" class="st0" d="M255,137c0.6-0.7,1.6-0.5,2.3-1.2
				C256.6,134.7,254.6,135.8,255,137"/>
			<path id="path2760" inkscape:connector-curvature="0" class="st0" d="M257.4,135.5c2.1-0.5,7.2-5.5,6-7.9
				c-1.2-2.4-3.6,0.8-3.9,2.1c-0.2,1,0.2,2-0.8,2.6C257.6,133,256.9,134.1,257.4,135.5"/>
			<path id="path2762" inkscape:connector-curvature="0" class="st0" d="M261.6,126.3c0.8-0.5,3-2,1.9-3.2
				C262.4,123.8,261.9,125.2,261.6,126.3"/>
			<path id="path2764" inkscape:connector-curvature="0" class="st0" d="M261.6,133.1c1.1-0.4,2-2,1.3-3.1
				C262.9,131.2,261.6,131.9,261.6,133.1"/>
			<path id="path2766" inkscape:connector-curvature="0" class="st0" d="M264.9,129.9c-0.9,0.3-1.5,1.1-1.7,2c1.1-0.3,1.3-1.4,2.2-2
				C265.2,129.9,265.1,129.9,264.9,129.9"/>
			<path id="path2768" inkscape:connector-curvature="0" class="st0" d="M263.8,126.9c0.3-0.8,0.5-1.6,1.4-1.9
				C264,123.8,263.5,126,263.8,126.9"/>
			<path id="path2770" inkscape:connector-curvature="0" class="st0" d="M263.6,130.7c0.7-0.8,1.1-1.8,2-2.4c0.5-0.4,0.7-1.3-0.2-1
				C264.4,127.6,263.5,129.7,263.6,130.7"/>
			<path id="path2772" inkscape:connector-curvature="0" class="st0" d="M264.2,126.9c0.6-0.2,1.1-0.7,0.8-1.4
				C264.5,125.8,264.1,126.3,264.2,126.9"/>
			<path id="path2774" inkscape:connector-curvature="0" class="st0" d="M265.9,124.5c0.6-0.6,1.3-1,1.9-1.6c0.7-0.8-0.5-1.1-1-0.8
				C265.6,122.5,263.5,124,265.9,124.5"/>
			<path id="path2776" inkscape:connector-curvature="0" class="st0" d="M264.8,127.2c0.7-0.3,2-0.8,1.5-1.8
				C265.4,125.4,265.3,126.5,264.8,127.2"/>
			<path id="path2778" inkscape:connector-curvature="0" class="st0" d="M265.2,129.6c0.4-0.2,0.7-0.6,0.8-1
				C265.4,128.6,265.1,129,265.2,129.6"/>
			<path id="path2780" inkscape:connector-curvature="0" class="st0" d="M265.5,121.8c0,0.2,0,0.3,0.1,0.5c0.6-0.1,1.1-0.3,1.5-0.8
				C266.5,121.1,265.9,121.3,265.5,121.8"/>
			<path id="path2782" inkscape:connector-curvature="0" class="st0" d="M266.5,135.4c0.6,0.9,1,2,1.7,2.8c0.6,0.6,3,0.8,1.7,0.1
				c1.1,0.1,2.5-0.5,3.5-0.2c0.7,0.2,1.8,0.8,1.5-0.5c0.2,0.3,0.3,0.6,0.5,0.8c0.8-0.5,1.5-1.2,1.5-2.2c0.4,1.6,3.2,0.5,4,0
				c1.6-0.8,1.5-2.5,2.5-3.9c0.9-1.3,1.2-2.6,1.5-4.2c0.3-1.4,2-3.9-0.6-4.1c-2-0.1-4.5-1.4-6.4-0.5c-0.8,0.4,0.1,0.7-1.2,0.7
				c-1.2-0.1-2.1-0.2-3.2-0.5c-2.1-0.5-4.7-1.5-6.1,0.8c-0.7,1.3-0.8,3.3,0.9,3.8c-0.6-0.1-1.2-0.3-1.8-0.5c-0.3,0.7,0.3,1,0.2,1.7
				c0,0.8-0.7,1.4-0.3,2.2c0.4,0.9,1.7-0.3,2.4-0.1c-1,1.8-0.8,0.5-2.7,0.8C266.7,133.2,266.6,134.4,266.5,135.4"/>
			<path id="path2784" inkscape:connector-curvature="0" class="st0" d="M268.2,121.8c1,0.8,1-0.3,0.7-1
				C268.1,119.2,267.3,120.9,268.2,121.8"/>
			<path id="path2786" inkscape:connector-curvature="0" class="st0" d="M269.2,120.3c0.8-1.1,1.4-2.5,0.3-3.7
				C269.1,117.5,268.1,120,269.2,120.3"/>
			<path id="path2788" inkscape:connector-curvature="0" class="st0" d="M269,102.3c0.2-0.3,0.4-0.5,0.5-0.8
				C268.7,101.3,268.5,101.5,269,102.3"/>
			<path id="path2790" inkscape:connector-curvature="0" class="st0" d="M269.7,104.5c1.2-0.6,0.6-1.6,0-2.4
				C268.5,102.7,269.2,103.8,269.7,104.5"/>
			<path id="path2792" inkscape:connector-curvature="0" class="st0" d="M272.2,121.8c0.7,1.5,2.2-0.9,2.8-1.5
				c1.6-1.7-1.3-1.4-2.2-1.1c-0.9,0.3-2.9,0.4-3.2,1.5C269.4,121.6,271.7,121.7,272.2,121.8"/>
			<path id="path2794" inkscape:connector-curvature="0" class="st0" d="M270.8,118.7c0.4-0.3,2.5-1.9,1.7-2.6
				C271.2,115,269.8,117.7,270.8,118.7"/>
			<path id="path2796" inkscape:connector-curvature="0" class="st0" d="M270.8,119.7c0.5-0.2,0.9-0.5,1.2-0.9
				C271.4,118.7,271,119.1,270.8,119.7"/>
			<path id="path2798" inkscape:connector-curvature="0" class="st0" d="M270.8,115c0.8,0,1.7-0.2,1.6-1.2
				C271.6,113.5,270.6,113.9,270.8,115"/>
			<path id="path2800" inkscape:connector-curvature="0" class="st0" d="M272.7,113.3c0.5-0.3,0.6-0.7,0.2-1.1
				C272.4,112.4,272.4,112.8,272.7,113.3"/>
			<path id="path2802" inkscape:connector-curvature="0" class="st0" d="M274.8,121.8c-1.1,1.7,1.6,1.4,2.5,1.1
				C278.7,122.4,276.1,120.5,274.8,121.8"/>
			<path id="path2804" inkscape:connector-curvature="0" class="st0" d="M281.4,138.5c0.3-0.7,0.4-1.4,0.5-2.1
				C280.9,136.7,280.4,137.8,281.4,138.5"/>
			<path id="path2806" inkscape:connector-curvature="0" class="st0" d="M285.4,132.6C287.5,134.6,285.9,130.1,285.4,132.6"/>
			<path id="path2808" inkscape:connector-curvature="0" class="st0" d="M291.6,128.2c0.8,0.4,0-0.8,0-0.8
				C291.6,127.6,291.6,127.9,291.6,128.2"/>
			<path id="path2810" inkscape:connector-curvature="0" class="st0" d="M298.2,365c0.2,0.2,0.5,0.5,0.7,0.7
				c0.3-0.7,0.6-1.6-0.1-2.2C298.4,363.9,298.2,364.4,298.2,365"/>
			<path id="path2814" inkscape:connector-curvature="0" class="st0" d="M301.3,131.2c0.4-0.1,0.6-0.4,0.6-0.8
				C301.1,130.2,300.8,130.5,301.3,131.2"/>
		</g>
		<g id="BrazilSouthIslands">
			<path id="path2812" inkscape:connector-curvature="0" class="st0" d="M300.8,378.6c0.7-1,1.3-2.9,0.5-3.9
				C300.1,375.4,300.7,377.6,300.8,378.6"/>
		</g>
		<g id="BrazilSoutheastIslands">
			<path id="path2822" inkscape:connector-curvature="0" class="st0" d="M322.9,343.1c0.1-0.7-0.5-1.2-0.1-1.9
				c-1-0.2-1.3,0.8-1.5,1.5C321.9,342.6,322.4,342.7,322.9,343.1"/>
			<path id="path2826" inkscape:connector-curvature="0" class="st0" d="M329.6,336.1c0.6-0.1,1.2-0.5,1.5-1
				C330.4,334.6,329.2,335.2,329.6,336.1"/>
		</g>
		<g id="BrazilEastIslands">
			<path id="path2824" inkscape:connector-curvature="0" class="st0" d="M324.4,143.5c0.2-0.3,0.5-0.5,0.7-0.8
				C324.2,142.7,324,142.9,324.4,143.5"/>
			<path id="path2816" inkscape:connector-curvature="0" class="st0" d="M313.7,134.8c0.6-0.2,0.9-0.7,0.6-1.3
				c-0.3,0.9-0.5,1.1-0.6,0.5C313.7,134.3,313.7,134.5,313.7,134.8"/>
			<path id="path2818" inkscape:connector-curvature="0" class="st0" d="M315.5,137.2c0.3-0.1,0.6-0.2,0.8-0.3
				C315.6,136.4,315.4,136.5,315.5,137.2"/>
			<path id="path2820" inkscape:connector-curvature="0" class="st0" d="M317.2,150.1c0.5-1,0.9-2,0.8-3.2
				C316.9,147.5,317.3,149.1,317.2,150.1"/>
			<path id="path2828" inkscape:connector-curvature="0" class="st0" d="M366.3,247.1C367.5,244,364.3,246.5,366.3,247.1"/>
			<path id="path2830" inkscape:connector-curvature="0" class="st0" d="M367.4,243.1c0.6-0.6,2-1.5,0.8-2.3
				C368.4,241.7,367.3,242.2,367.4,243.1"/>
			<path id="path2832" inkscape:connector-curvature="0" class="st0" d="M367.4,242.1C367.7,242.1,367.6,242.1,367.4,242.1"/>
			<path id="path2834" inkscape:connector-curvature="0" class="st0" d="M379.8,224.6c0.3-0.4,0.5-0.9,0.6-1.4
				C380.2,223.6,380,224.1,379.8,224.6"/>
			<path id="path2836" inkscape:connector-curvature="0" class="st0" d="M397.3,193.4c0.1,0.2,0.2,0.4,0.2,0.5
				C397.9,193.2,397.8,193,397.3,193.4"/>
			<path id="path2842" inkscape:connector-curvature="0" class="st0" d="M389.9,211.7c-0.2-0.2-0.5-0.4-0.6-0.7
				C389.5,211.2,389.7,211.4,389.9,211.7"/>
		</g>
	</g>
	<g id="Venezuela">
		<path id="path3351" inkscape:connector-curvature="0" class="st0" d="M85,37.2c2.1-2.5,3.2-5.1,3.8-8.3c0.6-3,1.6-5.2,3.2-7.8
			c1.3-2.1,3.5-2.8,4.7-5c1.4-2.5,4.2-2.3,6.5-3.7c-0.9,2.3-3.8,0.7-5.1,2.3c-1.1,1.4,0.5,4.6,1.9,5.2c-1.3-0.1,0,2.9,0.1,3.4
			c0.4,1.7-1.2,3.4-2.4,4.5c-1.5,1.4-2.2,3.1-1.3,4.9c0.4,0.7,0.5,1.6,1.2,2.1c0.8,0.6,0.9,0.3,0.7,1.3c-0.3,2.1,1.4,2.6,3.1,1.6
			c1.8-1,2.5-2.5,2.7-4.5c0.3-2.5-0.8-3.9-2.1-6c-0.5-0.8-0.9-1.7-1.2-2.7c-0.3-0.8,0.4-1.9-0.2-2.6c1,0.1,1.8-1.3,2.5-1.8
			c1.4-0.8,2.6-1.8,4.2-2.1c1.4-0.2,2.4-0.4,3.6-1.1c0.5-0.3,1.8-1.4,2.4-1.1c-0.1-0.4-0.3-0.8-0.6-1.1c0.6,0.2,2.4,1.7,3,1
			c0.4-0.5,0-1.7-0.5-1.9c-0.9-0.4-2.1,0.5-3.1,0.5c0.2-1.1-0.7-6.7,2.4-5.4c1.4,0.6,1.1,3.7,1.4,4.9c0.5,2.7,3.4,0.9,5.3,1.6
			c2.1,0.7,4.8,1.3,5.8,3.8c0.6,1.5-0.9,4.9,1.6,5.5c3,0.6,6.8-0.8,9.8-1.2c2.6-0.3,5.2-0.9,6.8,1.4c0.7,0.9,1.6,1.7,2.6,2.1
			c0.9,0.3,1.8,0.5,2.7,0.8c-0.1,0,3,0.6,1.6,0.6c2.4,1.3,3.6-1.5,5.5-1.7c1.2-0.1,1.4-1.3,2.4-1.8c1.3-0.6,2.8,0.6,4.2-0.2
			c-1.2-1.2-3.9,0.1-4.7-1.5c0.7,0,1.3,0,2,0c0.9,0,1.2-0.6,1.9-0.6c0.3,0.1,0.7,0.3,1,0.4c0.9,0.2,1.9,0.1,2.9-0.1
			c4-0.7,8.1,0.1,12-0.7c-0.6,1.2-2.6,1-3.7,1.6c-1.8,0.9-3.9-0.5-5.5,0.9c0.5-0.5,1.1-0.5,1.3,0.3c-0.7-0.1-1.1,0.4-1.2,1
			c1.5-0.9,2.6,0,2.5,1.7c0,1.4-2.3,0.4-3,0.4c0.5,1.9,3.6,0.6,3.3-1.2c0.8,0.1,1.2,1.1,1.3,1.8c0.1,1,1,2.1,0.9,3
			c0.6-0.6,0.9-1.5,0.6-2.4c0.8,0.8,0.9,2.2,0.2,3.1c0.8-0.6,0.5-1.7,0.4-2.5c0.4,0.1,0.8,0.2,1.2,0.4c-0.1-0.1-2.6-1.4-1.1-1.3
			c1.4,0.2,3.3,1.7,2.5,3.2c0.3-0.6,0.8-0.6,0.5-1.2c0.6-0.3,1.2-0.3,1.8-0.2c-1.3-1.4,0.8-0.1,1.3,0.6c0.9,1.4,2.4,0.8,3.5,1.7
			c3,2.3-0.5,2.3-1.3,4.5c0.2-0.3,0.5-0.5,0.8-0.8c0.2,1.1-1,3-1.5,3.9c-0.3,0.6-0.2,1.1-1,1.1c-0.6,0-2.6-0.6-3.1,0
			c0.9,0.5,2.5,0.7,3,1.8c0.6-0.8,1.5-1.4,1.6-0.1c0.9-1,1.5-1.4,2.8-1.7c1.2-0.2,1.7,1,2.8,0c1.9-1.9,5.4,2.8,4.4,3.3
			c-1.1,0.6-1.7,1.3-2.6,2.2c-0.8,0.8-2.3,1.2-2.9,1.9c-0.5,0.5-0.9,1.2-1.3,1.7c-0.9,1.1,0.4,1.8,0.3,3c-0.1,0.7,0.2,1.6,1.1,1.1
			c1-0.6,1.8,0.8,1,1.6c-0.9,0.8-2.1,1.1-3,2c-0.4,0.4-1.1-0.2-1.5-0.2c-0.4,0-0.6,0.7-0.9,0.8c-3.2,1.3,0.1,3.3-1.7,5.2
			c-0.4,0.5-2.2,1.6-1.6,2.4c1,1.4,2.1,2.9,3.2,4.2c1.3,1.6,4.1,4.2,1.5,6.1c-0.9,0.6-1.4,1.6-2.3,2.2c-0.5,0.3-2.2,0.1-2.3,0.3
			c-0.5,0.8-1.9,0.6-1.9,1.4c0,0.9-1.7,1-2.4,1.3c-1.3,0.6-2.8,1.4-4.2,0.7c-0.9-0.5-1.8,0.7-2.8,0.9c-1.2,0.2-1.2,1.5-0.9,2.5
			c0.4,1.4-0.8,2.5-2,1.4c-0.8-0.7-1.2-1.7-1.9-2.5c-1-1-1.6,0.4-2.6,0c-1.3-0.5-1.8-0.1-3.1-0.2c-1-0.1-0.8,0.3-1.2-1
			c-0.4-1.2-1.9-1.3-2.9-1.1c-1.4,0.3-1.3-0.9-2.4-1.4c-0.9,0.9,0.7,2.9,1.3,3.5c1.5,1.9,2.8,2.2,2.9,4.9c0,0.9,0,1.7,0.3,2.6
			c0.3,1.1,1.4,2.2,1.3,3.3c-0.3,1.9-0.3,2.8,2.1,2.8c0.7,0,3.3-0.5,3.1,0.7c-0.4,2.3-1.4,1.4-2.7,2.8c-0.7,0.7-2.6,0.6-2.9,1.3
			c-0.4,0.9-0.1,1.8-0.7,2.6c-0.5,0.8-1.3,1.4-1.8,2.2c0.1-2.1-2.8,0.9-3.8,1.2c-1.4,0.5-2.4,1.1-3.2,2.3c-0.6,0.8-1.8,2.9-2.7,3.2
			c-0.6-0.8,0.2-1.7,0-2.6c-0.3-1.4-2.4,0-3,0.4c-3.1,2.3-5.2,0.1-7.2-2.5c-1-1.3-1.2-3.1-1.6-4.5c-0.5-1.7-1.7-4-1.7-5.8
			c0.1-1.4-3.4-6-5.1-4.7c-0.1-1.6,2.2-3.1,3.3-4c1.9-1.5,0.6-3.1-0.7-4.6c-2.9-3.4-1.9-9.6-1.9-13.7c0-1.4,0.6-1.8,1.6-2.7
			c0.6-0.6,0-1.8,0.4-2.6c0.3-0.8,1.6-1.3,1.5-2.3c-0.1-1.4,0-1.7-1.5-2.3c-1.7-0.6-4.5,0.8-6.4,1c-1.2,0.1-2.4,0.1-3.6-0.1
			c-1.8-0.3-1.5,0.6-3,0.9c0.3-0.1-1.8-0.4-1.6-0.3c-0.8-0.5-1.5-2.3-2.1-3.1c-0.8-1.2-1.5-2.3-2.2-3.5c-0.4-0.6-0.9-1.6-1.7-1.3
			c-1.6,0.5-2.4-0.9-3.9-1.1c-1-0.1-1.7,0.8-2.6,1c-1.3,0.3-2.6-0.6-3.9-0.3c-0.9,0.2-1.4-0.4-2.3,0.1c-0.9,0.4-2.1-0.1-2.6-0.9
			c-0.4-0.6-0.5-1.3-0.7-2c-0.2-1-1.6-0.6-2.1-1.3c-0.9-1.3,0.3-4.1,1-5.2c1.5-2-1.5-4.1-2.2-5.5c-0.7-1.6,0.1-5.2-2.2-4.6
			c0-0.6,0-1.1-0.2-1.6C87.2,36.7,86.2,37.2,85,37.2"/>
		<g id="g4656">
			<path id="path3353" inkscape:connector-curvature="0" class="st0" d="M183.1,43.6c-0.8-0.2-1.6-0.3-2.3-0.6
				C181.5,42.6,183.1,42.4,183.1,43.6"/>
			<path id="path3355" inkscape:connector-curvature="0" class="st0" d="M183.9,41.6c0.5-0.7,1.2-1.6,2.2-1.2
				C185.7,41.5,184.7,41.3,183.9,41.6"/>
			<path id="path3357" inkscape:connector-curvature="0" class="st0" d="M184.1,43.4c-0.2-0.2-0.4-0.5-0.6-0.7
				c0.6,0,1.1-0.1,1.6-0.3C185.1,43,184.7,43.4,184.1,43.4"/>
			<path id="path3359" inkscape:connector-curvature="0" class="st0" d="M184.8,42.1c-0.3-0.1-0.5-0.2-0.8-0.3
				c0.5-0.3,1-0.4,1.5-0.2C185.3,41.8,185.1,41.9,184.8,42.1"/>
			<path id="path3361" inkscape:connector-curvature="0" class="st0" d="M185.8,42.3c-0.1-0.6,0.2-0.7,0.9-0.3
				C186.4,42.1,186.1,42.2,185.8,42.3"/>
			<path id="path3363" inkscape:connector-curvature="0" class="st0" d="M186.1,39.8c-0.3,0-0.5,0-0.8,0c0.2-0.6,0.7-0.9,1.3-0.8
				C186.4,39.3,186.2,39.5,186.1,39.8"/>
			<path id="path3365" inkscape:connector-curvature="0" class="st0" d="M186.4,37.8c-0.8-0.2-0.7-0.5,0.2-0.8
				C186.6,37.3,186.5,37.5,186.4,37.8"/>
			<path id="path3367" inkscape:connector-curvature="0" class="st0" d="M186.6,38.2c-0.8,0.4-1.3,1-2,1.5
				C184.9,38.8,185.7,38.2,186.6,38.2"/>
			<path id="path3369" inkscape:connector-curvature="0" class="st0" d="M186.7,37.7c0.1-0.4,0.4-0.6,0.8-0.6
				C187.3,37.3,187,37.5,186.7,37.7"/>
		</g>
		<g id="g4677">
			<path id="path3534" inkscape:connector-curvature="0" class="st0" d="M151.6,21.4c-0.3-0.1-0.5-0.2-0.8-0.2
				c0.2-0.3,0.5-0.5,0.8-0.6C151.9,20.9,151.9,21.2,151.6,21.4"/>
			<path id="path3536" inkscape:connector-curvature="0" class="st0" d="M161.5,21.7c-0.2-0.6-3.8-1.4-1.9-2c1-0.3,1,0.7,1.6,0.7
				c1-0.1,1.1-1.3,2-1.6C163.7,20.8,163.5,20.6,161.5,21.7"/>
		</g>
		<path id="path3538" inkscape:connector-curvature="0" class="st0" d="M171.7,25.1c0.4,0.5,0.7,1,1,1.6
			C172.2,26.4,171.7,25.7,171.7,25.1"/>
		<path id="path4714" inkscape:connector-curvature="0" class="st0" d="M181.3,11.1c-0.8-0.8-0.1-1.8,0.7-2.2
			C182.3,9.7,182,10.6,181.3,11.1"/>
		<path id="path6046" inkscape:connector-curvature="0" class="st0" d="M178.4,29.2c0.9-1.3,3.3-1.2,3.9-2.8c0.3-1,0.1-3.2-1.3-3.1
			c1-1,2.8-1.2,4.1-1.4c2.8-0.3,0.4,1.5,0.6,3.1c0.2,1.5,1.1,2.9-0.9,3.6C182.8,29.4,180.5,28.4,178.4,29.2"/>
		<path id="path6052" inkscape:connector-curvature="0" class="st0" d="M188,19c0.2-1,1-1.6,1.9-1.8C190,18.3,188.7,18.6,188,19"/>
		<path id="path6441" inkscape:connector-curvature="0" class="st0" d="M114.4,6.6c-0.1-0.3-0.3-0.5-0.4-0.8
			c0.8-0.3,1.2,0.9,1.3,1.5C115,7.1,114.7,6.9,114.4,6.6"/>
		<path id="path6443" inkscape:connector-curvature="0" class="st0" d="M124.2,10.7c-1.3-0.3-3.1-1.5-3.1-3
			C121.8,7.9,124,10,124.2,10.7"/>
		<path id="path6445" inkscape:connector-curvature="0" class="st0" d="M128.2,10.9c-0.2-0.4,0.1-1.6-0.5-1.8
			c-0.5-0.2-0.7-0.1-0.5-0.8C128.2,9,129.5,9.6,128.2,10.9"/>
	</g>
	<g id="Colombia">
		<path id="path3786" inkscape:connector-curvature="0" class="st0" d="M37.1,107.2c-0.3-0.1-0.6-0.2-0.8-0.2
			c0.3-1.8,2.3-2.4,3.8-1.5c0.8-1.6-1.2-3-0.4-4.6c1-2,3.3-1.9,5.2-2.3c0.4-0.1,0.2-0.9,0.7-0.6c0.4,0.2,1.2,0.4,1.2-0.2
			c0-1.3,1.7-2.9,0.7-3.7c1.8,0,2.2-2.4,2.7-3.7c0.4-1,1.3-1.7,2.1-2.3c-1.1-0.9,0.2-1,0.5-1.9c-0.8,0-1.7,0.7-2-0.5
			c0.6-0.2,1-0.6,1-1.2c-0.6-0.2-1.8,1.4-1.9,0.2c-0.1-1.3,0.6-1.5,1.6-2c-1.5,0-0.8-2-0.6-2.9c0.4-1.7,0.1-3.9-0.1-5.6
			c-0.1-1.3-0.7-2.5-0.8-3.8c0-0.7,2.2-1,1.8-2.6c-0.2-1-2.5-3.2-1-3.8c1.3-0.5,0.2-3.3-0.4-4c-1.2-1.3-1.3-3.3-2.6-4.4
			c-0.8-0.7,0-1.6,0.5-2.3c0.6-0.8,0-1.8,0.7-2.5c0.4,0.5,0.7,1,0.8,1.5c1.6-1.1,4-3.4,3.2-5.6c-0.8-2.3-2.2-2.8-0.8-4.9
			c0.8,1,1.7,2.4,2.3,3.6c0.7,1.2,2.4,1.5,0.9,3c2.1,2.4,1.1-4.5,0.8-5.2c-0.4-1.1,4.4-3.5,5.1-4.3c0.8-1.1,1.3-2.9,2.6-3.4
			c0.7-0.3,2.5-0.1,2.9-1c0.6-1.2-0.6-1.6-0.3-2.3c0.4-1.3,0.6-2.9,1.4-4.1c-1.1-0.1-0.8-0.5-0.1-0.9c0.7-0.4,0.4-1.3,0.4-1.9
			c0-1.4,2.3-1.8,2.3-2.3c0-0.7,2.9-3.6,3.6-3.6c1.3,0,2.5,1.2,3.8,1.2c-1.1-0.1-1,1.1-2,1.1c0.8,2.9,2.5-1,2.9-2
			c1-2.6,2.1-2.4,4.9-2c3.8,0.6,4.9-1.8,7.9-3.6c1.6-1,6.4-2.1,4.9-5C97.2,8.9,99,8.3,98,9.6c1.2-0.2,0.4-1.3,1.7-1.9
			c1.5-0.7,2.9-0.7,4.2,0.4c4.4,3.7-5.1,5.2-6.5,7c-0.8,1-1.1,2.4-2,3.2c-0.6,0.6-1.7,0.5-2.2,1.1c-1.1,1.2-2.2,3-2.8,4.5
			c-1,2.1-1.1,4.3-1.6,6.6c-0.6,2.2-2.2,4.9-3.7,6.6c1.2,0,2.2-0.4,3.1-1.2c0.2,0.5,0.3,1.1,0.2,1.6c2.3-0.6,1.5,3.5,2.7,5
			c1.7,2.1,2.1,3.4,1.2,6c-0.5,1.3-1.3,4.2,0.5,4.8c2,0.8,1,3.2,3,3.7c0.8,0.2,1.7-0.3,2.5-0.4c1.3-0.1,2.6,0.8,3.9,0.6
			c1.2-0.1,2.2-1,3.4-0.9c1.1,0,1.9,1.1,2.9,1.3c0.8,0.2,1.5-0.5,2.2,0.1c0.9,0.8,1.5,2.3,2.2,3.2c0.6,0.9,1.2,1.8,1.8,2.8
			c0.7,1.2,1,0.9,2.1,1.2c1.6,0.5,3.1-0.8,5.1,0c0.6,0.3,2-0.4,2.7-0.5c1.5,0,2.8,0.1,4.1-0.7c1.5-0.9,4,0.9,3.2,2.5
			c-0.4,0.9-1.5,1.6-1.7,2.6c-0.2,1.2,0.3,1.9-0.9,2.7c-1.6,1.1-0.9,5.4-1.1,7.1c-0.2,2.1,0.7,4.3,1.1,6.5c0.3,1.6,3.4,3.8,2.9,5.5
			c-0.6,2.1-4.5,2.9-4.4,5.3c1.4-1.1,4.9,2.8,5.3,4c-0.1,0.3-0.2,0.6-0.2,1c0.2,0.6,0.8,1.2,0.8,1.8c0,1.3,0.8,2.7,1.1,4.1
			c0.3,1,1.4,3.7,0,3.8c-1.3,0.2-1-1.2-0.9-2c0.2-1.3-1.3-7.1-3.1-6.5c-1,0.4-3.9,5.5-4.7,2.5c-0.3-1.1-1.7-1.6-1.6,0
			c0.2,1.8-2.1,1.2-3.4,1.2c-1.9,0-3.7,0-5.6,0c-1.2,0-2.6-0.7-3.8-0.2c-1.8,0.8-0.4,4.8-0.6,6.3c1.5-1,4.9-0.1,5.5,1.5
			c0.2,0.6,0.4,2.6-0.8,2.5c-0.7-0.1-1.1-1-1.9-0.9c-1.7,0.3-4.6,0.8-4.7,2.7c-0.1,2.4-0.4,5.7,1.7,7.3c1,0.8,2.2,1.5,2.2,2.9
			c-0.1,1.4,0.7,2,1.2,3.2c1.3,2.7-0.4,6.5-0.8,9.2c-0.9,6.7-0.8,14-2.8,20.5c-0.5-1.2-1.5-2.4-2.4-3.3c-1-1.1-2.2,0-3.4-0.7
			c-1.1-0.6,1.7-4.9,2.1-5.5c0.7-1.2,3.2-3.8,2-5c-0.5-0.5-1.4-1.9-2.1-1.6c-1.3,0.5-2.4-1.5-3.3-2c-1.5-0.9-1.7-0.2-3.1,0.5
			c-1.3,0.7-2.7-0.5-3.8-1.2c-1.2-0.8-3.4,1.8-4.8,2.3c-0.9,0.3-2.5-0.2-3.6,0c-1.5,0.2-2.2-0.1-3.4-1c-0.9-0.7,0-2.5-0.4-3.6
			c-0.5-1.5-2.8-0.7-3.1-2.2c-0.2-1.1-0.4-2.3-0.8-3.3c-0.4-1-2-0.8-2.7-1.7c-0.7-1-1.2-1-2.1-1.3c-1.2-0.4-1.6-2.2-1.7-3.3
			c-0.2-2-4.2-5.1-6.1-5.6c-0.4-0.1-0.7-0.8-1.1-0.2c-0.3,0.6-0.3,0.8-1.1,0.5c-1.1-0.5-2.8-1.1-3.8-1.8c-0.7-0.6-4.4-5-4.8-1.9
			c-0.2,1.6-5.8-0.3-7.1-0.5c-2-0.4-0.5-2-2-2.7c-1.3-0.6-0.7-1.7-2.4-1.7c-1.3,0-3.7-1.8-4.6-2.6C39.9,110.3,38.3,108.9,37.1,107.2
			"/>
		<g id="g4690">
			<path id="path3582" inkscape:connector-curvature="0" class="st0" d="M46,98.1c0.5-0.3,0.4-0.6-0.5-0.8
				C45.7,97.6,45.9,97.8,46,98.1"/>
			<path id="path3584" inkscape:connector-curvature="0" class="st0" d="M48.4,92.7c-0.3,0.2-0.5,0.5-0.7,0.8
				C48.5,93.7,48.8,93.5,48.4,92.7"/>
			<path id="path3586" inkscape:connector-curvature="0" class="st0" d="M49.1,83.2c0.2,0.3,0.4,0.6,0.7,0.8
				C49.6,83.8,49.4,83.5,49.1,83.2"/>
			<path id="path3588" inkscape:connector-curvature="0" class="st0" d="M50.6,74.2c0.1-0.3,0.1-0.6,0.2-0.8
				C50.7,73.6,50.6,73.9,50.6,74.2"/>
			<path id="path3788" inkscape:connector-curvature="0" class="st0" d="M43.7,98.6c-0.2-0.3-0.3-0.6-0.4-0.9
				C43.8,97.7,44.3,98.2,43.7,98.6"/>
			<path id="path3790" inkscape:connector-curvature="0" class="st0" d="M43.7,98.6C43.9,98.8,43.8,98.7,43.7,98.6"/>
			<path id="path3794" inkscape:connector-curvature="0" class="st0" d="M46.7,97.9c-0.2-0.3-0.5-0.5-0.7-0.8
				C46.5,97.2,46.5,97.4,46.7,97.9"/>
			<path id="path3802" inkscape:connector-curvature="0" class="st0" d="M50.2,81.9c0.3,0.2,0.6,0.4,0.8,0.6c-0.5,0.3-1,0.4-1.6,0.2
				C49.6,82.4,49.9,82.1,50.2,81.9"/>
			<path id="path3804" inkscape:connector-curvature="0" class="st0" d="M50.7,82.2c0.1,0.1,0.2,0.2,0.3,0.2
				C50.8,82.5,50.7,82.4,50.7,82.2"/>
		</g>
		<path id="path5692" inkscape:connector-curvature="0" class="st0" d="M78,20.5c0.2-0.1,0.4-0.2,0.6-0.2
			C78.4,20.3,78.2,20.4,78,20.5"/>
	</g>
	<g id="Argentina">
		<path id="path4454" inkscape:connector-curvature="0" class="st0" d="M134.5,391.9c0.1-0.8,1-1,1.2-1.7c0.2-1-0.3-2.4-0.3-3.5
			c0.1-3,1.8-4.2,2.9-6.7c0.7-1.6,0.7-3.3,1.1-5c0.2-0.8,0.4-1.8,0.9-2.5s1.4-0.1,2.1-0.5c3.2-1.5-0.1-3.4-1.2-5.1
			c-1.2-1.9,0.9-3.1,0.3-4.9c-0.5-1.3-4.3-8.1-1-8.2c-0.3-0.8-2.1-2.8-1.8-3.6c0.6-1.9,1.8-3.3,3.7-4.1c1.6-0.7,4.2-1.4,5-3.1
			c0.8-1.8,0.6-4.2,1-6.1c0.1-0.8,0.6-2,0.3-2.7c-0.2-0.5-1.6-1.3-1.4-1.9c0.1-0.6,1.3-2.6,1.8-2.8c1.4-0.6,0.8-2.1,2.1-2.7
			c2.2-1.1,2.3-1.3,2.5-3.9c1.7,0.3,2.6,2.1,4.2,2.8c1.8,0.8,3.9-0.2,5.8,0.1c4.4,0.7,4.3,4.1,6.5,7.2c0.1-1.4,0.1-2.8,0.7-4.1
			c0.3-0.7,0.8-3.3,1.6-3.6c0.6-0.2,1.6-0.1,2.3-0.3c1.2-0.3,2.6-0.1,3.9-0.1c0.7,0,2.4-0.4,2.6,0.4c0.3,1.1,2.6,2.5,3.4,3.3
			c1,1,1.6,1.1,2.2,2.3c0.5,1,1.1,1.9,1.7,2.8c1.5,2,4.1,3.4,6.1,4.8c1.2,0.8,1.7,2,2.8,2.9c1,0.8,2.3,0.8,3.5,1.2
			c1.5,0.6,2.5,1,4.2,1c1.3,0,2.2,1.2,3.3,1.7c2.8,1.4,4.9,4.1,7.9,5.1c0.9,0.3,2,0.4,2.7,1c1,1,1.5,0.4,2.6,1
			c1,0.6,2.4,0.7,3.2,1.7c0.5,0.7,1.2,1.3,1.7,2c1.1,1.4-1,2.8-1.2,4.4c-0.4,2.4-2.5,3-2,5.8c0.5,2.6-1.5,3.4-2,5.5
			c-0.3,1.1-0.7,0.7-0.1,2c1.6-0.6,3.2-0.6,4.9-0.3c2.9,0.6,5.6,2.3,8.4,1.3c0.9-0.3,1.3,1.1,2.2,0.4c0.9-0.6,1.8,0.8,2.5,1.1
			c0.5-1,0.6-2.5,2-2.7c1.1-0.2,1.6,1.1,2.6,1c1.5-0.2,1.3-2,1.6-3c0.4-1.1,2.8-1,2.7-1.7c0-0.2,1.4-2.3,1.6-2.2
			c1.1,0.2,0.9-2.3,1-3.2c0.3-1.7,0.2-3.6-0.2-5.4c-0.5-1.7,0.6-1.2,1.6-0.5c0.2-1.4,2.1-1.3,3-0.9c1.7,0.6,2,2.3,2.6,3.9
			c0.8,2.1,1,3.3,1.1,5.6c0,1.2,0.3,2.3,0.2,3.5c-0.1,0.6-0.2,1.2-0.3,1.8c-0.4-0.1-0.7-0.1-1.1,0.1c-1.3,0.7-2.1,1.7-3.5,2.2
			c-0.7,0.3-3,1.1-3.1,2c-0.1,1.4-1.7,1.5-2.6,2.1c-0.6,0.4-0.7,1.1-1.1,1.6c-0.7,0.7-1.6,1.2-2.2,1.9c0.6,0.2,0.9,0.8,0.6,1.4
			c-1.4-1.5-4.2,4.3-5,5.5c-1.4,2-1.7,6-4.3,7c-1.2,0.5-1.1,2-1.6,3c-0.3,0.5-0.8,0.8-1.3,0.9c0.3,0.8,0,1.4-0.6,1.9
			c-1.7,1.5,0.1,2,0.3,3.7c0.1,0.8-0.6,0.7-0.6,1.3c0,0.8,0.4,1.5,0.5,2.2c0.1,0.7-0.1,1.6-0.4,2.2c-0.7,1.4,0.7,0.5,0.6,1.8
			c-0.1,1.7-1.1,2-0.8,3.8c0.3,1.6,1.2,2.1,0.7,3.7c-0.5,1.4,0.5,3.2,1.2,4.4c1.2,2.1-1.5,1.3-1.4,2.5c0.1,1.6-0.8,3.2-0.1,4.7
			c0.4,0.9,3.7,5.7,1.1,5.5c1.2,1,1.3,2.3,2.8,3.2c1.6,1,3.2,1.8,4.9,2.5c2.8,1.3,6.6,3.4,5.1,6.9c-1.1,2.5,2.2,7.4,5.1,6.2
			c1.2-0.5,1.7,3,1.9,3.6c0.7,1.9-0.5,4-1.3,5.6c-0.7,1.5-2.5,3.7-2.6,5.4c-0.1,1.8,0.1,2.3-1.5,3.5c-3,2.1-6.5,3.3-10.1,4
			c-4.3,0.9-8.5,2.1-13,2.3c-1.7,0.1-3.2,0-4.8-0.1c-1.9-0.2-3.2-1.4-5.1-1.6c0.3,0.5,0.6,0.9,1,1.3c0.5,0.4,0,1.4,0.2,1.9
			c0.2,0.3,3.7,2.9,1.4,2c1,0.7,1.5,1.3,1.7,2.5c0.2,0.9,0.3,2.4-1.1,1.7c0.2,0.9,0.5,1.9,0.4,2.8c0,0.8-0.8,1.4-0.2,2.1
			c0.4,0.5,1,0.9,1.5,1.3c0.7,0.7,0.4,1.7,1.4,1.2c-0.6,3.8-4.5,4.3-7.6,4.6c-4.2,0.4-7.7-2.5-11.8-3.1c1.7-0.3-0.1-1-0.6-0.7
			c-0.7,0.4-1.2,1.3-1.2,2.1c-0.1,2.3,2.7,3.9,3.1,6.1c0.3,1.8,0.4,4,2.4,4.8c1,0.4,3.8,0.6,3,2.3c0.4,0.1,4.4,0.5,4.1-0.5
			c-0.2-0.8-2-0.9-2.7-1.2c1.3,0.2,2-1.2,3.2-1.2c1.3-0.1,2.6,1.7,2.8,2.8c0.2,1,1.5,2.5,0.8,3.5c-0.5,0.7-2.3,0.9-3.1,0.8
			c-1.3-0.2-1.1-1.6-1.7-2.3c-1-1-2.5-1.5-3.8-0.6c-3.4,2.3,2.2,4.1,4.2,3.6c-0.2,1.1-1.3,1.4-2.2,1.8c-1.7,0.7-1.6,1.5-2.3,3
			c-0.7,1.6-0.8,2.1,0.3,3.6c0.4,0.5,0.9,1.1,1,1.8c-0.1,0.4-0.1,0.9,0,1.4c0.5,0.4,0.7,0.9,0.7,1.6c-0.1,0.3,0.1,1.3-0.3,1.4
			c-0.6,0.2-1.4,0.4-1.5,1.2c-0.1,1.3,1.8,1.5,1.6,2.5c-0.2,1.1-7.9-0.5-6.2,2.3c-3.3-0.7-4.2,3.3-4.6,5.7c-0.8,4,1.9,5.6,4.9,7.7
			c1.5,1,2.8,2.3,4.4,3.1c2.1,0.9,4.7-0.3,6.7,0.9c2.8,1.7,3.2,7.2-1.1,6.7c0.8,0.3,1.4-0.4,2.2-0.5c1.2-0.1,1.6,0.7,2.3,1.5
			c-0.7,0.1-0.9,0.5-0.5,1.1c-1.3-0.3-3.8,3-4.6,3.8c-1,1-1.8,2-2.6,3.2c-0.5,0.8-1,1.3-1,2.4c0,0.8,0.1,1.6-0.6,2.2
			c0.6,0.1,1.1-0.2,1.2-0.9c0.1,2.3,2.6,6.2-0.8,7.3c-2.5,0.8-3.3-3-5.5-3.4c0.6,0.2,2,1.3,1.5,2.1c-0.4,0.6-1.8,0.1-2.4,0.5
			c2.1-0.9,3,0.5,4.8,0.9c-0.2,1.4-2.5,1.3-3,2.9c-0.7,2.1,0.8,3.5-0.4,5.6c1.6-1.9,3.8,2.3,4.4,3.4c0.9,1.7-2.7,0.7-3.5,1.4
			c0.9-0.3,3.1,0.6,3.5,0.3c1.3-0.7,2.2,1,3.2,1.7c1.9,1.5,3.9,2.6,4.7,4.7c-0.5-0.8-1.5-0.7-2.3-0.8c-1.4-0.1-2.6-0.9-3.9-1.3
			c-3.3-1-6.8-1.4-10.3-1.4c-1.5,0-3,0-4.5,0c-1.3,0-4,0.5-5.1-0.2c-1.7-1.1-3.2-3.5-5.4-3.7c0.7-1,0.1-2.7-0.8-3.4
			c-1.2-0.9-0.3-2-0.9-3c-0.4-0.6-1.6-2.3-2.6-1.9c-0.8,0.3-1.4-0.1-2.2,0c-0.6,0.1-0.9,0.8-1.3,1.1c-1,0.6-2.4-2.1-2.8-2.7
			c-0.6-1.3-3.2-2.1-3.4-3.4c-0.1-0.7-0.5-0.7-0.8-1.3c-0.2-0.4,0-1-0.2-1.5c-0.3-0.7-1.1-0.9-1.3-1.6c-0.3-0.8,0-1.6-0.2-2.4
			c1.3,0.2,1.4-0.5,1.7-1.5c0.2-0.6-0.2-1,0.3-1.5c0.4-0.4,1.2-0.1,1.6-0.6c0.8-1-0.1-2.5-0.7-3.4c-0.7-1,1.2-1,1.3-1.8
			c0.1-0.9-1.2-2-1.8-2.4c-1.3-0.9-1.5-1.5-1.5-3c0-1.1,0.3-4.8,2.1-4.5c-0.4-0.8-1.4-0.9-1.4-1.8c0-0.6-0.6-1-0.3-1.6
			c0.2-0.4,0.6-0.6,0.8-1c0.8-1.7-2-4.3-3.2-5.2c1,0,1.7-2,0.5-2.4c-0.8-0.2-2.1-2.1-1.3-2.9c0.7-0.7,1-0.2,1.5-1.3
			c0.4-0.9,0.6-1-0.2-1.8c-0.7-0.7-1.5-1.4-2.4-2c-1.2-0.8-2.9,0-3.9-1.1c-0.9-1,5-0.6,5.5-1.2c-0.3,0.4,0-2,0.1-1.6
			c-0.9-2.5-5,0.1-6-2.4c-0.3-0.4-0.5-0.8-0.7-1.2c-0.2-0.7,0.9-1.3,0.4-1.9c-0.6-0.8-2-1.3-1.2-2.2c1-1.1-3.9-2-2.1-3.6
			c0.9-0.8-0.2-1.5-1.1-1.7c-1.6-0.3-2.3-0.9-2.8-2.5c-0.4-1.2-0.4-2.7-0.9-3.8c-0.3-0.9-1.6-1.6-0.4-2.5c0.8-0.5,2.1-0.1,1.1-1.4
			c-0.8-1.1-2.6-2.7-2.5-4.2c0.3-2.6-2.4-5.1-2.9-7.4c-0.2-1-0.1-2.2,0.3-3.1c0.7-1.4-1.3-1.7-1.5-2.9c1.8,0.6,0.6-2,0.1-2.6
			c-1.1-1.2-0.8-1.8,0.7-1.9c-0.9-0.9-0.5-3.6-0.9-4.8c-0.7-1.9,1.3-2.3,2.5-3.4c1.3-1.2-1.5-3-1.9-4.5c-0.5-1.8-3.3-4-3-5.8
			c0.2-1.2-1-4.1-1.6-5.3c-0.6-1.2-0.9-4,0.1-5c0.5-0.6,1,0,1.3-0.7c0.2-0.5,0.2-1.3,0.6-1.7c0.3-0.4,1.2-0.6,1.2-1.1
			c0.1-1.3-0.3-2.6-0.8-3.7c-0.4-1-0.9-1.9-1.4-2.8c-0.1-0.2-1.1-0.9-1.1-1c0-0.8,1-0.5,1.1-1.4c0.1-0.9-0.1-1.9-0.2-2.8
			c-0.1-0.9,0.1-5.1,1.5-4.9c1.3,0.2-0.6-3.1-0.7-3.4c-0.5-1.2,0.1-5.5-1.3-6c-0.8-0.3-0.3,1.1-1.5-0.3c-0.8-1-0.6-1.5-0.4-2.7
			c0.1-0.9-0.5-1.2-1.1-1.7c-0.8-0.6-0.5-1.1-0.8-2c-0.6-1.8-2.4-2.9-2.9-4.7c1.7,0.8-0.2-1.6-0.8-1.9c-1.6-0.8-2.1-3.4-2.2-4.9
			c-0.1-1.9,1.4-1.2,1-3.2c-0.3-1.5,1.2-4.2,0.1-5.4c2.6,1.7,1.6-2.7,1.3-3.7C136.1,396.9,133.7,393.2,134.5,391.9"/>
		<path id="path4136" inkscape:connector-curvature="0" class="st0" d="M218.5,482.3c0.1-0.5-0.1-0.6-0.8-0.2
			C218,482.1,218.3,482.2,218.5,482.3"/>
		<path id="path4138" inkscape:connector-curvature="0" class="st0" d="M219.8,483.9c0.1-0.9-0.9-1.4-1.6-0.9
			C218.7,483.4,219.3,483.7,219.8,483.9"/>
	</g>
	<g id="Suriname">
		<path id="path4608" inkscape:connector-curvature="0" class="st0" d="M210.4,88.9c-0.9-0.5-2.7-3.7-2.7-4.7c0-1.5,2.6-4.4,1.9-5.8
			c-1.3-2.6,2.1-2.7,3.8-2.8c1-0.1,2.3-2.3,0.6-2.8c1.7-2.1,1-6.6,4.8-6.1c1.2,0.2,7.5,0.7,6.9,2.8c0.8-1.6-0.5-2.8,2.2-2.8
			c1,0,4.1-0.1,4.1,1.4c0.5-0.6,1.5-0.3,2.2-0.3c-0.2-0.1-2.3-0.9-2-1.1c1.4-1,5.1,0.5,6.6,0.8c2.7,0.4,2.5,2.3,1.4,4.3
			c-1.3,2.1-3,3.4-2.9,6.1c0.1,2.4-0.2,5.2,1,7.4c0.9,1.7,3.2,3.2,2,5.4c-0.4,0.8-1.1,1.3-1.3,2.2c-0.2,0.8,0.2,1.7,0,2.6
			c-0.4,1.7-1.6,3.6-2.8,4.9c-0.4,0.4-3-1.2-3.3-1.6c-1-1.3-3.2,0.3-4.7,0.5c-1.2,0.2-1.4,0.5-2.5-0.1c-1.1-0.6-0.9,0-1.5,0.7
			c-1.6,1.7,0.4,1.6,0.7,3.5c0.4,2.4-3.5,1.1-4.4,0.5c-0.7-0.4-1.8-0.5-2.3-1.1c-0.6-0.7-0.8-1.6-1.1-2.3c-0.7-1.5-2.7-3.9-2.7-5.5
			c0-0.6-0.2-4-1-4.1c-0.6-0.1-1.5,0.7-2,0.1C210.8,90.2,211.1,89.4,210.4,88.9"/>
	</g>
	<g id="Ecuador">
		<path id="path6721" inkscape:connector-curvature="0" class="st0" d="M20.7,142.1c1.6,0.5,1.7-1.9,1.6-2.9
			c-0.1-0.8-0.4-1.4-0.7-2.1c-0.5-1.3,0.9-2.2,0.4-3.4c-0.5-1.3-2-3.1,0.4-3.3c1-0.1,1.4-0.5,1.6-1.5c0.3-1.3,0.9-1,2-1.2
			c-1.8-0.2-2-2.5-0.9-3.6c1.6-1.6,2.7-2.8,2.9-5.3c0-0.7-1-3.9-0.3-4.3c0.7-0.4,3.6-2.6,3.6-0.5c-0.5-1.3,1.1-1.8,2-2.2
			c1-0.3,3-1.6,3.2-0.4c0.4-1,0.8-2.1,1.5-2.9c2.2,2,5.5,5.6,8.7,5.6c1,0,1,1.2,2,1.5c1.3,0.4,0.2,3,2.4,2.9c1.7,0,3,0.8,4.7,0.8
			c0.6,0,1.8,0.7,2.1-0.3c0.1-0.3-0.5-0.6-0.1-0.9c1.6-0.8,2.8,0.6,3.8,1.7c1.4,1.7,3.4,1.8,5.1,2.9c-0.9,0.2-1.8,0.1-2.8-0.1
			c-0.1,0.6,1.9,2.6,2.3,3.1c1.1,1.5,0.3,3.1,1.1,4.9c-0.6,0.1-1.1-0.1-1.5-0.5c-1.1,6.1-4.7,11.5-9.9,15.1
			c-2.5,1.7-5.7,2.2-8.4,3.4c-1.4,0.6-2.2,1.5-3.1,2.7c-0.3,0.3-0.6,0.7-0.9,1.1c-0.2,0.6,0.2,1-0.3,1.6c-0.5-2.5-1.6,2.3-1.7,2.6
			c-0.8,1.5-1.7,3.6-1.6,5.3c0.1,2.1-1.4,2-1.9,3.6c-0.5,1.7-0.4,2-2,1.9c-1.9-0.1-2.4-2.2-3-3.6c-0.8-1.8-1.6-0.4-2.8-1.1
			c-0.8-0.5-1.7-2.2-2.8-1.1c-1.4,1.4-2.9,1-1.4-1c-1.1-0.2-1.3-1.6-0.5-2.2c0.5-0.4,1.3-0.1,1.9-0.6c0.8-0.7-0.4-4.8-1.3-5.2
			c1.2-0.6,2.2-0.3,2.9-1.7c0.6-1.2,0.8-2.6,1.2-3.8c0.5-1.6,0.5-1.6,0-3.1c-0.5-1.4-0.7-2.8,0.3-4c-1.7,0.8-0.6,2.7-0.9,4.2
			c-0.4,2.3-2,0.3-0.3,0.1c-0.8-0.1-0.9-0.8-0.6-1.4c-0.6,0.6-2.5,2.9-2.1,3.8c-1.3-0.9-2.2-2.2-3.5-3
			C22,143.6,20.9,143.3,20.7,142.1"/>
		<g id="EcuadorIslands">
			<path id="path4732" inkscape:connector-curvature="0" class="st0" d="M29.8,146.2c0.3-0.5,0.3-1-0.1-1.5
				C29.5,145.2,29.5,145.7,29.8,146.2"/>
			<path id="path4734" inkscape:connector-curvature="0" class="st0" d="M30.2,144.9c-0.1-0.3-0.2-0.5-0.4-0.8
				C29.9,144.4,30,144.7,30.2,144.9"/>
			<path id="path5302" inkscape:connector-curvature="0" class="st0" d="M31.2,113.5c0.1,0.2,0.2,0.3,0.2,0.5
				C31.3,113.9,31.3,113.7,31.2,113.5"/>
			<path id="path6533" inkscape:connector-curvature="0" class="st0" d="M28.5,146.5c-0.9,0.1-1.7,0.7-2.1,1.5
				c-0.1,0.3,0.1,2.3,0.8,1.8c0.2-0.2,0.6-1.2,0.6-1.5c0-0.4,1.2-0.9,1.5-1.4C29.1,146.8,28.8,146.6,28.5,146.5"/>
		</g>
	</g>
	<path id="path4806" inkscape:connector-curvature="0" class="st0" d="M233.1,423c-0.1-0.3-0.2-0.6-0.3-0.8
		C232.9,422.4,233,422.7,233.1,423"/>
	<g id="FalklandIslands">
		<path id="path4810" inkscape:connector-curvature="0" class="st0" d="M266.8,599c0.5-0.1,0.6-0.4,0.4-0.8c-0.7-1-1,1.1-1-0.8
			C264.6,597.6,266.2,598.7,266.8,599"/>
		<path id="path4812" inkscape:connector-curvature="0" class="st0" d="M271.7,594c0.1,0.2,0.2,0.4,0.3,0.6c-1.7,0.7-3.1-1-4.8-0.8
			c0.8,0.7,1.5,0.4,2,1.3c0.5,0.7,2.3,1.3,3,1.5c-1.3-0.4-2.4,0-3.7,0.3c0.9,1.3,2.1-0.8,3.1,0.4c-0.6-0.2-0.9,0.1-0.8,0.8
			c-0.2-0.3-0.4-0.6-0.6-0.8c0,0.8-1,2.2,0.5,1.3c-0.5,1.2-2.9,1-3.8,1.3c0.4,0.2,3.8,1.7,1.7,0.4c0.5-0.1,1.9,1.6,2.2,1
			c0.5-0.9,2-0.5,1.4-2c2.1,0.7,2.9-1.7,3.9-3.1c0.3-0.5,0.8-1.1,0.8-1.7c0.1-0.7-1.6-1.5-1.3,0.1C274.7,594,272.7,593.5,271.7,594"
			/>
		<path id="path4814" inkscape:connector-curvature="0" class="st0" d="M269.6,593.7c0.4,0.2,0.9,0.3,1.3,0.1
			c-0.2-0.6-0.7-0.9-1.3-0.7c0.3,0.2,0.6,0.4,0.9,0.6C270.2,593.7,269.9,593.7,269.6,593.7"/>
		<path id="path4816" inkscape:connector-curvature="0" class="st0" d="M271.3,593c0.2,0.2,0.5,0.3,0.8,0.3
			C271.9,593.3,271.6,593.1,271.3,593"/>
		<path id="path4818" inkscape:connector-curvature="0" class="st0" d="M272.6,592.6c0.4,0.7,1.8,0.6,2.4,0.3
			C274.2,592.7,273.4,592.8,272.6,592.6"/>
		<path id="path4820" inkscape:connector-curvature="0" class="st0" d="M276.5,601.5c0.5-0.5-0.2-0.8-0.6-0.8
			C276.1,601,276.3,601.2,276.5,601.5"/>
		<path id="path4822" inkscape:connector-curvature="0" class="st0" d="M276.3,600.3c1.1,0.5,1.8,1.8,3.1,1.7
			c-0.5-0.3-0.8-0.9-0.5-1.5c0.8,0.3,1.5,0.8,2.4,0.8c0-1-1-1.5-1.8-1.8c0.9-0.1,1.5,0.5,2.4,0.5c0.6,0,0.9-0.4,1.5-0.2
			c0-1-2-1.3-2.6-2c1.1,0.7,2.4,0.8,3.6,0.6c0.8-0.1,1.9-1,0.8-1.2c1.2,0.2,2.4-0.1,3.5-0.5c-0.3,0.1-3-1.1-3.3-1.4
			c0.8-0.4,1.6,0.1,2.5-0.1c-0.7-0.6-4.1-2.6-4.2-0.2c0.7,0.1,1.3,0.4,1.7,0.9c-0.9,0-3.7-1.8-1.8-1.5c-0.8-1.5-3.2-1.4-4.6-1.2
			c0.5,0.6,0.1,1.2-0.5,1.5c0.6,0,1,0.4,0.8,1c-0.3-0.1-0.6-0.3-0.8-0.5c0.3,0.9,1.5,1,1.5,2c-1.3-1.5-3.7,1.5-2.8,2.8
			C276.8,600.1,276.6,600.2,276.3,600.3"/>
		<path id="path4824" inkscape:connector-curvature="0" class="st0" d="M284.4,599.4c0.2,0.2,0.5,0.4,0.8,0.5
			C284.9,599.7,284.6,599.6,284.4,599.4"/>
	</g>
	<g id="Paraguay">
		<path id="path5308" inkscape:connector-curvature="0" class="st0" d="M182.7,327.1c0.7-3.1,1.2-6.2,1.5-9.4c0.2-1.7,0-3.3-0.2-5
			c-0.1-1.7,0.8-3.1,1.5-4.5c1-2,0.9-5,3.5-5.4c3.2-0.5,6.5-1.1,9.6-2.1c5.1-1.6,8.7-1.2,13.3,1.4c1.8,1,4.3,2.4,4.5,4.7
			c0.1,1.4,1.2,5.8,2.7,6.2c-1,1.1,0.6,1.5,0.8,2.4c0.2,0.6,0,2.7-0.1,3.4c-0.2,0.5-0.3,1-0.3,1.6c0.1,0.7,0.6,1.4,0.4,2.2
			c-0.3,0.9-0.4,2.1-0.3,3c0.1,0.5,5.6,1.4,6.4,1.4c1.2,0,2.4,0.7,3.6,0.6c1.1-0.1,1.6-2.2,2.8-1.4c1.1,0.8,1.8,1.2,3.2,1.4
			c1,0.1,2.2,0.7,2.4,1.8c0.2,1.2,1.2,1.9,1.3,3.3c0.2,1.8,1.1,3.3,1.3,5c0.2,2,0.7,6,3.4,5.8c1.5-0.1,2.5-1.3,4-1.6
			c1.3-0.3,2.4,1.3,3.3,2c-0.6,0.4-0.6,1-0.3,1.6c0.6,1.2,0,1.9,0.3,3c0.3,1.2-0.1,2.5-0.4,3.7c-0.2,1.1,0.1,2.2-0.5,3.2
			c-1,1.8-0.1,5.7,0.1,7.7c0.1,0.7,0.1,4.5-0.8,4.7c-0.5,0.1-2.1,2-1.9,2.5c0.2,0.4-1.5,0.4-1.8,0.5c-0.5,0.2-0.8,1-1,1.5
			c-0.2,0.4-1.2,3.4-2,2.6c-2-1.9-3.2-0.3-4.2,1.7c-0.6-0.2-1.1-1.2-1.8-1.2c-0.9,0-1.4,0.5-2.2,0c-0.8-0.5-1.4,0.3-2.2,0.4
			c-0.8,0-1.6-0.4-2.3-0.6c-2.5-0.7-5-1.7-7.6-1.5c-1.2,0.1-2,1-2.4-0.5c-0.1-0.3,0.9-2.4,1.2-2.6c2.7-1.7-0.2-6.5,2.3-7.7
			c1.2-0.6,1.4-3,2.1-4.1c1.1-2.1-0.5-3.7-2.3-4.9c-1.4-1-3.4-0.9-4.6-1.9c-0.7-0.6-1.6-0.8-2.5-1c-1.1-0.2-1.9-1.1-2.8-1.6
			c-2.1-1.2-3.9-2.2-5.8-3.8c-2.1-1.7-4.1-1.3-6.4-2.2c-1.5-0.6-4.6-1-5.1-2.8c-0.5-1.8-4.6-3.2-6-4.5c-1.5-1.3-2.4-2.9-3.4-4.5
			C185.9,329.4,183.9,328.8,182.7,327.1"/>
	</g>
	<g id="Guyana">
		<path id="path5694" inkscape:connector-curvature="0" class="st0" d="M181.1,67c1.5-1.7,2.4-2.3,1.9-4.6c-0.4-1.6,0.3-2.4,1.8-2.5
			c0.7-0.1,0-1,1-0.7c1.1,0.3,1.4-0.4,2.3-0.6c0.8-0.2,1.7-0.8,2-1.5c0.3-0.6-0.3-1.8-1.1-1.5c-1.9,0.7-0.7-1-1.6-2.1
			c-0.7-1,0.2-2,0.8-2.7c0.8-1,0.8-0.6,1.9-1.2c1.5-0.8,2.1-2.6,3.5-3.4c1.8-1,0.5-1.6-0.3-3.1c1.3,1.5,2.9,2.4,4.4,3.7
			c-0.7-1.1-2.1-1.3-2.7-2.5c1.8,0.8,3.6,2,4.9,3.4c1.1,1.2,2.4,3.5,3.7,4.2c1.5,0.9,1.8,3.6,1.3,5c-0.4,1.1-0.9,1.8-1.1,3
			c-0.1,1-0.1,2.2-0.8,3c2-0.4,0.5-5.3,3.6-4.2c2.3,0.8,5.2,2.5,5.8,5.2c1.5-1.4,2.6,1.5,2.8,2.6c0.4,1.9-0.4,4.8-1.6,6.3
			c2.1,0.6-0.2,1.6,0.3,2.7c-1.3,0.2-5.7-0.1-5,2.3c0.6,2.1-1.1,3.5-1.4,5.6c-0.2,1.4,1.3,4.2,2.3,5.2c1.1,1,0.4,2.2,1.9,2.4
			c0.3,0,1.2-0.4,1.4,0c0.7,1,0.7,2.3,0.9,3.5c0.3,2.2,2.6,3.9,2.6,6.1c0,2.2,2.5,2.1,3.2,3.4c-2.6,1.7-5.2-1.7-7.7,0.4
			c-0.4,0.3-0.7,0.8-1,1.2c-0.7,0.7-1.6,0.4-2.4,0.7c-1.5,0.5-1.6,1.3-3.4,1.3c-0.6,0-0.9,0.4-1.3,0.8c-0.3,0-0.5,0.1-0.8,0.3
			c0.1,0.3,0.1,0.6,0.1,1c-0.4,0.8-2.6,1.2-3.4,0.9c-0.6-0.2-0.2-0.8-1-0.9c-0.6,0-1.9-0.5-2.2-1.1c-0.4-1.1-1.9-2.7-3.1-2.9
			c0.1-0.3,0.2-0.5,0.3-0.8c-1.1,0.1-1-0.9-0.8-1.6c0.2-1.3-0.1-1.8-0.9-2.7c-1.3-1.5-1.2-4.5-0.8-6.3c0.3-1.4,1.4-2.7,1.4-4.2
			c0-1.3,0.4-1.2,1.1-2.3c0.5-0.7,1.5-1.9,1-2.7c-0.4-0.7-1.3-1.6-1.3-2.3c0-0.7,0.4-1.5-0.5-1.8c-0.6-0.3-2.1-0.3-2.5-0.9
			c-0.3-0.6,0.9-2.3,1-3c0.2-1.1,0.1-2.4-0.8-3.2c-1.3-1.2-3.4,0.7-5-0.1C184.4,72.6,182,68.8,181.1,67"/>
	</g>
	<g id="Uruguay">
		<path id="path5885" inkscape:connector-curvature="0" class="st0" d="M231.6,403.7c0.7-1,2-1.9,1.5-3.2c1,0.7,2.1,1.3,3.3,0.7
			c0.7-0.4,0.7-1.5,1.6-1.6c1.7-0.2,3.3,1.8,4.4,2.8c1.5,1.3,4.2,2.3,4.5,4.5c0.1,0.8-0.1,2.1,1.1,1.8c0.8-0.2,2.2-0.9,1.7-2
			c1.4,0.4,4,4.6,5.1,4.2c1-0.4,1.2,0.4,2.1,1c1.1,0.7,2.2,0.7,3.2,1.7c0.7,0.7,1.3,1.6,2.2,2.2c1.1,0.7,2.5,0.9,3.6,1.8
			c1.9,1.7,2.5,3.8,4.9,5c2.7,1.4,1.4,2.1,0.1,4.2c-0.9,1.5-0.3,5.3,1.2,6.3c0.9,0.6-0.6,4.2-1.2,5.3c-0.5,0.9-2.3,4.7-3.9,3.3
			c0.8,1-1,1.6-1.7,1.9c-1.9,0.8-2.5,0.8-4.6,0.4c-1.6-0.3-3.4-1.2-5-0.4c-0.7,0.3-1.4,0.8-2.2,0.9c-1.2,0.1-1.1-0.7-1.9-1.1
			c-1.3-0.7-3-0.5-4.3-1.2c-1.8-1.1-2.5-2.2-4.7-2.1c-1.5,0.1-2.6,0.7-3.7-0.5c-1.4-1.6-3.6-2.7-4.8-4.5c-0.8-1.3-2.1-6.7-0.2-7.2
			c1.9-0.5,0.5-2.7-0.1-3.7c-0.4-0.7-0.7-1.5-1-2.2c-0.3-0.6,0.6-1.1,0.3-2c-0.3-0.8-1.6-3-1-3.8c1.5-1.7-0.4-2.7,0.2-3.9
			c0.4-0.8-0.1-4.5,0.1-4.6C233.6,406.3,231.9,404.9,231.6,403.7"/>
	</g>
	<g id="Chile">
		<path id="path6393" inkscape:connector-curvature="0" class="st0" d="M116.3,291.1c1.7-1,3.7-0.1,4.4-2.5c0.3-1.1-1.2-2.7-0.3-3.6
			c0.2-0.1,0.4-0.2,0.7-0.1c0.7,0,1.3-1.1,1.7-1.6c0,1.3,1.4,1.9,1.8,3.1c0.4,1.1,1.1,1.6,2.2,1.8c-1.1,1,0.5,3.8,0.9,4.9
			c0.9,2.8,1.5,4.4,3.8,6.3c2.1,1.7,1.2,2.3,0.3,4.4c-0.2,0.4,1.6,1.5,1.6,2.2c0,0.9-1.4,1-2,1.3c1.2,1.1,0.2,2.2,0.9,3.4
			c0.4,0.6,1.3,0.4,1.6,1c0.5,0.8-0.1,0.9,0,1.6c0.3,2.3,3.5,3.4,3.7,6.1c0.3,3.3,2.5,6,3.4,9.1c0.7,2.3,0.7,5.3,4,4.3
			c3.5-1.1,3.7,1.1,3.3,3.9c-0.3,2.2,0.4,5.7-1.5,7.3c-1.9,1.6-5.2,1.2-6.5,3.6c-0.5,0.9-1.7,1.3-1.8,2.4c-0.1,1,1.6,2.7,1.9,3.7
			c-2.4,0.1-0.8,3.9-0.3,5.1c0.4,1,1,1.9,1.3,2.9c0.6,1.6-0.9,1.9-0.8,3.4c0.1,2,3.4,4.2,3,5.9c-0.3,1-2,1.5-2.9,1.1
			c-1-0.5-1.2,2.6-1.4,3.1c-0.7,3-1.7,5.2-3.2,7.8c-1.4,2.2,0.2,4.8-0.6,7.2c-0.4,1.2-1.5,1.3-1.1,2.8c0.4,1.2,1.2,2.3,1.6,3.5
			c0.2,0.7,0.2,1.5,0.4,2.2c0.2,0.7,0.8,0.9,1,1.5c0.4,1.2-1.1,2.5-2.2,1.7c0.9,1-0.2,3-0.2,4.2c0,0.8,0.8,2,0,2.7
			c-0.6,0.5-1,0.4-1.1,1.4c-0.1,1.8,1.2,3.6,2,5.1c0.4,0.7,1.3,0.5,1.8,1.1c0.4,0.6,0.2,1.2-0.6,0.9c0.6,2,2.8,3.3,3.2,5.4
			c0.1,0.8,0.2,1.6,1,2c1.1,0.6,0.2,1.8,0.4,2.7c0.6,2.4,2.9,0.2,2.9,3c0,2.2,0,3.9,1.2,5.8c0.2,0.3,1,2.3-0.1,2
			c-1-0.3-0.9,0.2-0.8,1c0,0.9-0.4,1.8-0.6,2.7c-0.2,1.1,0.1,2.1,0.2,3.2c0,1.1-0.8,0.9-0.9,1.6c-0.2,0.9,0.3,0.5,0.6,1.2
			c1.1,2.1,1.6,4.3,2.5,6.4c0.3,0.7,0,1.1-0.7,1.2c-0.6,0.1-0.7,1.1-0.9,1.6c-0.4,1.1-2.5,0.7-2,2.3c0.3,0.9-0.4,1.8-0.1,2.7
			c0.3,0.9,1,1.7,1.1,2.6c0.2,1.6,0.6,3.1,0.9,4.6c0.3,1.7,2.1,2.7,2.8,4.2c0.5,1,0.6,2.2,1.3,3c0.3,0.4,1.4,1.3,1.1,1.9
			c-0.6,1.5-3.4,1.4-2.9,3.4c0.3,1.3,0.1,4.3,1,5.2c-1.1,0-1.8,0.2-1.1,1.4c0.3,0.5,2.5,3.9,0.3,3.2c0.2,1.2,1.4,1.2,1.7,2.1
			c0.2,0.7-0.5,1.4-0.6,2.1c-0.4,2,1.3,3.3,1.8,5.2c0.5,1.6,0.7,3.6,1.4,5c0.7,1.4,1.8,2.5,2.7,3.9c-0.6,0.6-2,0.3-2.2,1.3
			c-0.2,0.9,1.1,2.3,1.2,3.3c0.1,1.2,0.7,3.6,1.8,4.3c0.9,0.6,3.2,0.2,3.3,1.8c0.1,1.4-2,0.4,0.1,2c0.4,0.3,1,0.8,1.4,1.2
			c0.8,0.9-0.5,0.6-0.2,1.3c0.3,0.6,1.1,0.8,1.5,1.4c0.6,0.9-0.7,1.4-0.3,2.2c0.6,1,0.7,2,1.8,2.2c1.5,0.3,3.5-0.3,4.6,0.9
			c0.3,0.3,0.3,2,0,2.2c-1.1,1-3,0-4.3,0c-2.7,0.1,0.2,1.7,1.4,1.8c2.5,0.2,5.4,2.9,3.5,5.2c-0.2,0.3-0.8-0.1-1.1,0.3
			c-0.4,0.7,0.5,1.7,0.7,2.3c0.1,0.6,1,0.5,1.3,0.9c0.5,0.7-0.3,1.9-1,1.9c1.1,0.8,4.1,3.5,3.2,5.1c-0.4,0.7-1.3,0.9-0.8,1.9
			c0.1,0.3,0,1.3,0.3,1.4c0.6,0.3,1.1,0.6,1.3,1.2c-1.2-0.2-2.2,2.9-2.1,3.8c0.1,1-0.2,2,0.4,2.8c0.6,0.8,3.1,2.4,2.8,3.5
			c-0.2,0.7-1.3,0.6-1.5,1.2c-0.3,1.1,2,2,1.1,3.5c-0.5,0.8-1.8,0.6-2.1,1.5c-0.4,1.1,0.3,2.9-1.7,2.5c0.2,1.1,0.1,2.2,0.8,3.1
			c0.5,0.8,1.4,2.5,1.5,3.4c0.1,1.3,2.6,2.1,3.3,3.1c0.7,1,1.1,2.6,2.2,3.2c0.8,0.4,1-0.1,1.6-0.6c0.7-0.5,1.3-0.2,2.1-0.2
			c1.7,0,1.8-0.3,2.9,1.3c0.7,1.1,0.1,2.6,1.2,3.2c0.9,0.5,1.5,2.6,0.9,3.5c1.6,0.2,4.2,2.3,5.1,3.5c1,1.4,5.7,0.4,7.2,0.4
			c6.3,0,12.2,1.3,18.3,2.8c-1.6,0-3-0.6-4.5-0.9c-2.8-0.5-1.4,1-2.2,2.2c-0.8,1-2.3,0.1-3.2,1c-1.1,1.2-3,1-4.4,1.4
			c0.9,1.2,1,2.8,1.3,4.2c0.3,1.4,1.2,2.2,1.8,3.4c1.8,3.2-2.4,2.1-4.1,1.8c-1.9-0.4-6.3-1.6-7.1-3.7c-0.7-2.1,3.4-0.9,1.7,0.5
			c1,0,0.7-1.2,1.1-1.7c0.3-0.4,2.4,1.5,1.4,2.6c1.7-0.6-1.4-3.2,1.8-3.7c0.5-0.1,0.7-1.6,0.7-2c0-1.1-1.8-0.9-2.4-1.4
			c0,1.1-1.6,2.2-2.4,2.8c-1.3,1-2.5-0.5-3.8,0.3c1-0.2,1.7,0.6,2.4,1.2c-0.6,0.1-1.1,0.1-1.6-0.2c0.2,0.6,0.1,1.1-0.2,1.6
			c1,0.1,1.7,0.8,2.4,1.5c-2.3,0.6-6.3-1.9-7.9-3.4c1.1,0.5,2.8,0.5,4,0.5c-0.2-1-2.6-1.1-2.7-3.1c-0.1-1.2,2.1-1.7,1.7-0.2
			c1.3-0.4,1.5-0.3,2.5-1.4c1-1.1,3.5,0.6,4.8-0.4c-0.9-1.1-6.5-1.9-6.8,0c-0.8-0.3-1.3-0.6-0.1-1.1c-0.7,0-3.6,0.1-3,1.5
			c0.5-0.5,1.1-0.5,1.6-0.1c-0.2,0.6-0.7,1-1.3,1.2c0.4,0.7,1.6,2.3,0.1,2.4c-1,0.1-3.1-1.1-1.2-1.7c-1,0.3-1.7-0.5-2.4-1
			c0.5,0.1,1.1,0.1,1.6,0c-0.3-0.1-0.6-0.3-0.9-0.5c1.1-0.6-0.1-1.9,1.3-1.5c-1.1-0.4-1.1-0.6,0-0.5c-0.5-0.2-1.1-0.2-1.6,0
			c0.6,0.4,0.7,1,0.3,1.6c-0.3-0.5-0.8-0.9-1.4-1c0,0.6-0.3,1.2-0.9,1.5c0.3-0.7,0.1-1-0.7-0.8c1.7-1.4-2.5-4.1-2.8-5.4
			c0.7,0.8,2,1.6,3.2,1.6c0.5,0,2.6-1.8,2,0.3c0.8-0.5,2.3,0.3,1.2-1.1c0.4,1.8-0.7-0.6-0.7-1.5c0.9,0.1,1.7,1,2.4,1.5
			c1.2,1,0.5,1.9-0.3,2.8c0.7-0.5,1.6-0.1,2.4-0.1c-1-0.5-0.3-1.8-1.2-2.3c-0.6-0.3-2.5-1.8-0.8-2c-1-0.8-1.5-2.1-2.7-2.8
			c-1.2-0.7-2.8-0.8-3.9-1.8c-0.2,0.2-0.4,0.5-0.5,0.8c1-0.1,5.7,1.1,5.6,2.5c-0.1,1.1-5-1.4-5.6-1.4c0.5,0.7,1.2,0.5,1.8,1
			c0.6,0.5,0.2,1.4,1.3,1.5c-0.4,0.4-0.7,1-0.8,1.5c-0.7-1.1-1.3-2.3-2.3-3.1c0.8,1.1,2,2.5,2,3.9c-1.2-1-2.7-1.5-3.4-3.1
			c0.5,0.4,1.1,0.8,1.6,1.2c-0.4-0.7-1.7-1.2-1.5-2.2c-0.5,0-1,0.5-1.5,0.4c-0.5-0.1-0.4-0.8-1-1c-0.7-0.1-1.5-1.8-1.6-2.3
			c1.3,0.3,2.2,1.5,3.2,2.3c-1.1-1.2-1.7-2.7-2.9-3.8c1.7,1.5,0.4-0.4-0.4-0.5c-0.1,0.3-0.2,0.5-0.2,0.8c-0.6-0.2-1.2-0.5-1.7-0.9
			c1.1,1.7-1.5-1.1-1.9-1.5c-0.5-0.4,0.7-0.7,0.9-0.7c0.3-0.1,0.7-0.1,1-0.1c1.3,0.1-1.3-1.5,0.7-0.4c-0.7-0.6-0.6-1.8,0.5-1.8
			c-0.9,0-1.9-0.8-1.2-1.8c-0.9,0.8-0.1,2.4-0.6,3.3c-0.7,1.1-3.4-2.6-3.9-2.9c0.6,0.2,1.1,0.5,1.6,0.8c-1.6-1.5,0.1-0.4,0.9-0.5
			c-1-0.9-3.2-0.8-3.6-2.1c0,1.8-2-0.9-3.1-0.9c1.1-2.2,4.6,1.2,6.3,0.9c-1.5-0.4-4.7-1.3-4.9-3.2c1.3-0.1,2.1,1.3,3.5,0.8
			c-0.8,0.1-1-0.6-0.7-1.2c-0.8,1.8-4.5-1-1.8-1.5c-0.6,0.2-2.7-0.5-1.5-1.2c1.6-0.9,2.8,0.8,4.2,1.2c-1-0.6-2.1-1.3-3-1.8
			c-0.4-0.3-1.2-0.4-1.2-1.1c0-0.7,0.8-0.9,1.3-0.5c-0.8-0.4-2.3-3.5-0.6-2.6c-0.6-0.4-1.1-0.3-1.6,0.1c0.4,0.4,0.5,3.5,0.2,4
			c-1.2-1.1-3-3.2-3-5c0-0.4-1.4-1.1-0.7-1.7c0.5-0.4,1.7-0.4,2.2-0.2c-0.2-0.2-4.2-0.6-2.8-1.9c0.6-0.6,2.1,0.2,2.8,0.5
			c-0.6-0.3-0.9-1-0.5-1.6c-0.5,0.1-3.6-0.2-1.6-0.9c-1.9,0.9-2.9-2.6-4.8-2.1c-0.3-2.1,2.8,0.3,3.3,0.8c-0.4-0.5-0.7-1-1.1-1.5
			c1.4-0.2,2.5,0.5,3.8,0.9c0.6,0.2,1.2,0,1.7,0.4c0.7,0.5,1.6,0.2,2.2,0.7c0.3-0.5,0.2-0.9-0.1-1.3c-0.3,1.7-2.9-0.6-3-1.5
			c1,0.8,2.1,0.5,3.2,0.8c-0.4-0.2-0.8-0.2-1.3-0.2c-0.9-0.1-1.3-1-1.9-1.5c-0.6-0.4-1.1-0.2-1.6-0.8c-0.4-0.5-0.1-1.1-0.6-1.6
			c0.7,0.9,0.9,3-0.9,2.6c-1.5-0.4-4.6-0.1-5.7-1.2c0.7-0.2,0.9-0.7,0.5-1.2c1.5-0.4,2.2,1.4,3.5,1.7c-1.2-0.2-0.5-1.4,0.5-1.1
			c-0.2-1.4-1,0-1.8-0.5c-0.6-0.3-0.9-1.1-1.6-1.1c-0.8,0,0.3-3.6,1.6-1.5c-0.2-0.6,0-1,0.7-1c-0.1-0.4-0.2-0.7-0.5-1.1
			c-0.1,1-1.1,1.3-1.5,0.3c0.5-0.2,1-0.3,1.5-0.4c-0.5-0.7-1.6-0.8-2.3-1.3c-1.4-0.9-1.8-1.4-3.5-0.5c0.6-0.2,1.2,0,1.6,0.5
			c-1.3-0.3-2.6-0.6-3.8-1.2c-2.1-1.1-0.6-1.6-1.4-3c-0.7,1.5-3.7,1.7-3.8,3c1.4-2.2,3.6,3.4,0.5,0.9c-2.1-1.6-0.2-5.9,2.3-4.8
			c-0.7-0.1-1-0.6-0.5-1.2c1.3,1,0.6-1.4,1.9,0c-1-0.8,0.4-1.7-0.8-2.5c0.7,2.9-3,0.5-0.8,0.6c-0.8-0.1-1.7-0.3-1.9-1.2
			c1,0.4,2-0.7,3.1-0.4c1,0.2,1.2,1.2,2.1,1.3c-1.4-0.9,0.1-1.3,0.9-1.4c0.9-0.1,0.7,1.1,1.7,1.1c-0.6,0.7,0.6,2.2,0.3,0.5
			c2.3,1-1.1,2.5-2.5,1.9c0.9,0.5,3.7,1,4.8,0.9c-0.6-0.3-0.9-0.8-0.9-1.5c0.7,0.4,1.5,0.6,1.8,1.5c0.3,0.9-0.6,1.6-0.2,2.5
			c1.5-0.2,2-3.9,1.7-5c-0.3,0.8-0.5,1.7-1,2.4c0.1-1.6-2.1-5.7,1.1-5.7c-0.9-0.5-1.8,0.2-2.3,0.9c-0.2-0.7-0.7-1.7-0.5-2.5
			c0.2-0.9,1.2-0.9,1.5-1.8c0.6,0.7,1.4,1,2.2,1.4c1,0.5,1.3-0.6,0.4-0.5c-0.7,0.1-1.1-0.2-1.6-0.6c-1-0.6-2.1-0.1-3-0.6
			c1.7-1.3-2.3-2.6,0.8-2.9c2.3-0.3,3.3-3.4,2.1-5.2c-0.8,1.3-5.7-1.3-5.6-2.6c0.2-0.3,0.5-0.3,0.8,0c-1.4-1.5,1.4-2.5,0.5-3.7
			c-0.3,0.9-1.1,1-1.1-0.1c0-1.3-0.9-0.8-1.4-2c-0.5-1,0-1.4,0.3-2.3c0.1-0.5-0.9-2,0.6-1.7c0-0.9-0.6-1.1-1.1-1.7
			c-0.4-0.5-0.3-1.2-0.6-1.7c-1.2-2,0.3-0.8,1.6-1.1c-1.2-0.2-2.4-1.5-2.8-2.6c1.7-0.6,2.6,0.9,3.4,2.1c-0.2-1.6-1.3-3.2-2.1-4.6
			c-1.6,1.5-3.8-0.7-1.9-1.9c1.2-0.8,2.9-1.4,1.3-2.9c1,4.2-2.3,1.1-4.2,0.7c-1.4-0.3-0.4,1.9-1.2,2.5c-1.2,0.8-5.6-0.5-3.2-1.6
			c-4.2-0.1-4.8-6.7-5.3-9.6c-0.2-1.3-1-4.2-0.5-5.5c0.6-1.3,1.5-0.2,1.2-1.8c-0.2-1.1,0.3-2.2,0-3.4c-0.4-1.7-0.9-2.7-2.1-4.4
			c-1.2-1.8-2.7-3.5-3.4-5.6c-0.4-1.3,0-2.3-1-3.4c-0.7-0.8-1.4-1.5-1.9-2.4c-0.4-0.8,0.2-1.2-0.1-1.7c-0.5-1-1.1-1.7-0.9-2.9
			c0.9,0.7,2.5,1.1,3-0.3c0.6-1.7-1.2-3-0.6-4.7c0,0.6,0.4,0.9,1,0.9c0-0.4-0.1-0.8-0.3-1.2c-0.2-0.8,0.4-1.6,0.4-2.4
			c0-1.6-0.9-2.7,0-4.2c0.8-1.2-0.6-2-0.1-3.4c0.5-1.1,1.3-3,1.5-4.2c0.4-2.8-0.8-5.8-0.7-8.6c0.1-1.5,1.5-2.9,1.4-4.2
			c-0.1-1.2-1-2.6-1.5-3.7c-0.4-0.9,0.2-2.2,0.6-3.1c0.4-0.9-0.3-2.4-0.4-3.3c-0.1-0.7,0.3-1.2-0.2-1.8c-0.5-0.6-1-1.3-1.2-2
			c-0.6-1.7-0.8-3.3-1.5-5c-1.3-3.1-2.8-6.4-3.3-9.8c-0.3-1.7,0.1-1.9,1.2-2.7c0.9-0.7,0-2.1,0.6-3c0.6-0.8-1.3-5.3-2-5.8
			c-0.8-0.7-1.9-2.7-1.3-3.8c0.8-1.5,0.9-2.9,1.4-4.5c0.3-1-0.4-2.9-0.4-4c0-1.9,1.4-3,0.7-4.8c-1.1-2.8,0.4-6.3,0.4-9.3
			c0-2.6-1.6-4.7-1.5-7.2c0.1-1.4,1.6-1.7,1.5-3c-0.1-1.8-1.4-3.6-1.8-5.4c-0.4-1.9-0.1-3.7-0.4-5.6c-0.1-0.9-0.5-1.6-0.2-2.5
			c0.2-0.8,0.5-1.6,0.4-2.4c-0.2-1-1.7-0.4-2-1.5c-0.3-1.2,0.1-2.4,0.2-3.6c1.8,1.6,1.7-3.7,1.7-4.4c-0.1-4.5,0.8-9.7-0.9-13.9
			c-1.8-4.5-0.6-9.5-2.3-14.1c-0.7-1.9-1.5-4.2-1.8-6.2C117.2,294.4,117.8,291.8,116.3,291.1"/>
		<g id="IslandsChile">
			<path id="path4456" inkscape:connector-curvature="0" class="st0" d="M216.5,604.9c1.6,1.4,3.5,2.4,4.7,4.2
				c-1.1-2-3.5,1.5,0.5,1.5c1.5,0,2,1.7,3,2.6c1.2,1.1,3,1.3,4.1,2.3c3,2.6,7.3,3.9,10.8,5.5c1.6,0.7,4,1.7,5.8,1.6
				c0.9,0,1.8-0.2,2.7-0.2c1.3,0.1,1,1.4,0.7,2.4c-1-0.6-2.2,0.4-3.4-0.1c-1.3-0.5-3.1,1.2-4.7,0.8c-1.8-0.4-3.4-0.8-5.3-0.9
				c-2.1-0.1-4.8,0-6.8-0.8c-1.3-0.5-2.1,0.8-3.2-0.8c-1-1.5-1.6-3.4-2.4-5C220.8,613.8,218.4,609.5,216.5,604.9"/>
			<path id="path4808" inkscape:connector-curvature="0" class="st0" d="M253.3,624.8c1-1.3,3.3-0.9,4.8-1.5
				c-1.9-0.5-3.7,0.2-5.5,0.8C252.7,624.5,253,624.7,253.3,624.8"/>
			<path id="path6062" inkscape:connector-curvature="0" class="st0" d="M140.4,507.6c-0.8-0.6-1-0.2-1.3,0.4
				c-0.5,0.7-2-0.8-2.6-0.8c1.3,1.4,0.1,3.2,0.8,4.3c1.1,1.9,1,4.6,1.9,6.4c0.4,0.8-0.5,1.3-0.1,2.2c0.3,0.8,1.4,1.1,2.2,1.3
				c0.7,0.2,1.4,0.4,2.1,0.5c1.4,0.2,0.2-1.9,0.1-2.4c2.2-0.3,0-1.8-0.7-2.5c0.5,0.1,1,0.1,1.5,0c-0.3-0.5-4.5-3.2-2.2-3.2
				c-1.7-1,0.1-1.6,0.9-2.3C141.9,510.5,140.9,509.1,140.4,507.6"/>
			<path id="path6064" inkscape:connector-curvature="0" class="st0" d="M137.5,524.2c0.3-0.2,0.5-0.4,0.8-0.6c-0.5-0.3-1-0.3-1.5,0
				C137,523.7,137.3,524,137.5,524.2"/>
			<path id="path6066" inkscape:connector-curvature="0" class="st0" d="M140,535.8c0.3-0.6-0.1-1-0.8-0.8
				C139.5,535.3,139.8,535.6,140,535.8"/>
			<path id="path6068" inkscape:connector-curvature="0" class="st0" d="M141.4,533.6c-0.1-0.5-0.1-0.6-0.6-0.8
				C140.9,533.1,141.2,533.3,141.4,533.6"/>
			<path id="path6070" inkscape:connector-curvature="0" class="st0" d="M142.5,515c0.1-0.7-0.1-0.7-0.8-0.1
				C142,515,142.3,515,142.5,515"/>
			<path id="path6072" inkscape:connector-curvature="0" class="st0" d="M143.6,514.3c-0.2-0.7-0.9-1.2-1.6-0.9
				C142.6,513.5,143.1,513.8,143.6,514.3"/>
			<path id="path6074" inkscape:connector-curvature="0" class="st0" d="M143.7,533.8c-0.3-0.8-1.1-0.7-1.6-0.2
				C142.7,533.7,143.2,533.7,143.7,533.8"/>
			<path id="path6076" inkscape:connector-curvature="0" class="st0" d="M143.1,528.3c-0.4-0.2-0.3-0.4-0.8-0.2
				C142.6,528.2,142.8,528.2,143.1,528.3"/>
			<path id="path6078" inkscape:connector-curvature="0" class="st0" d="M143.7,532.4c0.4-0.4,0.5-0.8,0.3-1.3
				c-0.4,0.5-1,0.6-1.6,0.4C142.6,532,143,532.4,143.7,532.4"/>
			<path id="path6080" inkscape:connector-curvature="0" class="st0" d="M143.4,528.6c-0.2-0.1-0.5-0.1-0.8-0.1
				C142.9,528.6,143.2,528.6,143.4,528.6"/>
			<path id="path6082" inkscape:connector-curvature="0" class="st0" d="M143.5,530.1c-0.2-0.2-0.5-0.2-0.8-0.1
				C143,530,143.2,530.1,143.5,530.1"/>
			<path id="path6084" inkscape:connector-curvature="0" class="st0" d="M144.4,526.8c-0.1-0.6,0.2-1.1,0.8-1.2
				c-0.9,0.3-1.8-0.2-2.5,0.6C143.4,526.4,143.9,526.5,144.4,526.8"/>
			<path id="path6086" inkscape:connector-curvature="0" class="st0" d="M145,535.2c0.2-0.8-0.8-1.2-1.5-1.2
				C143.9,534.6,144.4,535,145,535.2"/>
			<path id="path6088" inkscape:connector-curvature="0" class="st0" d="M144.2,507.9c0-0.4-0.2-0.7-0.6-0.8
				C143.8,507.4,144,507.7,144.2,507.9"/>
			<path id="path6090" inkscape:connector-curvature="0" class="st0" d="M145.4,518.2c-0.4-0.4-0.9-0.6-1.5-0.5
				C144.4,517.9,144.9,518.1,145.4,518.2"/>
			<path id="path6092" inkscape:connector-curvature="0" class="st0" d="M145.7,534.8c0.8-0.3,1.4-1.1,2.4-1.2c-0.8-0.7-2-1-3-0.7
				C143.4,533.4,144.6,534.5,145.7,534.8"/>
			<path id="path6094" inkscape:connector-curvature="0" class="st0" d="M145.7,530.4c0-0.4,0.2-0.7,0.3-1c-0.6-0.2-1.1-0.3-1.7-0.1
				C144.7,529.8,145.1,530.2,145.7,530.4"/>
			<path id="path6096" inkscape:connector-curvature="0" class="st0" d="M144.4,530.8c0.3,0.1,0.6,0.2,0.8,0.2
				C145,531,144.7,530.9,144.4,530.8"/>
			<path id="path6098" inkscape:connector-curvature="0" class="st0" d="M145.4,542.9c-0.3-0.2-0.5-0.3-0.8-0.4
				C144.9,542.6,145.1,542.8,145.4,542.9"/>
			<path id="path6100" inkscape:connector-curvature="0" class="st0" d="M145.7,527.2c-0.2-0.2-0.5-0.3-0.8-0.2
				C145.1,527.1,145.4,527.2,145.7,527.2"/>
			<path id="path6102" inkscape:connector-curvature="0" class="st0" d="M146.3,532.4c0.1-0.2,0.2-0.5,0.3-0.7
				c-0.5-0.2-1.1-0.3-1.6-0.4C145.2,531.9,145.7,532.3,146.3,532.4"/>
			<path id="path6104" inkscape:connector-curvature="0" class="st0" d="M146.3,529.2c-0.2-0.5-0.5-0.8-0.9-0.9
				C145.3,528.9,145.7,529.3,146.3,529.2"/>
			<path id="path6106" inkscape:connector-curvature="0" class="st0" d="M146.4,531.4c0.5-0.7-0.5-0.7-0.9-0.4
				C145.9,531.1,146.1,531.2,146.4,531.4"/>
			<path id="path6108" inkscape:connector-curvature="0" class="st0" d="M145.9,543.1c0.3,0.1,0.5,0.1,0.8,0.2c0-0.5,0-1-0.1-1.5
				C145.8,541.9,145.5,542.5,145.9,543.1"/>
			<path id="path6110" inkscape:connector-curvature="0" class="st0" d="M145.7,536.4c0.9,0.4,2.1-0.2,3-0.5
				C147.7,535.2,146.3,535.2,145.7,536.4"/>
			<path id="path6112" inkscape:connector-curvature="0" class="st0" d="M147,539.2c0.2-0.7-0.4-1.2-1-1.3
				C146,538.5,146.4,539,147,539.2"/>
			<path id="path6114" inkscape:connector-curvature="0" class="st0" d="M146.9,530.5c0.1-0.8-0.2-0.9-0.8-0.1
				C146.3,530.4,146.6,530.4,146.9,530.5"/>
			<path id="path6116" inkscape:connector-curvature="0" class="st0" d="M146.7,541.8c-0.2-0.3-0.4-0.5-0.6-0.8
				C146.3,541.3,146.5,541.6,146.7,541.8"/>
			<path id="path6118" inkscape:connector-curvature="0" class="st0" d="M146.9,540.1c0.2-0.8-0.1-0.9-0.8-0.3
				C146.4,539.8,146.6,539.9,146.9,540.1"/>
			<path id="path6120" inkscape:connector-curvature="0" class="st0" d="M147.6,528.6c0.3-0.9-0.6-1.4-1.3-1.5
				C146.6,527.6,147.1,528.2,147.6,528.6"/>
			<path id="path6122" inkscape:connector-curvature="0" class="st0" d="M147.2,531.6c0.4-0.5,0.2-0.7-0.5-0.8
				C146.8,531.1,147,531.3,147.2,531.6"/>
			<path id="path6124" inkscape:connector-curvature="0" class="st0" d="M147.4,535.2c0.1-0.3,0.1-0.6,0-0.8
				c-0.3,0.2-0.5,0.4-0.8,0.6C146.9,535.1,147.2,535.1,147.4,535.2"/>
			<path id="path6126" inkscape:connector-curvature="0" class="st0" d="M147.8,543.5c1.1-0.5,1.4-2.7-0.1-2.8
				C146,540.7,147.6,542.9,147.8,543.5"/>
			<path id="path6128" inkscape:connector-curvature="0" class="st0" d="M148.9,536.4c-0.7,0.3-1.4,0.4-2.1,0.7
				c0.2,1.6,3.2,1.5,4.3,1.3C151,537.4,149.9,536.4,148.9,536.4"/>
			<path id="path6130" inkscape:connector-curvature="0" class="st0" d="M149.6,539.7c0.5-0.1,1-0.1,1.5-0.1
				c-0.5-0.9-2.2-1.3-3.1-0.8C148.4,539.2,149,539.6,149.6,539.7"/>
			<path id="path6132" inkscape:connector-curvature="0" class="st0" d="M149.3,536.1c0.5-0.8-0.4-1.6-1.2-1.3
				C148.3,535.3,148.7,535.8,149.3,536.1"/>
			<path id="path6134" inkscape:connector-curvature="0" class="st0" d="M149.2,534.1c0.3-0.1,0.7-0.2,1-0.2
				C149,531.7,147.3,533.5,149.2,534.1"/>
			<path id="path6136" inkscape:connector-curvature="0" class="st0" d="M149,510.6c0.2-0.6-0.1-0.7-0.8-0.4
				C148.4,510.3,148.7,510.4,149,510.6"/>
			<path id="path6138" inkscape:connector-curvature="0" class="st0" d="M153.9,569.8c1.4-1.4-3.4-6.5-5.2-5.5
				c0.3,0.4,1.5,1,1.6,1.5c0.1,0.9,1.2,0.7-0.1,1.3c0.7,0.3,1.6-0.6,1.9,0.2C152.3,568.2,153.1,569.5,153.9,569.8"/>
			<path id="path6140" inkscape:connector-curvature="0" class="st0" d="M149.4,541.7c0.4-0.7,1.3-0.5,1.9-0.2
				C150.9,540.3,148.7,540.3,149.4,541.7"/>
			<path id="path6142" inkscape:connector-curvature="0" class="st0" d="M149.9,535c0.2,0,0.4,0,0.5,0c0-0.7-0.3-1-1-0.8
				C149.6,534.5,149.7,534.7,149.9,535"/>
			<path id="path6144" inkscape:connector-curvature="0" class="st0" d="M150.5,540.4c0.1-0.7-0.2-0.8-0.8-0.2
				C149.9,540.3,150.2,540.4,150.5,540.4"/>
			<path id="path6146" inkscape:connector-curvature="0" class="st0" d="M150.8,527.6c-0.1-0.8-0.2-1.6-1.2-1
				C149.8,527.2,150.2,527.6,150.8,527.6"/>
			<path id="path6148" inkscape:connector-curvature="0" class="st0" d="M151,543.1c1.2-0.7-0.5-1.8-1.4-1.2
				C149.9,542.4,150.4,542.9,151,543.1"/>
			<path id="path6150" inkscape:connector-curvature="0" class="st0" d="M150.6,562.1c0.3-0.5,0.2-0.9-0.3-1.2
				c-0.2,0.2-0.4,0.5-0.5,0.8C150,561.8,150.3,561.9,150.6,562.1"/>
			<path id="path6152" inkscape:connector-curvature="0" class="st0" d="M151,569.8c1.1,0.2,1.7-0.6,1.2-1.5
				c-0.7-1.2-1.4-0.3-2.3-0.1c0.2,0.9,1.2,1,1.9,1.2C151.5,569.5,151.2,569.6,151,569.8"/>
			<path id="path6154" inkscape:connector-curvature="0" class="st0" d="M151.5,544.8c0.1-0.7,0.2-1.8-0.8-1.6
				C150.8,543.8,151.1,544.4,151.5,544.8"/>
			<path id="path6156" inkscape:connector-curvature="0" class="st0" d="M151.3,570.7c0.7-0.2,1.3-0.6,1.8-1.1
				c-0.9-0.3-1.5,0.7-2.5,0.3C150.9,570.2,151.1,570.5,151.3,570.7"/>
			<path id="path6158" inkscape:connector-curvature="0" class="st0" d="M151.6,561.6c0.3-0.8,0.1-1-0.8-0.6
				C151.1,561.2,151.4,561.4,151.6,561.6"/>
			<path id="path6160" inkscape:connector-curvature="0" class="st0" d="M155.6,534.1c-0.2-0.3-0.4-0.6-0.6-0.8
				c1.1-0.3,0.9-1.5-0.2-1.6c-0.4,0-0.7,0-1-0.2c-0.9-0.7-0.7,0.3-1.9-0.3c-0.2,0.7,0.2,1.1,0.8,1.3c-0.5,0.4-1.1,0.6-1.7,0.5
				c0.2,0.8,0.8,1.8,1.8,1.6c-1.7,0.3,0,1,0.7,1.1C154.3,535.9,155.1,534.7,155.6,534.1"/>
			<path id="path6162" inkscape:connector-curvature="0" class="st0" d="M153.6,564.2c0.3-0.8-0.1-1.8-0.8-2.2c-0.3,0.5-0.3,1,0,1.5
				c-0.6-0.5-1.9-0.7-1.6,0.5C151.9,563.1,152.7,564,153.6,564.2"/>
			<path id="path6164" inkscape:connector-curvature="0" class="st0" d="M154.1,567.6c2.4-1.8-1.1-3.2-2.8-2.9
				C152.1,565.8,153,566.8,154.1,567.6"/>
			<path id="path6166" inkscape:connector-curvature="0" class="st0" d="M155,573.3c-0.1-1.3-2.5-2.5-3.5-1.8
				C151.8,573.1,154.3,572,155,573.3"/>
			<path id="path6168" inkscape:connector-curvature="0" class="st0" d="M153.5,564.7c-0.3-0.6-1-0.8-1.6-0.7
				C152.5,564.1,153,564.4,153.5,564.7"/>
			<path id="path6170" inkscape:connector-curvature="0" class="st0" d="M153.6,543.4c0-0.4-0.4-2.9-1.1-2.7
				C150.7,541.4,152.9,542.8,153.6,543.4"/>
			<path id="path6172" inkscape:connector-curvature="0" class="st0" d="M152.6,545.4c0.2-0.5,0.6-0.8,1.1-1
				C152.9,543.5,151.7,544.6,152.6,545.4"/>
			<path id="path6174" inkscape:connector-curvature="0" class="st0" d="M153,573.4c0.1-0.5-0.1-0.6-0.8-0.3
				C152.4,573.2,152.7,573.3,153,573.4"/>
			<path id="path6176" inkscape:connector-curvature="0" class="st0" d="M152.9,543.4c-0.1-0.4-0.3-0.7-0.7-0.9
				C152.4,542.9,152.7,543.1,152.9,543.4"/>
			<path id="path6178" inkscape:connector-curvature="0" class="st0" d="M152.3,539.6c0.3-0.1,0.6-0.1,0.8-0.2
				C152.9,539.5,152.6,539.5,152.3,539.6"/>
			<path id="path6180" inkscape:connector-curvature="0" class="st0" d="M153.4,537.9c-0.2-0.3-0.4-0.6-0.7-0.8
				C153,537.4,153.2,537.6,153.4,537.9"/>
			<path id="path6182" inkscape:connector-curvature="0" class="st0" d="M153,556c0.4-0.2,0.6-0.6,0.5-1
				C152.7,554.9,152.5,555.3,153,556"/>
			<path id="path6184" inkscape:connector-curvature="0" class="st0" d="M154.4,547.4c0.4-1.1-0.6-2.1-1.6-1.2
				C153.4,546.5,154,546.9,154.4,547.4"/>
			<path id="path6186" inkscape:connector-curvature="0" class="st0" d="M153.9,575c-0.2-1,1.6-1.8-0.2-2.4
				C153.9,573.6,151.9,574.7,153.9,575"/>
			<path id="path6188" inkscape:connector-curvature="0" class="st0" d="M154.3,545.8c-0.2-0.5-0.6-0.8-1.1-0.9
				C153.3,545.5,153.7,545.8,154.3,545.8"/>
			<path id="path6190" inkscape:connector-curvature="0" class="st0" d="M155,572.5c0.3-0.1,0.6-0.3,0.8-0.4
				c-0.4-0.8-1.3-1.3-2.2-1.2C154.1,571.4,154.6,572,155,572.5"/>
			<path id="path6192" inkscape:connector-curvature="0" class="st0" d="M154.3,563.9c-0.2-0.3-0.4-0.6-0.6-0.8
				C153.9,563.3,154.1,563.6,154.3,563.9"/>
			<path id="path6194" inkscape:connector-curvature="0" class="st0" d="M155,571.1c0-0.5-0.2-0.9-0.7-1.2
				C153.9,570.6,154.3,571,155,571.1"/>
			<path id="path6196" inkscape:connector-curvature="0" class="st0" d="M157.9,569.8c1.4-0.3-2.6-4.3-3.1-4.9
				c0.1,0.5,0.2,1.1,0.3,1.6c0.2,0.6,0.8,0.9,1,1.5c-0.6-1.4-2.2-0.6-1.4,0.7C155.3,569.7,157,569.4,157.9,569.8"/>
			<path id="path6198" inkscape:connector-curvature="0" class="st0" d="M155.3,577.5c-0.2-0.2-0.5-0.4-0.8-0.5
				C154.7,577.1,155,577.3,155.3,577.5"/>
			<path id="path6200" inkscape:connector-curvature="0" class="st0" d="M161.5,581.5c0.7,0.3,1.7,0.4,2.3,0
				c-0.2-0.2-0.4-0.5-0.6-0.7c1.4,1,0.8-1.4-0.3-1.6c2.1,0.4-0.9-2.3-0.5-0.2c-0.2-1.8-0.3-4.4-1.7-5.7c-0.6-0.5-0.2-1.3-1-1.5
				c-0.5-0.2-1.2-3-1.2-1c-0.8-3.3-3.8,1.4-1.6,0.4c-1.8,0.5-0.1,1.6,0.7,0.8c-0.6,0.7,0.8,2.9,1,3.7c-0.4-0.4-1-0.8-1.5-1
				c1.1,2.2-1.9-0.9,0,1.3c-0.3-0.5-0.9-0.8-1.5-0.7c0.6,0.5,1.1,1,1.5,1.5c-0.8-0.5-1.4-1.3-2.3-1.8c-0.1,1.4,1.4,1.7,2.1,2.7
				c0.7,1.1,1.9,2.6,3.3,2.7c0.1-1-1.1-1.4-1.2-2.4c-0.1-1,0.9-1,1-1.9c0.9,0.1,1.2,1.2-0.2,0.9c0,0.6,0.4,1.1,1,1.2
				c-0.3,0.1-0.6,0.3-0.8,0.5c0.3,0.6,1.1,0.7,1.6,1c1.1,0.7-0.8,1.4,0.9,1.1C162.1,581.1,161.8,581.3,161.5,581.5"/>
			<path id="path6202" inkscape:connector-curvature="0" class="st0" d="M155.4,570.2c0.8-0.5,0.5-0.9-0.4-0.8
				C155.2,569.7,155.3,570,155.4,570.2"/>
			<path id="path6204" inkscape:connector-curvature="0" class="st0" d="M158.9,580.7c-0.6-1.6-2.2-2.4-3.8-2.5c0.2,0.8,1,2,1.9,1.1
				C157.1,580.3,158.4,580,158.9,580.7"/>
			<path id="path6206" inkscape:connector-curvature="0" class="st0" d="M155.4,562.5c0.2-0.4,0.5-0.3,0.2-0.8
				C155.6,561.9,155.5,562.2,155.4,562.5"/>
			<path id="path6208" inkscape:connector-curvature="0" class="st0" d="M157.9,575.1c0.3-1.3-1.9-3.1-2.4-1.7
				C155.4,573.9,157.6,574.8,157.9,575.1"/>
			<path id="path6210" inkscape:connector-curvature="0" class="st0" d="M156.5,574.9c-0.2-0.2-0.4-0.3-0.8-0.3
				C156,574.7,156.2,574.8,156.5,574.9"/>
			<path id="path6212" inkscape:connector-curvature="0" class="st0" d="M157.3,566.6c1.1-0.8-0.3-1.7-1.2-1.6
				C156.5,565.5,156.9,566.1,157.3,566.6"/>
			<path id="path6214" inkscape:connector-curvature="0" class="st0" d="M157.3,563.4c0.9-0.3,2-0.1,2.7-0.8
				c-1.3-0.7-2.6-0.2-3.9-0.3C156.2,562.9,156.7,563.3,157.3,563.4"/>
			<path id="path6216" inkscape:connector-curvature="0" class="st0" d="M159.6,567.8c0.2-0.8-0.9-1.1-1.4-1.5
				C157.7,567.3,159,567.5,159.6,567.8"/>
			<path id="path6218" inkscape:connector-curvature="0" class="st0" d="M161.5,584.2c0.3-0.6,0.7-1.1,1.2-1.5
				c-0.9,0.6-1.7,0.5-1.5-0.6c-0.4,0.2-0.7,0.1-1-0.2c-0.6-0.5-1.4,0.1-2.1,0c0.6,0.5,2.6,0.7,2.5,1.8c-1,0.2-0.9-1.1-1.9-0.9
				c0,0.4,0.1,1.1,0.4,1.4c0.6,0.6,1.9-0.2,1.2,1.1C160.8,585.2,161.3,584.8,161.5,584.2"/>
			<path id="path6220" inkscape:connector-curvature="0" class="st0" d="M161.2,568c-0.3-0.6-0.9-1-1.6-0.8
				C160.1,567.5,160.6,567.8,161.2,568"/>
			<path id="path6222" inkscape:connector-curvature="0" class="st0" d="M161.7,588.6c0.2-0.8-0.4-1.4-0.8-2
				c0.6,0.3,1.1,0.1,1.2-0.6c-0.9,0.2-1.6-0.5-2.4,0.1c0.7,0.3,0.8,0.8,0.2,1.3C160.9,587.4,160.7,588.6,161.7,588.6"/>
			<path id="path6224" inkscape:connector-curvature="0" class="st0" d="M161.8,563.7c-0.1-0.4-0.3-0.7-0.8-0.7
				C161.3,563.2,161.5,563.5,161.8,563.7"/>
			<path id="path6226" inkscape:connector-curvature="0" class="st0" d="M162.3,585.1c-0.2-0.2-0.5-0.2-0.8-0.1
				C161.8,585,162.1,585,162.3,585.1"/>
			<path id="path6228" inkscape:connector-curvature="0" class="st0" d="M163.1,578.1c0.2-0.2,0.5-0.4,0.7-0.5
				c-0.4-0.5-0.9-0.9-1.5-1.1C162.5,577,162.8,577.6,163.1,578.1"/>
			<path id="path6230" inkscape:connector-curvature="0" class="st0" d="M163.1,564.6c-0.2-0.2-0.5-0.3-0.8-0.4
				C162.6,564.3,162.8,564.4,163.1,564.6"/>
			<path id="path6232" inkscape:connector-curvature="0" class="st0" d="M163.9,588.7c0.1-0.7-0.1-1.5-1-1.4
				C162.9,588,163.3,588.5,163.9,588.7"/>
			<path id="path6234" inkscape:connector-curvature="0" class="st0" d="M163.9,582.3c0.3-0.2,0.6-0.4,0.8-0.5
				C164.5,581.9,164.2,582.1,163.9,582.3"/>
			<path id="path6236" inkscape:connector-curvature="0" class="st0" d="M164.4,586c0.3-0.3,0.5-0.7,0.6-1.2
				C164.3,584.9,164,585.4,164.4,586"/>
			<path id="path6238" inkscape:connector-curvature="0" class="st0" d="M166.5,589.4c0-0.6-1.7-2.4-2.3-1.8
				C163.1,588.6,165.9,589.4,166.5,589.4"/>
			<path id="path6240" inkscape:connector-curvature="0" class="st0" d="M167.3,591.4c0.5-0.7,1.3-1.2,2.2-0.8
				c-1.3-0.9-1.4-2.7-3.4-2.5c0.5,0.5,0.9,1,1.2,1.6c-0.8-0.2-1.6-0.3-2.5-0.4c0.1,0.9,1.6,1.9,2.4,1.1
				C167.3,590.9,167.3,591.1,167.3,591.4"/>
			<path id="path6242" inkscape:connector-curvature="0" class="st0" d="M165.6,596c1.1-0.3,0.6-1.9,0.7-2.7
				c-0.6,0.4-1.1,0.2-1.3-0.5C165,593.9,164.9,595.3,165.6,596"/>
			<path id="path6244" inkscape:connector-curvature="0" class="st0" d="M165.5,591.9c0.3-0.1,0.5-0.3,0.8-0.5
				C166,591.6,165.7,591.7,165.5,591.9"/>
			<path id="path6246" inkscape:connector-curvature="0" class="st0" d="M169.8,589c0-0.9-1.3-1.4-1.9-1.7c1.4,0,0.4-0.3-0.1-0.8
				c-0.6-0.6-1.2-1-2.1-0.5c0.7,0.4,0.9,1,1.3,1.6C167.7,588.6,168.8,588.5,169.8,589"/>
			<path id="path6248" inkscape:connector-curvature="0" class="st0" d="M167.1,594.7c0.9-0.3,1.4-1.2,1.6-0.2c0-0.3,0-0.7,0-1
				c0.3,0.2,0.6,0.3,0.8,0.5c-0.8-1.3-1.8-2.7-2.9-0.6C167.3,593.6,167.5,594.1,167.1,594.7"/>
			<path id="path6250" inkscape:connector-curvature="0" class="st0" d="M168.1,598.3c0.9-0.3,0.2-1.3-0.3-1.5
				C167.6,597.4,167.7,597.9,168.1,598.3"/>
			<path id="path6252" inkscape:connector-curvature="0" class="st0" d="M169.8,592.3c0.2-0.9-1-0.9-1.2-1.6
				C167.8,591.6,169.2,592,169.8,592.3"/>
			<path id="path6254" inkscape:connector-curvature="0" class="st0" d="M170.1,600.3c0.5-1,0.3-4.1-1.4-3.8c0.2,0.5,0.5,1,0.8,1.5
				C168.1,597.7,169.3,599.8,170.1,600.3"/>
			<path id="path6256" inkscape:connector-curvature="0" class="st0" d="M170.8,592.4c0.2-0.1,0.4-0.1,0.5-0.1
				c-0.6-0.8-1.2-1.7-2.1-2.2C169.8,590.8,170.3,591.6,170.8,592.4"/>
			<path id="path6258" inkscape:connector-curvature="0" class="st0" d="M170.8,600.5c0.5-0.6,0.8-2.8-0.5-2.4
				C170.3,598.9,170.7,599.7,170.8,600.5"/>
			<path id="path6260" inkscape:connector-curvature="0" class="st0" d="M172.5,602.1c0.8-1-1.1-0.8-1.6-0.9
				C171.5,601.5,172,601.8,172.5,602.1"/>
			<path id="path6262" inkscape:connector-curvature="0" class="st0" d="M172.9,594.4c0-0.8-0.7-1.3-1.5-1.2
				C171.8,593.8,172.3,594.2,172.9,594.4"/>
			<path id="path6264" inkscape:connector-curvature="0" class="st0" d="M171.5,599.9c0.5-0.1,0.9-0.4,1.2-0.8
				C172.1,598.9,171.6,599.2,171.5,599.9"/>
			<path id="path6266" inkscape:connector-curvature="0" class="st0" d="M174.9,598.9c0-1.1-2.4-2.1-3.2-2
				C172.7,597.7,173.7,598.3,174.9,598.9"/>
			<path id="path6268" inkscape:connector-curvature="0" class="st0" d="M171.8,601c0-0.3,0-0.5,0-0.8
				C171.8,600.4,171.8,600.7,171.8,601"/>
			<path id="path6270" inkscape:connector-curvature="0" class="st0" d="M173,593.7c0.2-0.2,0.5-0.3,0.7-0.5
				c-0.3-0.7-0.8-0.9-1.4-0.3C172.5,593.3,172.7,593.5,173,593.7"/>
			<path id="path6272" inkscape:connector-curvature="0" class="st0" d="M175.2,597.5c0.2-0.1,0.4-0.3,0.5-0.4
				c-0.8-0.5-1.3-1.4-2.2-1.8C174,596.6,173.9,597,175.2,597.5"/>
			<path id="path6274" inkscape:connector-curvature="0" class="st0" d="M175,593.7c0-0.6-0.3-1-0.9-1
				C174,593.3,174.4,593.7,175,593.7"/>
			<path id="path6276" inkscape:connector-curvature="0" class="st0" d="M177.1,602.7c0.4-0.1,0.8-0.3,1-0.7
				c-0.9-0.5-2.8-2.6-3.9-1.4c0.9-0.3,1.7,0.4,2.5,0.8C174.7,601,176.6,602.5,177.1,602.7"/>
			<path id="path6278" inkscape:connector-curvature="0" class="st0" d="M186.1,610.9c0.7,0.2,1.4,0.2,2.1,0.1
				c-1.2-0.3-2-1.3-3.2-1.6c2.4,2.3-3.3-2.3-0.8,0.1c-1.7-1.2-3.3-1.3-5.2-1.8c-1.5-0.4-2.7-2-4.4-1.6c2,0.9,3.4,2.2,5.5,2.8
				c1.1,0.3,2.2,0.1,3.2,0.6C184.1,609.8,185,611.3,186.1,610.9"/>
			<path id="path6280" inkscape:connector-curvature="0" class="st0" d="M175.8,600.5c-0.2-0.4-0.3-0.6-0.8-0.4
				C175.3,600.2,175.6,600.4,175.8,600.5"/>
			<path id="path6282" inkscape:connector-curvature="0" class="st0" d="M176.9,597.7c-0.1-0.8-1-1-1.6-1.1
				C175.8,597,176.3,597.3,176.9,597.7"/>
			<path id="path6284" inkscape:connector-curvature="0" class="st0" d="M179.2,601.3c-0.3-1.5-2.6-2.5-3.9-2.6
				C176.2,600,178,600.2,179.2,601.3"/>
			<path id="path6286" inkscape:connector-curvature="0" class="st0" d="M176.8,598.4c-0.3-0.3-0.1-0.6-0.8-0.4
				C176.3,598.2,176.6,598.3,176.8,598.4"/>
			<path id="path6288" inkscape:connector-curvature="0" class="st0" d="M179.1,602.7c0.2-0.1,0.4-0.1,0.5-0.1
				c-0.5-1.1-1.8-1.6-2.9-1.5C177.5,601.6,178.5,602,179.1,602.7"/>
			<path id="path6290" inkscape:connector-curvature="0" class="st0" d="M177.7,599.3c0.5-0.4,0.4-0.7-0.5-0.8
				C177.3,598.8,177.5,599.1,177.7,599.3"/>
			<path id="path6292" inkscape:connector-curvature="0" class="st0" d="M178.2,601.1c0.1-0.6-0.2-0.7-0.9-0.3
				C177.7,600.9,177.9,601,178.2,601.1"/>
			<path id="path6294" inkscape:connector-curvature="0" class="st0" d="M180.1,605.7c1.1-0.6,0.6-2.9-0.8-2.6
				C178.3,603.3,180.1,605.3,180.1,605.7"/>
			<path id="path6296" inkscape:connector-curvature="0" class="st0" d="M181.6,610.3c-0.6,0-0.8-0.1-0.8,0.6
				C181,610.8,181.3,610.6,181.6,610.3"/>
			<path id="path6298" inkscape:connector-curvature="0" class="st0" d="M182.2,609.1c0.2,0.3,0.4,0.5,0.8,0.5
				C182.7,609.5,182.5,609.3,182.2,609.1"/>
			<path id="path6300" inkscape:connector-curvature="0" class="st0" d="M184.7,607.7c-0.2-1.1-1.7-0.9-2.4-0.5
				C183.1,606.9,184,607.2,184.7,607.7"/>
			<path id="path6302" inkscape:connector-curvature="0" class="st0" d="M182.7,599.7c0.6-0.2,1-0.7,0.7-1.4
				C182.8,598.6,182.4,599.1,182.7,599.7"/>
			<path id="path6304" inkscape:connector-curvature="0" class="st0" d="M184.6,613.3c0.2-0.3,0.4-0.5,0.5-0.8
				C184.2,612.3,184,612.5,184.6,613.3"/>
			<path id="path6306" inkscape:connector-curvature="0" class="st0" d="M186.6,611.6c-0.4,0-0.8,0.1-1.2,0.2
				c0.2,0.3,0.4,0.5,0.6,0.8c-0.5-0.2-1.1-0.3-1.6-0.4C185.1,612.3,187.6,613.2,186.6,611.6"/>
			<path id="path6308" inkscape:connector-curvature="0" class="st0" d="M194.1,618.1c0.8-0.6,1.8-1,2.8-1.2c-0.8-0.3-1-1.7,0.2-1.2
				c-0.3-1.6-1.9-0.8-2.5-1.8c-0.5-0.7-1.8-1.4-1.7-0.1c-0.3-0.6-1.5-1.8-1.6-0.3c-0.4-0.6-1.8-2.5-2.8-1.8c0.1,0.3,0.3,0.5,0.5,0.8
				c-0.5-0.1-1.1-0.1-1.6,0c1.1,0.5,2,1.2,3.1,1.4c-1.2,0.1-3.1-1.6-3.9-0.1c0.6-0.2,1,0.1,1,0.8c2-0.9,1.4,0.4,2.2,1.6
				c0.4,0.6,1.2,0.9,1.6,0.1c0.5-1,1.7-1.1,2.8-0.6c-0.3,0.3-0.5,0.5-0.8,0.8c0.3,0.2,0.6,0.4,0.8,0.6c-0.5,0.2-1.1,0.4-1.6,0.5
				C193.1,617.7,193.6,617.8,194.1,618.1"/>
			<path id="path6310" inkscape:connector-curvature="0" class="st0" d="M191,618.1c0-1-1-1-1.6-0.5
				C190.1,617.4,190.6,617.6,191,618.1"/>
			<path id="path6312" inkscape:connector-curvature="0" class="st0" d="M197.5,617.5c-0.2,0-0.3,0.1-0.5,0.1c0.5,0.6,0.3,1-0.5,1.1
				C197.7,619.8,199.1,618,197.5,617.5"/>
			<path id="path6314" inkscape:connector-curvature="0" class="st0" d="M198,620.7c0.2-0.5,0.2-0.7,0.8-0.6c-0.5-0.4-1.1-0.4-1.6,0
				C197.4,620.3,197.7,620.5,198,620.7"/>
			<path id="path6316" inkscape:connector-curvature="0" class="st0" d="M198.2,615.6c-0.3,0-0.5,0.1-0.8,0.3
				C197.7,615.8,197.9,615.7,198.2,615.6"/>
			<path id="path6318" inkscape:connector-curvature="0" class="st0" d="M201.2,616.4c-0.7-0.2-1.2,0.4-1.5-0.3
				c-0.3-0.7-1.7,0.7-2.2,0.7c0.4,1.3,3.8,1.4,3.3,3c2.1,0,0.1-1.5-0.5-2.2c0.4,0.5,0.9,0.6,1.5,0.4
				C201.5,617.5,201.2,617,201.2,616.4"/>
			<path id="path6320" inkscape:connector-curvature="0" class="st0" d="M199.6,619.5c-0.3-0.3-0.5-0.5-0.8-0.7
				C199,619.1,199.3,619.3,199.6,619.5"/>
			<path id="path6322" inkscape:connector-curvature="0" class="st0" d="M199.7,621.1c-0.2-0.1-0.5-0.2-0.8-0.2
				C199.2,620.9,199.5,621,199.7,621.1"/>
			<path id="path6324" inkscape:connector-curvature="0" class="st0" d="M200.2,620.8c0.3-0.8,0.1-1-0.8-0.5
				C199.7,620.4,199.9,620.6,200.2,620.8"/>
			<path id="path6326" inkscape:connector-curvature="0" class="st0" d="M204.2,617c-0.8-0.4-1.9-0.5-2.8-0.3
				c0.2,0.1,2.4,4.2,2.4,1.2c0,1.8,2,0.1,1.7,1.8c0.6-0.1,1.2-0.3,1.7-0.6c-0.4-0.6-2.3-2.8-1.8-0.7
				C204.7,618.2,204.3,617.7,204.2,617"/>
			<path id="path6328" inkscape:connector-curvature="0" class="st0" d="M202.8,623.5c-0.1-0.5,0-0.8-0.7-0.8
				C202.3,623,202.6,623.3,202.8,623.5"/>
			<path id="path6330" inkscape:connector-curvature="0" class="st0" d="M204,619c0.1,0.5,0.1,0.6,0.6,0.8
				C204.4,619.5,204.2,619.3,204,619"/>
			<path id="path6332" inkscape:connector-curvature="0" class="st0" d="M210.3,618.9c-0.3-0.9-1.3-1.5-1.7-2.4
				c0.5,0.5,1,0.5,1.5,0.1c-1.2-0.6-1.1-2.3-2.2-2.9c-1.7-0.9-0.9,1.5-0.1,2c-0.6-0.2-1.1-0.2-1.6,0.1
				C207.2,617.4,208.4,618.5,210.3,618.9"/>
			<path id="path6334" inkscape:connector-curvature="0" class="st0" d="M210,625.2c0.1-0.2,0.2-0.4,0.2-0.6c-1.1,0.1-2-0.5-3.1-0.2
				c0.1,0.3,0.3,0.5,0.5,0.8C208.3,624.3,209.3,624.6,210,625.2"/>
			<path id="path6336" inkscape:connector-curvature="0" class="st0" d="M211.2,618.2c0.2-0.9,0-1-0.8-0.3
				C210.7,618,210.9,618.1,211.2,618.2"/>
			<path id="path6338" inkscape:connector-curvature="0" class="st0" d="M214.8,627.4c0.3-0.7,0.5-1.3,1.3-0.8c-0.4-1.1-2.1-0.8-3-1
				c0.6,0,1.2-0.3,1.4-0.9c-0.7-0.1-1.2,0.7-1.8,0.6c-0.7-0.1-1.5-0.4-2.2-0.1C211.1,627,213.9,625.6,214.8,627.4"/>
			<path id="path6340" inkscape:connector-curvature="0" class="st0" d="M212.2,619.3c0.2-1-1-0.8-1.5-0.5
				C211.1,619,211.7,619.2,212.2,619.3"/>
			<path id="path6342" inkscape:connector-curvature="0" class="st0" d="M213.6,624.2c-0.6-0.1-1.2,0.1-1.6,0.5
				C212.6,624.8,213.1,624.7,213.6,624.2"/>
			<path id="path6344" inkscape:connector-curvature="0" class="st0" d="M217.1,624.9c-0.2,0.3-0.4,0.5-0.6,0.8
				C217.1,625.6,217.1,625.5,217.1,624.9"/>
			<path id="path6346" inkscape:connector-curvature="0" class="st0" d="M218.2,627.8c-0.2-0.3-0.4-0.5-0.8-0.5
				C217.6,627.4,217.9,627.6,218.2,627.8"/>
			<path id="path6348" inkscape:connector-curvature="0" class="st0" d="M218.3,628c-0.3-0.1-0.6-0.1-0.8-0.2
				C217.7,627.9,218,627.9,218.3,628"/>
			<path id="path6350" inkscape:connector-curvature="0" class="st0" d="M218.2,626c1.4-0.2,3,0.1,4.1-0.9c-1.2-0.3-3.8-0.7-4.8,0.2
				C217.7,625.5,218,625.8,218.2,626"/>
			<path id="path6352" inkscape:connector-curvature="0" class="st0" d="M218,626.8c0.4,0.7,2.4,1,3.1,0.8c-0.7,1.4,2.9,2.4,3.8,1.8
				c-0.5-0.4-1.1-0.8-1.6-1.2c-2.1-1.4,1.5-0.6-0.8-1.4c0.9-0.3,2.2,0.9,3.2,1c1,0.1,1.7,1.2,1.3,1.8c0.8-0.6,3.2,0.1,4.2,0.3
				c1.1,0.3,1.3,1.7,2.7,1.3c-0.9-1-1.5-1.9-2.8-2.3c-1-0.3-2.5-0.1-3.2-1.1c0.8,0.7,2.2,0.4,3.2,0.1c-1.9-1.3-4.8-0.2-6.5-2.1
				c1.5,0.6,2,0.4,3.5,0.4c1.2,0,0.5-1.1-0.3-1.3c-1.2-0.2-2.4,0.2-3.5,0.5c-0.6,0.2-4.2-0.4-3,1.2C220.5,625.5,218.8,626,218,626.8
				"/>
			<path id="path6354" inkscape:connector-curvature="0" class="st0" d="M218.8,628.3c-0.7,0.1-0.6,0.3,0.3,0.6
				C219.1,628.7,218.9,628.5,218.8,628.3"/>
			<path id="path6356" inkscape:connector-curvature="0" class="st0" d="M221.2,629.2c-0.2-0.5-0.2-0.7-0.8-0.5
				C220.7,628.9,221,629,221.2,629.2"/>
			<path id="path6358" inkscape:connector-curvature="0" class="st0" d="M222.8,629.7c-0.2-0.3-0.4-0.4-0.8-0.5
				C222.3,629.4,222.5,629.5,222.8,629.7"/>
			<path id="path6360" inkscape:connector-curvature="0" class="st0" d="M237.9,626.5c-1.2-1.6-7.7-3-9.1-0.9c1.2-0.6,1.4,1,2,1.6
				c0.5,0.5,4,0.5,2.2,0.7c0.5,0.1,1.1,0.1,1.6,0.1c0.4-0.1-0.1-0.5,0.1-0.7c0.6-0.5,1.2,0.9,1.6,1
				C237.4,628.7,238.2,627.4,237.9,626.5"/>
			<path id="path6362" inkscape:connector-curvature="0" class="st0" d="M235.7,631.1c0.2-0.2,0.4-0.5,0.5-0.7
				C235.3,630,235.2,630.3,235.7,631.1"/>
			<path id="path6364" inkscape:connector-curvature="0" class="st0" d="M237.7,633.5c0-0.2,0-0.4,0.1-0.6c-0.6-0.1-1.1-0.1-1.6,0.2
				C236.7,633.1,237.2,633.2,237.7,633.5"/>
			<path id="path6366" inkscape:connector-curvature="0" class="st0" d="M239,632.5c-0.2-0.6-0.5-1-1.1-1.3
				c-0.2,0.2-0.4,0.5-0.5,0.9C238,632.2,238.5,632.4,239,632.5"/>
			<path id="path6368" inkscape:connector-curvature="0" class="st0" d="M237.7,625.6c0.1,0.7,1.1,0.6,1.5,0.6
				C238.8,625.9,238.3,625.7,237.7,625.6"/>
			<path id="path6370" inkscape:connector-curvature="0" class="st0" d="M239.7,627.7c-0.4,0-0.8,0.2-1,0.5c0.5,0.3,1,0.4,1.5,0.2
				C240.1,628.2,239.9,627.9,239.7,627.7"/>
			<path id="path6372" inkscape:connector-curvature="0" class="st0" d="M240.1,633.4c0.1-0.5-0.1-0.6-0.8-0.3
				C239.6,633.2,239.9,633.3,240.1,633.4"/>
			<path id="path6374" inkscape:connector-curvature="0" class="st0" d="M241.2,633.6c-0.2-0.3-0.4-0.6-0.7-0.8
				C240.7,633.1,241,633.3,241.2,633.6"/>
			<path id="path6376" inkscape:connector-curvature="0" class="st0" d="M242,628.1c0.6-0.6,0.1-1.1-0.6-0.8
				C241.5,627.6,241.7,627.9,242,628.1"/>
			<path id="path6395" inkscape:connector-curvature="0" class="st0" d="M149,543.7c-0.1-0.3-0.1-0.6-0.2-0.9
				C149.9,543,149.9,543.3,149,543.7"/>
			<path id="path6397" inkscape:connector-curvature="0" class="st0" d="M168.5,593.8c0.1,0.2,0.1,0.4,0.2,0.6
				C168.6,594.2,168.6,594,168.5,593.8"/>
			<path id="path6399" inkscape:connector-curvature="0" class="st0" d="M168.5,593.8C168.5,593.5,168.5,593.6,168.5,593.8"/>
			<path id="path6401" inkscape:connector-curvature="0" class="st0" d="M185,601.1c0-0.3,0-0.6-0.1-0.8c0.2,0.3,0.3,0.5,0.5,0.8
				C185.2,601.1,185.1,601.1,185,601.1"/>
			<path id="path6403" inkscape:connector-curvature="0" class="st0" d="M206.6,610.8c-0.6-0.7-1.4-2.3-0.8-3.1
				c0.2,1,1.8,0.9,1.6-0.2c-0.1-0.6-1.9-1.2-2.4-1.4c0.9-0.8,2,0.2,2.9,0.4c2,0.5,1.1-1.9,1.7-2.7c0.6-0.9,2.4,1.2,3.1,1.3
				c1.2,0.3,2.2-1.1,3.3-0.4c1.2,0.8,1.3,2.4,2,3.5c1,1.5,1.8,3.2,2.5,4.9c1.7,3.9,4.2,7.5,5.6,11.6c-0.7-0.4-1.6-0.5-2.4-1
				c0.4,0.4,0.9,0.7,1.5,0.9c-1.1,1.2-3.8,0.4-5,0c-0.7-0.2-1.4-1.3-2.1-1.1c-1,0.3-1.1,0.5-2-0.2c0.2,0.3,0.4,0.7,0.5,1
				c-0.6-0.6-3.1,0.6-2.2-1.1c-0.1,0.8-2.8,1.2-3.5,0.9c0.5-0.4,1-0.8,1.5-1.2c-0.9-0.6-2.3,0.6-3.2,0.8c0-0.6-0.3-1.1-0.8-1.5
				c-0.3,1.9-1.7-0.3-2.4-0.7c1.1,1.4-1.1,0.9-1.8,0.8c-0.6-0.1-1.3,0.5-1.8,0.4c-0.5-0.2-0.7-1.2-1.2-1.5c0.9-0.1,1.6,0.7,2.5,0.8
				c-0.1-0.6-0.4-1-1.1-0.9c0.6-0.2,1.2-0.1,1.6,0.4c-1.8-1.7,3.4,0.1,3.9-0.6c0.4-0.6,0-1.5,1.3-1.1c0.9,0.3,0,2.8,1.5,2.4
				c-0.5-0.3-0.8-0.9-0.7-1.5c1.3,0,2.7,1.7,4,1.1c-1.3-0.7-2.7-1.1-3.9-2c-1-0.8-2.4-0.2-3.2-1.5c2.2,0.3,4.6,1,6.4,2.3
				c-0.7-0.4-0.9-1.4,0.2-1.2c1,0.2,1.7,1.2,2.5,1.7c-0.3-0.6-0.7-1-1.2-1.4c1-0.4,2.1,1,2.8,0.5c1.1-0.7,2.6,1,1.8,2.1
				c0.3-0.6,0.9-0.9,1.5-0.5c-0.9-1-0.1-1,0.7-0.9c-2.8-2.4-8.6-1.6-10.7-5c-1.5-2.4,4.3-1.9,3.6-4.1
				C213.9,609.1,208.3,613.6,206.6,610.8"/>
			<path id="path6405" inkscape:connector-curvature="0" class="st0" d="M216.4,602.3c0.2,0.1,0.3,0.2,0.3,0.4
				C216.6,602.6,216.5,602.5,216.4,602.3"/>
			<path id="path6407" inkscape:connector-curvature="0" class="st0" d="M225.8,623.9c0.3,0.2,0.5,0.4,0.8,0.6
				C226,624.8,226,624.3,225.8,623.9"/>
		</g>
	</g>
	<path id="path7062" inkscape:connector-curvature="0" class="st0" d="M127,274.1c0,0.2,0,0.5,0,0.7c-3.8-0.2,0.3-3.5-2.2-4.6
		c-0.6,2.7-1.9,0.7-3.3,1c0.2-0.4,0.7-1.9-0.2-1.9c-1.2,0-2.2-2.1-2.6-0.6c-1.6-0.9-2.4-1.1-1.3-3c0.2,0.2,0.5,0.5,0.7,0.7
		c0.3-1-0.8-1.6-0.6-2.5c0.5-2.3,2.6-0.6,3.4,0.3c1,1.1,2.5,1.7,3.5,2.8c0.7,0.8,1,2,2.4,1.8c-0.1,0.6-0.6,2.3,0.2,2.6
		c0.7,0.3,1.6-0.5,1.8,0.8c-0.9-0.3-1.1,1.3-2.3,1.1"/>
</g>
</svg>
